<?xml version="1.0" encoding="UTF-8"?>
<svg xmlns="http://www.w3.org/2000/svg" xmlns:xlink="http://www.w3.org/1999/xlink" width="128pt" height="128pt" viewBox="0 0 128 128" version="1.1">
<g id="surface1">
<path style=" stroke:none;fill-rule:nonzero;fill:#FFFFFF;fill-opacity:1;" d="M 54.84375 0.0234375 C 37.140625 0.289063 19.710938 6.304688 5.640625 17.234375 L 3.859375 18.601563 C 0.679688 21.078125 -0.703125 25.203125 0.34375 29.101563 L 6.460938 51.898438 C 11.398438 70.335938 24.28125 85.257813 41.820313 92.804688 L 44.242188 93.84375 C 46.257813 101.101563 49.640625 108.039063 54.304688 114.304688 L 58.304688 119.679688 C 61.804688 124.359375 67.15625 126.9375 72.71875 126.9375 C 75.101563 126.9375 77.539063 126.460938 79.859375 125.460938 L 86.023438 122.804688 C 103.5625 115.257813 116.4375 100.335938 121.375 81.898438 L 127.5 59.101563 C 128.539063 55.203125 127.164063 51.078125 123.976563 48.601563 L 122.195313 47.242188 C 110.960938 38.5 97.578125 32.921875 83.640625 30.898438 L 77.625 8.375 C 76.578125 4.5 73.320313 1.617188 69.320313 1.078125 L 67.101563 0.765625 C 63.023438 0.203125 58.921875 -0.046875 54.84375 0.0234375 Z M 56.0625 4.015625 C 59.5625 4.015625 63.078125 4.242188 66.5625 4.71875 L 68.78125 5.039063 C 71.179688 5.359375 73.125 7.078125 73.757813 9.421875 L 79.359375 30.375 L 79.859375 32.242188 C 80.0625 33 80.265625 33.757813 80.421875 34.523438 C 80.820313 36.296875 81.140625 38.101563 81.375 39.875 C 81.539063 41.242188 81.679688 42.601563 81.742188 43.9375 C 82.554688 57.4375 78.617188 70.820313 70.34375 81.921875 L 66.320313 87.304688 C 65.179688 88.828125 63.757813 90.023438 62.195313 90.945313 C 61.710938 90.429688 60.976563 90.171875 60.242188 90.367188 L 56.375 91.40625 C 55.640625 91.601563 55.132813 92.195313 54.96875 92.882813 C 53.148438 92.867188 51.320313 92.539063 49.5625 91.78125 L 47.59375 90.9375 L 43.398438 89.125 C 43.296875 89.078125 43.203125 89.039063 43.101563 88.976563 C 26.859375 81.882813 14.921875 68.015625 10.320313 50.859375 L 4.203125 28.0625 C 3.578125 25.71875 4.398438 23.257813 6.320313 21.757813 L 8.078125 20.398438 C 21.78125 9.757813 38.820313 4.015625 56.0625 4.015625 Z M 53.179688 9.070313 C 52.070313 9.078125 51.179688 9.976563 51.1875 11.078125 C 51.1875 12.179688 52.085938 13.070313 53.1875 13.070313 L 53.195313 13.070313 C 55.085938 13.054688 57.023438 13.132813 58.9375 13.28125 C 58.992188 13.289063 59.046875 13.296875 59.101563 13.296875 C 60.132813 13.296875 61.007813 12.5 61.09375 11.453125 C 61.1875 10.351563 60.359375 9.390625 59.257813 9.296875 C 57.234375 9.140625 55.1875 9.0625 53.179688 9.070313 Z M 43.664063 9.789063 C 35.03125 11.054688 26.804688 13.953125 19.203125 18.40625 C 18.25 18.96875 17.9375 20.195313 18.492188 21.148438 C 18.867188 21.78125 19.53125 22.132813 20.21875 22.132813 C 20.5625 22.132813 20.914063 22.046875 21.226563 21.859375 C 28.382813 17.664063 36.125 14.929688 44.25 13.742188 C 45.335938 13.585938 46.09375 12.570313 45.9375 11.476563 C 45.78125 10.382813 44.757813 9.625 43.664063 9.789063 Z M 67.5 22.273438 C 66.382813 22.203125 65.445313 23.046875 65.375 24.148438 C 65.375 24.195313 65.039063 29.039063 60.6875 30.203125 C 56.390625 31.359375 53.695313 27.460938 53.59375 27.3125 C 52.984375 26.382813 51.742188 26.125 50.820313 26.742188 C 49.898438 27.34375 49.648438 28.585938 50.25 29.507813 C 50.40625 29.742188 53.570313 34.429688 59.039063 34.429688 C 59.882813 34.429688 60.773438 34.320313 61.71875 34.0625 C 68.828125 32.15625 69.351563 24.703125 69.375 24.382813 C 69.4375 23.28125 68.601563 22.335938 67.5 22.273438 Z M 32.71875 31.59375 C 31.625 31.507813 30.671875 32.359375 30.601563 33.46875 C 30.601563 33.515625 30.265625 38.351563 25.90625 39.523438 C 21.625 40.664063 18.921875 36.78125 18.8125 36.625 C 18.210938 35.703125 16.96875 35.445313 16.046875 36.054688 C 15.125 36.664063 14.867188 37.898438 15.476563 38.820313 C 15.625 39.054688 18.796875 43.742188 24.273438 43.742188 C 25.109375 43.742188 26 43.632813 26.945313 43.375 C 34.054688 41.476563 34.578125 34.015625 34.59375 33.703125 C 34.664063 32.601563 33.828125 31.65625 32.71875 31.59375 Z M 84.625 35.078125 C 97.320313 37.195313 109.484375 42.421875 119.757813 50.398438 L 121.523438 51.757813 C 123.4375 53.257813 124.257813 55.71875 123.640625 58.0625 L 117.523438 80.859375 C 112.898438 98.117188 100.84375 112.0625 84.4375 119.125 L 78.28125 121.78125 C 76.523438 122.539063 74.6875 122.867188 72.867188 122.882813 C 72.703125 122.195313 72.195313 121.601563 71.460938 121.40625 L 67.59375 120.367188 C 66.859375 120.164063 66.125 120.429688 65.632813 120.945313 C 64.078125 120.023438 62.65625 118.828125 61.523438 117.296875 L 57.5 111.914063 C 53.796875 106.960938 50.976563 101.5625 49.0625 95.875 C 51.039063 96.601563 53.101563 96.9375 55.125 96.9375 C 60.664063 96.9375 66.039063 94.359375 69.539063 89.679688 L 73.539063 84.296875 C 82.195313 72.679688 86.421875 58.71875 85.78125 44.617188 C 89.484375 45.359375 93.140625 46.4375 96.695313 47.859375 C 96.9375 47.960938 97.203125 48 97.4375 48 C 98.242188 48 99 47.515625 99.304688 46.742188 C 99.71875 45.71875 99.203125 44.539063 98.179688 44.140625 C 94.039063 42.5 89.78125 41.28125 85.4375 40.5 C 85.257813 38.703125 84.984375 36.875 84.625 35.078125 Z M 45.851563 44.320313 C 44.796875 44.359375 43.835938 45.179688 43.820313 46.289063 L 43.65625 56.367188 C 43.632813 57.414063 44.101563 58.375 44.921875 59.023438 C 45.507813 59.476563 46.210938 59.71875 46.9375 59.71875 C 47.226563 59.71875 47.515625 59.679688 47.804688 59.601563 L 53.648438 58.039063 C 54.71875 57.75 55.351563 56.65625 55.0625 55.59375 C 54.773438 54.523438 53.679688 53.890625 52.617188 54.179688 L 47.664063 55.5 L 47.8125 46.351563 C 47.835938 45.25 46.953125 44.34375 45.851563 44.320313 Z M 106.015625 48.023438 C 105.242188 47.929688 104.453125 48.296875 104.039063 49.023438 C 103.5 49.976563 103.835938 51.195313 104.789063 51.75 C 106.445313 52.6875 108.085938 53.71875 109.65625 54.804688 C 110 55.046875 110.40625 55.15625 110.789063 55.15625 C 111.429688 55.15625 112.054688 54.859375 112.4375 54.296875 C 113.070313 53.390625 112.84375 52.140625 111.9375 51.515625 C 110.257813 50.359375 108.53125 49.265625 106.773438 48.273438 C 106.53125 48.132813 106.273438 48.054688 106.015625 48.023438 Z M 55.945313 63.265625 C 54.421875 63.320313 52.921875 63.546875 51.453125 63.9375 C 45.59375 65.507813 40.515625 69.710938 36.75 76.085938 C 36.1875 77.03125 36.5 78.257813 37.445313 78.820313 C 37.765625 79.007813 38.117188 79.101563 38.46875 79.101563 C 39.148438 79.101563 39.820313 78.75 40.1875 78.117188 C 43.414063 72.664063 47.664063 69.09375 52.492188 67.804688 C 57.289063 66.515625 62.648438 67.5 67.96875 70.648438 C 68.921875 71.203125 70.148438 70.890625 70.710938 69.9375 C 71.273438 68.992188 70.960938 67.765625 70.007813 67.195313 C 65.304688 64.421875 60.523438 63.09375 55.945313 63.265625 Z M 100.960938 63.367188 C 95.390625 63.28125 92.164063 68.046875 92.015625 68.28125 C 91.40625 69.195313 91.664063 70.429688 92.570313 71.039063 C 93.492188 71.648438 94.726563 71.40625 95.34375 70.492188 C 95.460938 70.328125 98.148438 66.445313 102.445313 67.59375 C 106.742188 68.742188 107.132813 73.453125 107.148438 73.640625 C 107.210938 74.703125 108.085938 75.523438 109.132813 75.523438 C 109.179688 75.523438 109.21875 75.523438 109.257813 75.523438 C 110.367188 75.453125 111.203125 74.507813 111.132813 73.40625 C 111.117188 73.085938 110.585938 65.625 103.476563 63.71875 C 102.59375 63.484375 101.75 63.375 100.960938 63.367188 Z M 55.851563 71 C 55.601563 70.960938 55.328125 70.976563 55.0625 71.046875 L 51.195313 72.085938 C 50.132813 72.375 49.5 73.46875 49.78125 74.53125 C 50.023438 75.429688 50.828125 76.023438 51.71875 76.023438 C 51.882813 76.023438 52.0625 76 52.234375 75.945313 L 56.09375 74.90625 C 57.164063 74.625 57.804688 73.53125 57.515625 72.460938 C 57.304688 71.664063 56.625 71.101563 55.851563 71 Z M 84.5 76.679688 C 83.398438 76.632813 82.453125 77.453125 82.382813 78.5625 L 81.867188 87.6875 L 77.03125 86 C 75.984375 85.640625 74.84375 86.1875 74.476563 87.226563 C 74.117188 88.273438 74.671875 89.414063 75.710938 89.78125 L 81.429688 91.773438 C 81.789063 91.898438 82.15625 91.960938 82.523438 91.960938 C 83.15625 91.960938 83.789063 91.773438 84.34375 91.40625 C 85.210938 90.820313 85.742188 89.890625 85.804688 88.851563 L 86.375 78.789063 C 86.4375 77.6875 85.601563 76.742188 84.5 76.679688 Z M 58.4375 80.65625 C 58.1875 80.617188 57.921875 80.632813 57.65625 80.710938 L 53.789063 81.742188 C 52.71875 82.03125 52.085938 83.125 52.375 84.195313 C 52.617188 85.085938 53.421875 85.679688 54.304688 85.679688 C 54.476563 85.679688 54.648438 85.65625 54.820313 85.609375 L 58.6875 84.570313 C 59.757813 84.28125 60.390625 83.1875 60.101563 82.125 C 59.890625 81.320313 59.210938 80.765625 58.4375 80.65625 Z M 68.125 95.976563 C 67.625 96.046875 67.140625 96.3125 66.8125 96.757813 C 66.148438 97.640625 66.320313 98.890625 67.203125 99.554688 C 70.960938 102.382813 75.203125 103.796875 79.710938 103.796875 C 84.015625 103.796875 88.5625 102.507813 93.15625 99.914063 C 94.125 99.375 94.460938 98.15625 93.921875 97.1875 C 93.382813 96.234375 92.164063 95.890625 91.195313 96.4375 C 83.273438 100.90625 75.601563 100.882813 69.609375 96.367188 C 69.171875 96.03125 68.632813 95.90625 68.125 95.976563 Z M 69.390625 110.65625 C 68.617188 110.765625 67.945313 111.320313 67.734375 112.125 C 67.445313 113.1875 68.085938 114.28125 69.148438 114.570313 L 73.015625 115.609375 C 73.1875 115.65625 73.359375 115.679688 73.53125 115.679688 C 74.414063 115.679688 75.226563 115.085938 75.460938 114.195313 C 75.75 113.125 75.117188 112.023438 74.054688 111.742188 L 70.1875 110.710938 C 69.921875 110.632813 69.648438 110.617188 69.390625 110.65625 Z "/>
</g>
</svg>
