<?xml version="1.0" encoding="UTF-8"?>
<svg xmlns="http://www.w3.org/2000/svg" xmlns:xlink="http://www.w3.org/1999/xlink" width="128pt" height="128pt" viewBox="0 0 128 128" version="1.1">
<g id="surface1">
<path style=" stroke:none;fill-rule:nonzero;fill:#FFFFFF;fill-opacity:1;" d="M 27.195313 2.609375 C 26.679688 2.601563 26.171875 2.789063 25.773438 3.171875 L 25.46875 3.46875 C 7.539063 21.40625 7.539063 50.59375 25.46875 68.53125 C 25.859375 68.914063 26.375 69.117188 26.882813 69.117188 C 27.398438 69.117188 27.914063 68.914063 28.304688 68.53125 C 29.078125 67.75 29.085938 66.476563 28.304688 65.695313 C 11.921875 49.320313 11.921875 22.679688 28.28125 6.3125 L 28.570313 6.03125 C 29.367188 5.257813 29.375 3.992188 28.601563 3.203125 C 28.21875 2.8125 27.710938 2.609375 27.195313 2.609375 Z M 104.84375 2.640625 C 104.34375 2.65625 103.851563 2.875 103.46875 3.273438 C 102.695313 4.0625 102.773438 5.390625 103.5625 6.164063 L 103.695313 6.296875 C 120.078125 22.679688 120.078125 49.320313 103.695313 65.695313 C 102.914063 66.484375 102.914063 67.742188 103.695313 68.53125 C 104.085938 68.914063 104.601563 69.117188 105.117188 69.117188 C 105.625 69.117188 106.140625 68.914063 106.53125 68.53125 C 124.460938 50.59375 124.460938 21.40625 106.53125 3.46875 L 106.226563 3.171875 C 105.828125 2.789063 105.335938 2.617188 104.84375 2.640625 Z M 39.6875 11.09375 C 39.171875 11.085938 38.65625 11.273438 38.257813 11.65625 C 31.640625 18.109375 28 26.757813 28 36 C 28 45.242188 31.640625 53.890625 38.257813 60.34375 C 38.648438 60.71875 39.148438 60.90625 39.65625 60.90625 C 40.179688 60.90625 40.695313 60.703125 41.09375 60.304688 C 41.859375 59.515625 41.84375 58.25 41.054688 57.476563 C 35.210938 51.78125 32 44.15625 32 36 C 32 27.84375 35.210938 20.21875 41.054688 14.523438 C 41.84375 13.75 41.859375 12.484375 41.09375 11.695313 C 40.703125 11.296875 40.195313 11.09375 39.6875 11.09375 Z M 92.3125 11.09375 C 91.804688 11.09375 91.296875 11.296875 90.90625 11.695313 C 90.140625 12.484375 90.15625 13.75 90.945313 14.523438 C 96.789063 20.21875 100 27.84375 100 36 C 100 44.15625 96.789063 51.78125 90.945313 57.476563 C 90.15625 58.25 90.140625 59.515625 90.90625 60.304688 C 91.304688 60.703125 91.820313 60.90625 92.34375 60.90625 C 92.851563 60.90625 93.351563 60.71875 93.742188 60.34375 C 100.359375 53.890625 104 45.242188 104 36 C 104 26.757813 100.359375 18.109375 93.742188 11.65625 C 93.34375 11.273438 92.828125 11.085938 92.3125 11.09375 Z M 52.1875 19.570313 C 51.679688 19.5625 51.164063 19.75 50.765625 20.125 C 46.398438 24.320313 44 29.953125 44 36 C 44 41.875 46.289063 47.398438 50.445313 51.554688 C 50.835938 51.945313 51.34375 52.140625 51.859375 52.140625 C 52.375 52.140625 52.882813 51.945313 53.273438 51.554688 C 54.054688 50.773438 54.054688 49.507813 53.273438 48.726563 C 49.875 45.328125 48 40.804688 48 36 C 48 31.054688 49.96875 26.445313 53.53125 23.015625 C 54.328125 22.25 54.359375 20.984375 53.59375 20.1875 C 53.210938 19.789063 52.703125 19.578125 52.1875 19.570313 Z M 79.8125 19.570313 C 79.296875 19.578125 78.789063 19.78125 78.40625 20.1875 C 77.640625 20.976563 77.671875 22.242188 78.46875 23.007813 C 82.03125 26.445313 84 31.054688 84 36 C 84 40.804688 82.125 45.328125 78.726563 48.726563 C 77.945313 49.507813 77.945313 50.773438 78.726563 51.554688 C 79.117188 51.945313 79.625 52.140625 80.140625 52.140625 C 80.65625 52.140625 81.164063 51.945313 81.554688 51.554688 C 85.710938 47.398438 88 41.875 88 36 C 88 29.953125 85.601563 24.3125 81.234375 20.125 C 80.835938 19.742188 80.320313 19.5625 79.8125 19.570313 Z M 66 28 C 61.585938 28 58 31.585938 58 36 C 58 38.828125 59.484375 41.304688 61.710938 42.726563 L 36.546875 120 L 30 120 C 28.890625 120 28 120.890625 28 122 C 28 123.109375 28.890625 124 30 124 L 102 124 C 103.109375 124 104 123.109375 104 122 C 104 120.890625 103.109375 120 102 120 L 95.453125 120 L 70.289063 42.726563 C 72.515625 41.304688 74 38.828125 74 36 C 74 31.585938 70.414063 28 66 28 Z M 66 32 C 68.203125 32 70 33.796875 70 36 C 70 38.203125 68.203125 40 66 40 C 63.796875 40 62 38.203125 62 36 C 62 33.796875 63.796875 32 66 32 Z M 65.515625 43.945313 C 65.679688 43.960938 65.835938 44 66 44 C 66.164063 44 66.320313 43.960938 66.484375 43.945313 L 70.835938 57.304688 L 59.75 61.671875 Z M 72.070313 61.117188 L 76.84375 75.75 L 61.273438 65.375 Z M 57.742188 67.828125 L 74.78125 79.179688 L 50.898438 88.851563 Z M 78.820313 81.851563 L 84.03125 97.84375 C 84.023438 97.898438 84 97.945313 84 98 L 84 102 C 84 103.109375 84.890625 104 86 104 C 86.015625 104 86.023438 103.992188 86.03125 103.992188 L 91.25 120 L 40.75 120 L 42.054688 116 L 68 116 C 69.109375 116 70 115.109375 70 114 C 70 112.890625 69.109375 112 68 112 L 43.359375 112 L 45.96875 103.992188 C 45.976563 103.992188 45.984375 104 46 104 C 47.109375 104 48 103.109375 48 102 L 48 98 C 48 97.945313 47.976563 97.898438 47.96875 97.84375 L 49.320313 93.6875 C 49.507813 93.664063 49.703125 93.648438 49.890625 93.570313 Z M 56 96 C 54.890625 96 54 96.890625 54 98 L 54 102 C 54 103.109375 54.890625 104 56 104 C 57.109375 104 58 103.109375 58 102 L 58 98 C 58 96.890625 57.109375 96 56 96 Z M 66 96 C 64.890625 96 64 96.890625 64 98 L 64 102 C 64 103.109375 64.890625 104 66 104 C 67.109375 104 68 103.109375 68 102 L 68 98 C 68 96.890625 67.109375 96 66 96 Z M 76 96 C 74.890625 96 74 96.890625 74 98 L 74 102 C 74 103.109375 74.890625 104 76 104 C 77.109375 104 78 103.109375 78 102 L 78 98 C 78 96.890625 77.109375 96 76 96 Z M 76 112 C 74.890625 112 74 112.890625 74 114 C 74 115.109375 74.890625 116 76 116 L 84 116 C 85.109375 116 86 115.109375 86 114 C 86 112.890625 85.109375 112 84 112 Z "/>
</g>
</svg>
