<?xml version="1.0" encoding="UTF-8"?>
<svg xmlns="http://www.w3.org/2000/svg" xmlns:xlink="http://www.w3.org/1999/xlink" width="128pt" height="128pt" viewBox="0 0 128 128" version="1.1">
<g id="surface1">
<path style=" stroke:none;fill-rule:nonzero;fill:#FFFFFF;fill-opacity:1;" d="M 50 0.117188 C 48.898438 0.117188 48 1.007813 48 2.109375 L 48 16 L 18 16 C 14.695313 16 12 18.695313 12 22 C 12 24.601563 13.679688 26.804688 16 27.632813 L 16 120 L 10 120 C 8.898438 120 8 120.898438 8 122 C 8 123.101563 8.898438 124 10 124 L 116.21875 124 C 118.421875 124 120.21875 122.203125 120.21875 120 L 120.21875 115.101563 C 120.21875 111.28125 118.101563 107.84375 114.679688 106.140625 L 98.976563 98.34375 C 100.078125 96.476563 101 94.476563 101.679688 92.476563 C 103.382813 91.703125 104.859375 89.664063 105.578125 86.9375 C 106.039063 85.28125 106.117188 83.617188 105.84375 82.21875 C 105.460938 80.375 104.421875 79.101563 103 78.71875 C 102.9375 78.71875 102.898438 78.703125 102.84375 78.679688 C 102.679688 77.703125 102.421875 76.695313 102.039063 75.5625 C 102.21875 75.617188 102.382813 75.679688 102.539063 75.742188 C 103.21875 76.015625 104.023438 75.898438 104.601563 75.421875 C 105.164063 74.960938 105.421875 74.203125 105.257813 73.460938 C 103.929688 67.375 100.65625 62.78125 96 60.101563 L 96 27.632813 C 98.320313 26.804688 100 24.601563 100 22 C 100 18.695313 97.304688 16 94 16 L 60 16 L 60 8.109375 C 60 7.007813 59.101563 6.109375 58 6.109375 C 56.898438 6.109375 56 7.007813 56 8.109375 L 56 16 L 52 16 L 52 2.109375 C 52 1.007813 51.101563 0.117188 50 0.117188 Z M 18 20 L 94 20 C 95.101563 20 96 20.898438 96 22 C 96 23.101563 95.101563 24 94 24 L 18 24 C 16.898438 24 16 23.101563 16 22 C 16 20.898438 16.898438 20 18 20 Z M 20 28 L 92 28 L 92 58.375 C 89.945313 57.757813 87.710938 57.421875 85.320313 57.421875 L 84 57.421875 C 81.40625 57.421875 77.742188 58.101563 74.992188 59.585938 C 72.15625 58.171875 68.921875 57.40625 65.3125 57.40625 L 64 57.40625 C 61.140625 57.40625 56.960938 58.25 54.15625 60.0625 C 49.070313 60.34375 45.460938 64.078125 44.898438 69.742188 C 44.546875 73.1875 44.875 75.75 45.070313 77.28125 C 45.125 77.742188 45.203125 78.3125 45.195313 78.4375 C 45.1875 78.523438 45.171875 78.601563 45.15625 78.6875 C 45.101563 78.703125 45.054688 78.710938 45.007813 78.726563 C 43.578125 79.109375 42.539063 80.382813 42.164063 82.226563 C 41.882813 83.617188 41.96875 85.289063 42.40625 86.9375 C 43.140625 89.664063 44.609375 91.695313 46.3125 92.492188 C 47.015625 94.554688 47.945313 96.5625 49.054688 98.429688 L 33.546875 106.140625 C 30.125 107.84375 28 111.273438 28 115.09375 L 28 120 L 20 120 Z M 30 36 C 28.898438 36 28 36.898438 28 38 C 28 39.101563 28.898438 40 30 40 L 34 40 C 35.101563 40 36 39.101563 36 38 C 36 36.898438 35.101563 36 34 36 Z M 46 36 C 44.898438 36 44 36.898438 44 38 C 44 39.101563 44.898438 40 46 40 L 50 40 C 51.101563 40 52 39.101563 52 38 C 52 36.898438 51.101563 36 50 36 Z M 62 36 C 60.898438 36 60 36.898438 60 38 C 60 39.101563 60.898438 40 62 40 L 66 40 C 67.101563 40 68 39.101563 68 38 C 68 36.898438 67.101563 36 66 36 Z M 78 36 C 76.898438 36 76 36.898438 76 38 C 76 39.101563 76.898438 40 78 40 L 82 40 C 83.101563 40 84 39.101563 84 38 C 84 36.898438 83.101563 36 82 36 Z M 30 44 C 28.898438 44 28 44.898438 28 46 C 28 47.101563 28.898438 48 30 48 L 34 48 C 35.101563 48 36 47.101563 36 46 C 36 44.898438 35.101563 44 34 44 Z M 46 44 C 44.898438 44 44 44.898438 44 46 C 44 47.101563 44.898438 48 46 48 L 50 48 C 51.101563 48 52 47.101563 52 46 C 52 44.898438 51.101563 44 50 44 Z M 62 44 C 60.898438 44 60 44.898438 60 46 C 60 47.101563 60.898438 48 62 48 L 66 48 C 67.101563 48 68 47.101563 68 46 C 68 44.898438 67.101563 44 66 44 Z M 78 44 C 76.898438 44 76 44.898438 76 46 C 76 47.101563 76.898438 48 78 48 L 82 48 C 83.101563 48 84 47.101563 84 46 C 84 44.898438 83.101563 44 82 44 Z M 30 52 C 28.898438 52 28 52.898438 28 54 C 28 55.101563 28.898438 56 30 56 L 34 56 C 35.101563 56 36 55.101563 36 54 C 36 52.898438 35.101563 52 34 52 Z M 46 52 C 44.898438 52 44 52.898438 44 54 C 44 55.101563 44.898438 56 46 56 L 50 56 C 51.101563 56 52 55.101563 52 54 C 52 52.898438 51.101563 52 50 52 Z M 30 60 C 28.898438 60 28 60.898438 28 62 C 28 63.101563 28.898438 64 30 64 L 34 64 C 35.101563 64 36 63.101563 36 62 C 36 60.898438 35.101563 60 34 60 Z M 64 61.414063 L 65.3125 61.414063 C 66.640625 61.414063 67.890625 61.5625 69.09375 61.789063 C 66.773438 63.453125 65.25 66.226563 64.898438 69.742188 C 64.554688 73.203125 64.875 75.742188 65.078125 77.28125 C 65.140625 77.742188 65.195313 78.320313 65.195313 78.4375 C 65.179688 78.523438 65.179688 78.601563 65.15625 78.6875 C 65.09375 78.703125 65.054688 78.71875 65 78.71875 C 63.578125 79.101563 62.539063 80.382813 62.15625 82.21875 C 61.875 83.625 61.960938 85.28125 62.414063 86.9375 C 63.140625 89.664063 64.617188 91.703125 66.3125 92.476563 C 67.015625 94.523438 67.9375 96.539063 69.0625 98.4375 L 53.539063 106.140625 C 50.117188 107.835938 48 111.28125 48 115.101563 L 48 120 L 32 120 L 32 115.09375 C 32 112.804688 33.273438 110.742188 35.328125 109.71875 L 52.84375 101.015625 C 52.875 101 52.890625 100.96875 52.921875 100.953125 C 52.984375 100.921875 53.046875 100.90625 53.101563 100.867188 C 53.179688 100.8125 53.21875 100.726563 53.28125 100.664063 C 53.375 100.578125 53.460938 100.5 53.53125 100.40625 C 53.617188 100.289063 53.679688 100.171875 53.734375 100.054688 C 53.78125 99.9375 53.835938 99.835938 53.867188 99.71875 C 53.898438 99.585938 53.90625 99.460938 53.914063 99.328125 C 53.921875 99.203125 53.921875 99.085938 53.90625 98.960938 C 53.890625 98.828125 53.851563 98.703125 53.804688 98.578125 C 53.773438 98.5 53.78125 98.414063 53.742188 98.335938 C 53.710938 98.289063 53.671875 98.257813 53.640625 98.210938 C 53.617188 98.171875 53.609375 98.117188 53.578125 98.070313 C 51.9375 95.75 50.632813 93.054688 49.8125 90.28125 C 49.554688 89.429688 48.890625 88.867188 48.007813 88.867188 C 47.742188 88.773438 46.796875 87.859375 46.273438 85.90625 C 45.882813 84.445313 45.984375 83.367188 46.132813 82.820313 C 46.679688 83.054688 47.304688 83.039063 47.84375 82.765625 C 48.476563 82.4375 48.890625 81.796875 48.929688 81.078125 C 48.960938 80.421875 49.023438 79.765625 49.132813 79.132813 C 49.25 78.46875 49.164063 77.757813 49.039063 76.773438 C 48.851563 75.328125 48.578125 73.140625 48.875 70.148438 C 49.265625 66.265625 51.414063 64.046875 54.804688 64.046875 C 55.234375 64.046875 55.65625 63.90625 56.007813 63.648438 C 57.679688 62.398438 61.1875 61.414063 64 61.414063 Z M 84 61.421875 L 85.320313 61.421875 C 92.640625 61.421875 98.023438 64.976563 100.460938 71.320313 C 99.742188 71.382813 99.039063 71.617188 98.476563 72.15625 C 97.9375 72.679688 97.164063 73.84375 97.921875 75.921875 C 98.71875 78.0625 99 79.296875 99.078125 81.078125 C 99.101563 81.796875 99.578125 82.398438 100.21875 82.742188 C 100.71875 82.976563 101.320313 83 101.859375 82.804688 C 102.015625 83.34375 102.117188 84.4375 101.71875 85.898438 C 101.195313 87.859375 100.257813 88.757813 100.101563 88.859375 C 99.21875 88.859375 98.4375 89.4375 98.179688 90.28125 C 97.5625 92.398438 96.601563 94.578125 95.375 96.5625 C 94.679688 97.742188 93.882813 98.84375 93 99.84375 C 90.476563 102.78125 87.34375 104.804688 84 104.804688 C 80.703125 104.804688 77.578125 102.820313 75.0625 99.921875 C 74.179688 98.921875 73.382813 97.820313 72.65625 96.640625 C 71.421875 94.617188 70.460938 92.4375 69.820313 90.28125 C 69.5625 89.4375 68.898438 88.859375 68 88.859375 C 67.742188 88.757813 66.804688 87.859375 66.28125 85.898438 C 65.882813 84.4375 65.984375 83.359375 66.140625 82.820313 C 66.679688 83.0625 67.296875 83.039063 67.84375 82.757813 C 68.476563 82.445313 68.898438 81.796875 68.921875 81.078125 C 68.960938 80.421875 69.023438 79.757813 69.140625 79.140625 C 69.257813 78.460938 69.15625 77.757813 69.039063 76.78125 C 68.859375 75.320313 68.578125 73.140625 68.875 70.140625 C 69.257813 66.257813 71.421875 64.039063 74.804688 64.039063 C 75.242188 64.039063 75.65625 63.898438 76 63.640625 C 77.679688 62.398438 81.203125 61.421875 84 61.421875 Z M 30 68 C 28.898438 68 28 68.898438 28 70 C 28 71.101563 28.898438 72 30 72 L 34 72 C 35.101563 72 36 71.101563 36 70 C 36 68.898438 35.101563 68 34 68 Z M 76.851563 68.109375 C 75.671875 68.007813 74.476563 68.554688 73.789063 69.59375 L 71.6875 72.796875 C 71.078125 73.71875 71.328125 74.960938 72.25 75.5625 C 72.59375 75.789063 72.976563 75.898438 73.351563 75.898438 C 74 75.898438 74.640625 75.578125 75.023438 75 L 76.804688 72.289063 L 78.320313 73.03125 C 82.164063 74.90625 86.453125 75.898438 90.726563 75.898438 L 94.09375 75.898438 C 95.195313 75.898438 96.09375 75 96.09375 73.898438 C 96.09375 72.789063 95.195313 71.898438 94.09375 71.898438 L 90.726563 71.898438 C 87.0625 71.898438 83.375 71.046875 80.070313 69.4375 L 78.015625 68.4375 C 77.640625 68.25 77.242188 68.140625 76.851563 68.109375 Z M 30 76 C 28.898438 76 28 76.898438 28 78 C 28 79.101563 28.898438 80 30 80 L 34 80 C 35.101563 80 36 79.101563 36 78 C 36 76.898438 35.101563 76 34 76 Z M 30 84 C 28.898438 84 28 84.898438 28 86 C 28 87.101563 28.898438 88 30 88 L 34 88 C 35.101563 88 36 87.101563 36 86 C 36 84.898438 35.101563 84 34 84 Z M 30 92 C 28.898438 92 28 92.898438 28 94 C 28 95.101563 28.898438 96 30 96 L 34 96 C 35.101563 96 36 95.101563 36 94 C 36 92.898438 35.101563 92 34 92 Z M 96.65625 101.65625 L 112.898438 109.71875 C 114.9375 110.742188 116.21875 112.804688 116.21875 115.101563 L 116.21875 120 L 52 120 L 52 115.101563 C 52 112.804688 53.28125 110.742188 55.320313 109.71875 L 71.398438 101.742188 C 74.71875 105.875 79.117188 108.804688 84 108.804688 C 88.921875 108.804688 93.34375 105.84375 96.65625 101.65625 Z "/>
</g>
</svg>
