<?xml version="1.0" encoding="UTF-8"?>
<svg xmlns="http://www.w3.org/2000/svg" xmlns:xlink="http://www.w3.org/1999/xlink" width="128pt" height="128pt" viewBox="0 0 128 128" version="1.1">
<g id="surface1">
<path style=" stroke:none;fill-rule:nonzero;fill:#FFFFFF;fill-opacity:1;" d="M 62 0.117188 C 60.898438 0.117188 60 1.007813 60 2.109375 L 60 16 L 30 16 C 26.695313 16 24 18.695313 24 22 C 24 24.601563 25.679688 26.804688 28 27.632813 L 28 56 L 10 56 C 8.898438 56 8 56.890625 8 58 C 8 59.109375 8.898438 60 10 60 L 12 60 L 12 120 L 6 120 C 4.898438 120 4 120.890625 4 122 C 4 123.109375 4.898438 124 6 124 L 61.367188 124 C 61.195313 124.117188 61.039063 124.234375 60.867188 124.351563 C 59.960938 124.976563 59.726563 126.226563 60.351563 127.132813 C 60.742188 127.695313 61.367188 128 62 128 C 62.390625 128 62.789063 127.882813 63.132813 127.648438 C 67.0625 124.945313 70.640625 122.273438 73.929688 119.664063 C 74.085938 119.773438 74.203125 119.867188 74.25 119.898438 C 74.710938 120.210938 81.671875 124.960938 90.34375 124.960938 C 91.648438 124.960938 92.984375 124.851563 94.34375 124.601563 C 100.507813 123.5 105.78125 119.828125 110.007813 113.695313 C 120.164063 98.984375 120.164063 72.21875 119.921875 64.375 C 119.882813 63.15625 119.304688 62.039063 118.34375 61.3125 C 117.375 60.578125 116.140625 60.328125 114.960938 60.625 C 113.335938 61.03125 110.898438 61.679688 108 62.5625 L 108 27.632813 C 110.320313 26.804688 112 24.601563 112 22 C 112 18.695313 109.304688 16 106 16 L 72 16 L 72 8.109375 C 72 7.007813 71.101563 6.109375 70 6.109375 C 68.898438 6.109375 68 7.007813 68 8.109375 L 68 16 L 64 16 L 64 2.109375 C 64 1.007813 63.101563 0.117188 62 0.117188 Z M 30 20 L 106 20 C 107.101563 20 108 20.898438 108 22 C 108 23.101563 107.101563 24 106 24 L 30 24 C 28.898438 24 28 23.101563 28 22 C 28 20.898438 28.898438 20 30 20 Z M 32 28 L 104 28 L 104 63.835938 C 92.601563 67.625 76.789063 74.351563 68.945313 84.375 C 64.132813 90.539063 62.1875 96.820313 63.164063 103.054688 C 64.15625 109.382813 67.960938 114.179688 70.84375 117.007813 C 69.523438 118.046875 68.15625 119.09375 66.742188 120.148438 C 66.507813 120.054688 66.265625 120 66 120 L 32 120 L 32 108 L 58 108 C 59.101563 108 60 107.109375 60 106 C 60 104.890625 59.101563 104 58 104 L 32 104 Z M 42 36 C 40.898438 36 40 36.890625 40 38 C 40 39.109375 40.898438 40 42 40 L 46 40 C 47.101563 40 48 39.109375 48 38 C 48 36.890625 47.101563 36 46 36 Z M 58 36 C 56.898438 36 56 36.890625 56 38 C 56 39.109375 56.898438 40 58 40 L 62 40 C 63.101563 40 64 39.109375 64 38 C 64 36.890625 63.101563 36 62 36 Z M 74 36 C 72.898438 36 72 36.890625 72 38 C 72 39.109375 72.898438 40 74 40 L 78 40 C 79.101563 40 80 39.109375 80 38 C 80 36.890625 79.101563 36 78 36 Z M 90 36 C 88.898438 36 88 36.890625 88 38 C 88 39.109375 88.898438 40 90 40 L 94 40 C 95.101563 40 96 39.109375 96 38 C 96 36.890625 95.101563 36 94 36 Z M 42 44 C 40.898438 44 40 44.890625 40 46 C 40 47.109375 40.898438 48 42 48 L 46 48 C 47.101563 48 48 47.109375 48 46 C 48 44.890625 47.101563 44 46 44 Z M 58 44 C 56.898438 44 56 44.890625 56 46 C 56 47.109375 56.898438 48 58 48 L 62 48 C 63.101563 48 64 47.109375 64 46 C 64 44.890625 63.101563 44 62 44 Z M 74 44 C 72.898438 44 72 44.890625 72 46 C 72 47.109375 72.898438 48 74 48 L 78 48 C 79.101563 48 80 47.109375 80 46 C 80 44.890625 79.101563 44 78 44 Z M 90 44 C 88.898438 44 88 44.890625 88 46 C 88 47.109375 88.898438 48 90 48 L 94 48 C 95.101563 48 96 47.109375 96 46 C 96 44.890625 95.101563 44 94 44 Z M 42 52 C 40.898438 52 40 52.890625 40 54 C 40 55.109375 40.898438 56 42 56 L 46 56 C 47.101563 56 48 55.109375 48 54 C 48 52.890625 47.101563 52 46 52 Z M 58 52 C 56.898438 52 56 52.890625 56 54 C 56 55.109375 56.898438 56 58 56 L 62 56 C 63.101563 56 64 55.109375 64 54 C 64 52.890625 63.101563 52 62 52 Z M 74 52 C 72.898438 52 72 52.890625 72 54 C 72 55.109375 72.898438 56 74 56 L 78 56 C 79.101563 56 80 55.109375 80 54 C 80 52.890625 79.101563 52 78 52 Z M 90 52 C 88.898438 52 88 52.890625 88 54 C 88 55.109375 88.898438 56 90 56 L 94 56 C 95.101563 56 96 55.109375 96 54 C 96 52.890625 95.101563 52 94 52 Z M 16 60 L 28 60 L 28 104 L 16 104 Z M 42 60 C 40.898438 60 40 60.890625 40 62 C 40 63.109375 40.898438 64 42 64 L 46 64 C 47.101563 64 48 63.109375 48 62 C 48 60.890625 47.101563 60 46 60 Z M 58 60 C 56.898438 60 56 60.890625 56 62 C 56 63.109375 56.898438 64 58 64 L 62 64 C 63.101563 64 64 63.109375 64 62 C 64 60.890625 63.101563 60 62 60 Z M 74 60 C 72.898438 60 72 60.890625 72 62 C 72 63.109375 72.898438 64 74 64 L 78 64 C 79.101563 64 80 63.109375 80 62 C 80 60.890625 79.101563 60 78 60 Z M 115.929688 64.492188 C 116.15625 72.039063 116.171875 97.71875 106.71875 111.421875 C 103.117188 116.632813 98.734375 119.742188 93.679688 120.664063 C 86.226563 122.015625 79.273438 118.289063 77.1875 117.023438 C 87.40625 108.515625 94.320313 100.820313 98.679688 95.226563 C 99.359375 94.359375 99.203125 93.101563 98.335938 92.421875 C 97.460938 91.75 96.210938 91.898438 95.53125 92.773438 C 91.210938 98.3125 84.289063 105.984375 73.984375 114.476563 C 71.507813 112.125 67.984375 107.921875 67.125 102.4375 C 66.320313 97.34375 68 92.09375 72.101563 86.84375 C 82.375 73.710938 108.25 66.421875 115.929688 64.492188 Z M 42 68 C 40.898438 68 40 68.890625 40 70 C 40 71.109375 40.898438 72 42 72 L 46 72 C 47.101563 72 48 71.109375 48 70 C 48 68.890625 47.101563 68 46 68 Z M 58 68 C 56.898438 68 56 68.890625 56 70 C 56 71.109375 56.898438 72 58 72 L 62 72 C 63.101563 72 64 71.109375 64 70 C 64 68.890625 63.101563 68 62 68 Z M 42 76 C 40.898438 76 40 76.890625 40 78 C 40 79.109375 40.898438 80 42 80 L 46 80 C 47.101563 80 48 79.109375 48 78 C 48 76.890625 47.101563 76 46 76 Z M 58 76 C 56.898438 76 56 76.890625 56 78 C 56 79.109375 56.898438 80 58 80 L 62 80 C 63.101563 80 64 79.109375 64 78 C 64 76.890625 63.101563 76 62 76 Z M 105.429688 79.632813 C 104.65625 79.554688 103.875 79.9375 103.46875 80.664063 L 103.28125 81.03125 C 102.851563 81.828125 102.054688 83.3125 100.71875 85.421875 C 100.132813 86.359375 100.414063 87.585938 101.34375 88.179688 C 101.679688 88.390625 102.046875 88.492188 102.414063 88.492188 C 103.078125 88.492188 103.726563 88.15625 104.101563 87.554688 C 105.515625 85.328125 106.390625 83.695313 106.8125 82.914063 L 106.984375 82.59375 C 107.515625 81.625 107.15625 80.40625 106.1875 79.875 C 105.945313 79.742188 105.6875 79.664063 105.429688 79.632813 Z M 42 84 C 40.898438 84 40 84.890625 40 86 C 40 87.109375 40.898438 88 42 88 L 46 88 C 47.101563 88 48 87.109375 48 86 C 48 84.890625 47.101563 84 46 84 Z M 42 92 C 40.898438 92 40 92.890625 40 94 C 40 95.109375 40.898438 96 42 96 L 46 96 C 47.101563 96 48 95.109375 48 94 C 48 92.890625 47.101563 92 46 92 Z M 16 108 L 28 108 L 28 120 L 16 120 Z "/>
</g>
</svg>
