<?xml version="1.0" encoding="UTF-8"?>
<svg xmlns="http://www.w3.org/2000/svg" xmlns:xlink="http://www.w3.org/1999/xlink" width="128pt" height="128pt" viewBox="0 0 128 128" version="1.1">
<g id="surface1">
<path style=" stroke:none;fill-rule:nonzero;fill:#FFFFFF;fill-opacity:1;" d="M 65.992188 12.03125 C 65.867188 12.03125 65.75 12.039063 65.625 12.0625 C 65.5 12.085938 65.375 12.125 65.25 12.171875 C 65.132813 12.226563 65.023438 12.289063 64.90625 12.359375 C 64.851563 12.398438 64.78125 12.414063 64.71875 12.460938 L 6.71875 60.460938 C 5.867188 61.164063 5.757813 62.421875 6.453125 63.28125 C 6.859375 63.757813 7.429688 64 8 64 C 8.453125 64 8.90625 63.851563 9.28125 63.539063 L 16 57.976563 L 16 108 L 10 108 C 8.890625 108 8 108.890625 8 110 C 8 111.109375 8.890625 112 10 112 L 122 112 C 123.109375 112 124 111.109375 124 110 C 124 108.890625 123.109375 108 122 108 L 116 108 L 116 57.976563 L 122.71875 63.539063 C 123.09375 63.851563 123.546875 64 124 64 C 124.570313 64 125.140625 63.757813 125.539063 63.28125 C 126.242188 62.421875 126.125 61.164063 125.273438 60.460938 L 67.273438 12.460938 C 67.21875 12.414063 67.148438 12.398438 67.085938 12.359375 C 66.96875 12.28125 66.859375 12.21875 66.726563 12.171875 C 66.609375 12.125 66.5 12.09375 66.375 12.0625 C 66.25 12.039063 66.117188 12.03125 65.992188 12.03125 Z M 66 16.59375 L 112 54.664063 L 112 88 L 20 88 L 20 54.664063 Z M 60 36 C 57.796875 36 56 37.796875 56 40 L 56 48 L 48 48 C 45.796875 48 44 49.796875 44 52 L 44 64 C 44 66.203125 45.796875 68 48 68 L 56 68 L 56 76 C 56 78.203125 57.796875 80 60 80 L 72 80 C 74.203125 80 76 78.203125 76 76 L 76 68 L 84 68 C 86.203125 68 88 66.203125 88 64 L 88 52 C 88 49.796875 86.203125 48 84 48 L 76 48 L 76 40 C 76 37.796875 74.203125 36 72 36 Z M 60 40 L 72 40 L 72 48 C 72 50.203125 73.796875 52 76 52 L 84 52 L 84 64 L 76 64 C 73.796875 64 72 65.796875 72 68 L 72 76 L 60 76 L 60 68 C 60 65.796875 58.203125 64 56 64 L 48 64 L 48 52 L 56 52 C 58.203125 52 60 50.203125 60 48 Z M 20 92 L 112 92 L 112 108 L 20 108 Z M 26 96 C 24.890625 96 24 96.890625 24 98 L 24 102 C 24 103.109375 24.890625 104 26 104 C 27.109375 104 28 103.109375 28 102 L 28 98 C 28 96.890625 27.109375 96 26 96 Z M 36 96 C 34.890625 96 34 96.890625 34 98 L 34 102 C 34 103.109375 34.890625 104 36 104 C 37.109375 104 38 103.109375 38 102 L 38 98 C 38 96.890625 37.109375 96 36 96 Z M 46 96 C 44.890625 96 44 96.890625 44 98 L 44 102 C 44 103.109375 44.890625 104 46 104 C 47.109375 104 48 103.109375 48 102 L 48 98 C 48 96.890625 47.109375 96 46 96 Z M 56 96 C 54.890625 96 54 96.890625 54 98 L 54 102 C 54 103.109375 54.890625 104 56 104 C 57.109375 104 58 103.109375 58 102 L 58 98 C 58 96.890625 57.109375 96 56 96 Z M 66 96 C 64.890625 96 64 96.890625 64 98 L 64 102 C 64 103.109375 64.890625 104 66 104 C 67.109375 104 68 103.109375 68 102 L 68 98 C 68 96.890625 67.109375 96 66 96 Z M 76 96 C 74.890625 96 74 96.890625 74 98 L 74 102 C 74 103.109375 74.890625 104 76 104 C 77.109375 104 78 103.109375 78 102 L 78 98 C 78 96.890625 77.109375 96 76 96 Z M 86 96 C 84.890625 96 84 96.890625 84 98 L 84 102 C 84 103.109375 84.890625 104 86 104 C 87.109375 104 88 103.109375 88 102 L 88 98 C 88 96.890625 87.109375 96 86 96 Z M 96 96 C 94.890625 96 94 96.890625 94 98 L 94 102 C 94 103.109375 94.890625 104 96 104 C 97.109375 104 98 103.109375 98 102 L 98 98 C 98 96.890625 97.109375 96 96 96 Z M 106 96 C 104.890625 96 104 96.890625 104 98 L 104 102 C 104 103.109375 104.890625 104 106 104 C 107.109375 104 108 103.109375 108 102 L 108 98 C 108 96.890625 107.109375 96 106 96 Z "/>
</g>
</svg>
