<?xml version="1.0" encoding="UTF-8"?>
<svg xmlns="http://www.w3.org/2000/svg" xmlns:xlink="http://www.w3.org/1999/xlink" width="128pt" height="128pt" viewBox="0 0 128 128" version="1.1">
<g id="surface1">
<path style=" stroke:none;fill-rule:nonzero;fill:#FFFFFF;fill-opacity:1;" d="M 68 4 C 67.671875 4 67.34375 4.078125 67.046875 4.242188 L 17.046875 31.320313 C 16.398438 31.671875 16 32.351563 16 33.085938 L 16 45.585938 C 16 46.289063 16.375 46.9375 16.976563 47.304688 C 17.585938 47.664063 18.328125 47.679688 18.953125 47.34375 L 24 44.609375 L 24 71.585938 L 5.046875 81.851563 C 4.40625 82.203125 4 82.875 4 83.609375 L 4 93.585938 C 4 94.289063 4.375 94.9375 4.976563 95.304688 C 5.578125 95.664063 6.335938 95.679688 6.953125 95.34375 L 12 92.609375 L 12 120 L 6 120 C 4.890625 120 4 120.890625 4 122 C 4 123.109375 4.890625 124 6 124 L 86 124 C 87.109375 124 88 123.109375 88 122 C 88 120.890625 87.109375 120 86 120 L 80 120 L 80 112 L 118 112 C 119.109375 112 120 111.109375 120 110 C 120 108.890625 119.109375 108 118 108 L 112 108 L 112 44.609375 L 117.046875 47.34375 C 117.34375 47.507813 117.671875 47.585938 118 47.585938 C 118.351563 47.585938 118.710938 47.492188 119.023438 47.304688 C 119.625 46.9375 120 46.289063 120 45.585938 L 120 33.085938 C 120 32.351563 119.59375 31.671875 118.953125 31.320313 L 68.953125 4.242188 C 68.65625 4.078125 68.328125 4 68 4 Z M 68 8.273438 L 116 34.273438 L 116 42.226563 L 68.953125 16.742188 C 68.65625 16.578125 68.328125 16.5 68 16.5 C 67.671875 16.5 67.34375 16.578125 67.046875 16.742188 L 20 42.226563 L 20 34.273438 Z M 68 20.78125 L 108 42.4375 L 108 88 L 94 88 C 92.890625 88 92 88.890625 92 90 C 92 91.109375 92.890625 92 94 92 L 108 92 L 108 108 L 80 108 L 80 92.71875 L 84.835938 95.34375 C 85.132813 95.507813 85.460938 95.585938 85.789063 95.585938 C 86.140625 95.585938 86.5 95.492188 86.8125 95.304688 C 87.421875 94.9375 87.789063 94.289063 87.789063 93.585938 L 87.789063 83.609375 C 87.789063 82.875 87.382813 82.203125 86.742188 81.851563 L 75.9375 76 L 78 76 C 79.109375 76 80 75.109375 80 74 C 80 72.890625 79.109375 72 78 72 L 74 72 C 72.9375 72 72.085938 72.835938 72.023438 73.875 L 61.171875 68 L 62 68 C 63.109375 68 64 67.109375 64 66 C 64 64.890625 63.109375 64 62 64 L 58 64 C 57.148438 64 56.4375 64.53125 56.148438 65.28125 L 46.84375 60.242188 C 46.25 59.921875 45.539063 59.921875 44.9375 60.242188 L 28 69.414063 L 28 42.4375 Z M 42 44 C 40.890625 44 40 44.890625 40 46 C 40 47.109375 40.890625 48 42 48 L 46 48 C 47.109375 48 48 47.109375 48 46 C 48 44.890625 47.109375 44 46 44 Z M 58 44 C 56.890625 44 56 44.890625 56 46 C 56 47.109375 56.890625 48 58 48 L 62 48 C 63.109375 48 64 47.109375 64 46 C 64 44.890625 63.109375 44 62 44 Z M 74 44 C 72.890625 44 72 44.890625 72 46 C 72 47.109375 72.890625 48 74 48 L 78 48 C 79.109375 48 80 47.109375 80 46 C 80 44.890625 79.109375 44 78 44 Z M 90 44 C 88.890625 44 88 44.890625 88 46 C 88 47.109375 88.890625 48 90 48 L 94 48 C 95.109375 48 96 47.109375 96 46 C 96 44.890625 95.109375 44 94 44 Z M 42 52 C 40.890625 52 40 52.890625 40 54 C 40 55.109375 40.890625 56 42 56 L 46 56 C 47.109375 56 48 55.109375 48 54 C 48 52.890625 47.109375 52 46 52 Z M 58 52 C 56.890625 52 56 52.890625 56 54 C 56 55.109375 56.890625 56 58 56 L 62 56 C 63.109375 56 64 55.109375 64 54 C 64 52.890625 63.109375 52 62 52 Z M 74 52 C 72.890625 52 72 52.890625 72 54 C 72 55.109375 72.890625 56 74 56 L 78 56 C 79.109375 56 80 55.109375 80 54 C 80 52.890625 79.109375 52 78 52 Z M 90 52 C 88.890625 52 88 52.890625 88 54 C 88 55.109375 88.890625 56 90 56 L 94 56 C 95.109375 56 96 55.109375 96 54 C 96 52.890625 95.109375 52 94 52 Z M 74 64 C 72.890625 64 72 64.890625 72 66 C 72 67.109375 72.890625 68 74 68 L 78 68 C 79.109375 68 80 67.109375 80 66 C 80 64.890625 79.109375 64 78 64 Z M 90 64 C 88.890625 64 88 64.890625 88 66 C 88 67.109375 88.890625 68 90 68 L 94 68 C 95.109375 68 96 67.109375 96 66 C 96 64.890625 95.109375 64 94 64 Z M 45.898438 64.273438 L 83.789063 84.804688 L 83.789063 90.226563 L 46.84375 70.21875 C 46.554688 70.054688 46.226563 69.96875 45.898438 69.96875 C 45.5625 69.96875 45.242188 70.054688 44.9375 70.21875 L 8 90.226563 L 8 84.804688 Z M 90 72 C 88.890625 72 88 72.890625 88 74 C 88 75.109375 88.890625 76 90 76 L 94 76 C 95.109375 76 96 75.109375 96 74 C 96 72.890625 95.109375 72 94 72 Z M 45.898438 74.25 L 76 90.554688 L 76 120 L 43.992188 120 C 43.992188 119.96875 44 119.929688 44 119.898438 L 44 103.898438 C 44 101.695313 42.203125 99.898438 40 99.898438 L 28 99.898438 C 25.796875 99.898438 24 101.695313 24 103.898438 L 24 119.898438 C 24 119.929688 24.007813 119.96875 24.007813 120 L 16 120 L 16 90.4375 Z M 26 92 C 24.890625 92 24 92.890625 24 94 C 24 95.109375 24.890625 96 26 96 L 30 96 C 31.109375 96 32 95.109375 32 94 C 32 92.890625 31.109375 92 30 92 Z M 38 92 C 36.890625 92 36 92.890625 36 94 C 36 95.109375 36.890625 96 38 96 L 42 96 C 43.109375 96 44 95.109375 44 94 C 44 92.890625 43.109375 92 42 92 Z M 50 92 C 48.890625 92 48 92.890625 48 94 C 48 95.109375 48.890625 96 50 96 L 54 96 C 55.109375 96 56 95.109375 56 94 C 56 92.890625 55.109375 92 54 92 Z M 62 92 C 60.890625 92 60 92.890625 60 94 C 60 95.109375 60.890625 96 62 96 L 66 96 C 67.109375 96 68 95.109375 68 94 C 68 92.890625 67.109375 92 66 92 Z M 50 100 C 48.890625 100 48 100.890625 48 102 C 48 103.109375 48.890625 104 50 104 L 54 104 C 55.109375 104 56 103.109375 56 102 C 56 100.890625 55.109375 100 54 100 Z M 62 100 C 60.890625 100 60 100.890625 60 102 C 60 103.109375 60.890625 104 62 104 L 66 104 C 67.109375 104 68 103.109375 68 102 C 68 100.890625 67.109375 100 66 100 Z M 28 103.898438 L 40 103.898438 L 40 119.898438 L 28 119.898438 Z M 50 108 C 48.890625 108 48 108.890625 48 110 C 48 111.109375 48.890625 112 50 112 L 54 112 C 55.109375 112 56 111.109375 56 110 C 56 108.890625 55.109375 108 54 108 Z M 62 108 C 60.890625 108 60 108.890625 60 110 C 60 111.109375 60.890625 112 62 112 L 66 112 C 67.109375 112 68 111.109375 68 110 C 68 108.890625 67.109375 108 66 108 Z "/>
</g>
</svg>
