<?xml version="1.0" encoding="UTF-8"?>
<svg xmlns="http://www.w3.org/2000/svg" xmlns:xlink="http://www.w3.org/1999/xlink" width="128pt" height="128pt" viewBox="0 0 128 128" version="1.1">
<g id="surface1">
<path style=" stroke:none;fill-rule:nonzero;fill:#FFFFFF;fill-opacity:1;" d="M 59.125 4 C 56.359375 4 53.96875 5.867188 53.304688 8.546875 L 51.53125 15.578125 C 46.984375 16.75 42.625 18.554688 38.585938 20.960938 L 32.351563 17.21875 C 29.984375 15.804688 26.976563 16.179688 25.023438 18.125 L 18.125 25.023438 C 16.171875 26.96875 15.804688 29.984375 17.21875 32.351563 L 20.945313 38.570313 C 18.554688 42.617188 16.75 46.976563 15.59375 51.539063 L 8.546875 53.304688 C 5.867188 53.96875 4 56.367188 4 59.125 L 4 68.875 C 4 71.640625 5.867188 74.03125 8.546875 74.695313 L 15.578125 76.46875 C 16.75 81.023438 18.554688 85.382813 20.960938 89.414063 L 17.21875 95.648438 C 15.804688 98.015625 16.171875 101.03125 18.125 102.976563 L 25.023438 109.875 C 26.976563 111.828125 29.984375 112.195313 32.351563 110.78125 L 38.578125 107.054688 C 42.625 109.445313 46.984375 111.257813 51.539063 112.40625 L 53.304688 119.460938 C 53.96875 122.132813 56.367188 124 59.125 124 L 68.875 124 C 71.640625 124 74.03125 122.132813 74.695313 119.460938 L 76.46875 112.414063 C 81.015625 111.25 85.375 109.445313 89.414063 107.039063 L 95.648438 110.78125 C 98.015625 112.195313 101.023438 111.820313 102.976563 109.875 L 109.875 102.976563 C 111.828125 101.03125 112.195313 98.015625 110.78125 95.648438 L 107.054688 89.429688 C 109.445313 85.382813 111.25 81.023438 112.40625 76.460938 L 119.460938 74.695313 C 122.132813 74.03125 124 71.632813 124 68.875 L 124 59.125 C 124 56.367188 122.132813 53.96875 119.460938 53.304688 L 112.414063 51.53125 C 111.25 46.976563 109.445313 42.617188 107.039063 38.585938 L 110.78125 32.351563 C 112.195313 29.984375 111.828125 26.96875 109.875 25.023438 L 102.976563 18.125 C 101.023438 16.171875 98.015625 15.804688 95.648438 17.21875 L 89.421875 20.945313 C 85.375 18.554688 81.015625 16.742188 76.460938 15.59375 L 74.695313 8.546875 C 74.023438 5.867188 71.632813 4 68.875 4 Z M 59.125 8 L 68.875 8 C 69.796875 8 70.59375 8.625 70.8125 9.515625 L 72.578125 16.5625 C 72.929688 17.984375 74.039063 19.09375 75.46875 19.453125 C 79.65625 20.53125 83.664063 22.1875 87.382813 24.390625 C 88.65625 25.140625 90.21875 25.148438 91.476563 24.390625 L 97.710938 20.65625 C 98.5 20.179688 99.5 20.304688 100.148438 20.953125 L 107.046875 27.84375 C 107.695313 28.5 107.820313 29.507813 107.34375 30.289063 L 103.609375 36.523438 C 102.859375 37.773438 102.859375 39.34375 103.609375 40.617188 C 105.8125 44.328125 107.46875 48.335938 108.539063 52.523438 C 108.90625 53.953125 110.015625 55.0625 111.4375 55.414063 L 118.484375 57.179688 C 119.375 57.40625 120 58.203125 120 59.125 L 120 68.875 C 120 69.796875 119.375 70.59375 118.484375 70.8125 L 111.429688 72.578125 C 110.015625 72.9375 108.90625 74.046875 108.539063 75.46875 C 107.46875 79.664063 105.804688 83.671875 103.609375 87.382813 C 102.851563 88.65625 102.851563 90.21875 103.609375 91.46875 L 107.34375 97.710938 C 107.820313 98.492188 107.695313 99.5 107.046875 100.148438 L 100.148438 107.046875 C 99.5 107.695313 98.492188 107.820313 97.710938 107.34375 L 91.476563 103.609375 C 90.226563 102.851563 88.65625 102.851563 87.382813 103.609375 C 83.664063 105.8125 79.65625 107.46875 75.476563 108.539063 C 74.046875 108.90625 72.9375 110.015625 72.578125 111.4375 L 70.8125 118.476563 C 70.59375 119.375 69.796875 120 68.875 120 L 59.125 120 C 58.203125 120 57.40625 119.375 57.1875 118.484375 L 55.421875 111.4375 C 55.0625 110.015625 53.953125 108.90625 52.53125 108.539063 C 48.34375 107.46875 44.335938 105.8125 40.617188 103.609375 C 39.976563 103.234375 39.273438 103.046875 38.5625 103.046875 C 37.851563 103.046875 37.148438 103.234375 36.523438 103.609375 L 30.289063 107.34375 C 29.507813 107.820313 28.5 107.695313 27.84375 107.046875 L 20.953125 100.15625 C 20.304688 99.5 20.179688 98.492188 20.648438 97.710938 L 24.382813 91.476563 C 25.140625 90.21875 25.140625 88.65625 24.382813 87.382813 C 22.1875 83.671875 20.523438 79.664063 19.453125 75.476563 C 19.085938 74.046875 17.984375 72.9375 16.5625 72.585938 L 9.515625 70.820313 C 8.625 70.59375 8 69.796875 8 68.875 L 8 59.125 C 8 58.203125 8.625 57.40625 9.515625 57.179688 L 16.570313 55.414063 C 17.984375 55.0625 19.09375 53.953125 19.453125 52.53125 C 20.53125 48.335938 22.195313 44.328125 24.390625 40.617188 C 25.140625 39.34375 25.140625 37.773438 24.390625 36.523438 L 20.65625 30.289063 C 20.179688 29.507813 20.304688 28.5 20.953125 27.84375 L 27.851563 20.953125 C 28.5 20.304688 29.507813 20.179688 30.289063 20.65625 L 36.523438 24.390625 C 37.773438 25.140625 39.34375 25.148438 40.617188 24.390625 C 44.335938 22.1875 48.34375 20.53125 52.523438 19.453125 C 53.953125 19.09375 55.0625 17.984375 55.414063 16.5625 L 57.179688 9.515625 C 57.40625 8.625 58.203125 8 59.125 8 Z M 57.8125 24.585938 C 57.507813 24.570313 57.203125 24.59375 56.898438 24.648438 C 37.835938 28.0625 24 44.617188 24 64 C 24 68.695313 24.820313 73.3125 26.445313 77.726563 C 26.875 78.898438 27.796875 79.789063 28.96875 80.1875 C 29.382813 80.320313 29.804688 80.382813 30.226563 80.382813 C 30.992188 80.382813 31.75 80.164063 32.40625 79.734375 L 52.265625 66.757813 L 52.109375 65.515625 C 52.046875 65.015625 52 64.515625 52 64 C 52 59.601563 54.40625 55.5625 58.289063 53.453125 C 59.554688 52.765625 60.367188 51.523438 60.4375 50.132813 L 61.625 28.8125 C 61.695313 27.585938 61.203125 26.414063 60.28125 25.59375 C 59.585938 24.984375 58.71875 24.625 57.8125 24.585938 Z M 70.1875 24.59375 C 69.28125 24.632813 68.414063 24.976563 67.71875 25.59375 C 66.796875 26.40625 66.304688 27.578125 66.375 28.8125 L 67.5625 50.132813 C 67.632813 51.523438 68.4375 52.757813 69.710938 53.453125 C 73.585938 55.5625 76 59.601563 76 64 C 76 64.335938 75.976563 64.664063 75.945313 64.992188 L 75.851563 66.179688 L 95.789063 79.21875 C 96.453125 79.648438 97.210938 79.875 97.96875 79.875 C 98.40625 79.875 98.84375 79.796875 99.273438 79.65625 C 100.453125 79.25 101.367188 78.34375 101.78125 77.15625 C 103.25 72.929688 104 68.507813 104 64 C 104 44.617188 90.164063 28.0625 71.101563 24.648438 C 70.796875 24.59375 70.492188 24.578125 70.1875 24.59375 Z M 70.398438 28.585938 C 87.546875 31.664063 100 46.554688 100 64 C 100 68.054688 99.328125 72.039063 97.984375 75.867188 L 80 64.109375 L 80 64 C 80 58.132813 76.789063 52.742188 71.554688 49.875 Z M 57.625 28.59375 L 56.375 49.9375 C 51.210938 52.742188 48 58.132813 48 64 C 48 64.25 48.007813 64.5 48.023438 64.75 L 30.195313 76.351563 C 28.742188 72.375 28 68.21875 28 64 C 28 46.554688 40.445313 31.664063 57.625 28.59375 Z M 76.875 34.867188 C 76.09375 34.835938 75.335938 35.257813 74.976563 36.007813 C 74.507813 37.007813 74.9375 38.203125 75.9375 38.671875 C 77.4375 39.382813 78.875 40.21875 80.21875 41.179688 C 80.578125 41.429688 80.984375 41.554688 81.382813 41.554688 C 82.007813 41.554688 82.625 41.257813 83.015625 40.710938 C 83.65625 39.8125 83.445313 38.5625 82.539063 37.921875 C 81 36.828125 79.351563 35.859375 77.648438 35.054688 C 77.398438 34.929688 77.132813 34.875 76.875 34.867188 Z M 88.429688 44.179688 C 87.921875 44.101563 87.382813 44.226563 86.9375 44.554688 C 86.046875 45.210938 85.867188 46.46875 86.523438 47.351563 C 88.953125 50.632813 90.601563 54.335938 91.429688 58.367188 C 91.554688 58.984375 91.664063 59.601563 91.75 60.21875 C 91.882813 61.226563 92.742188 61.945313 93.71875 61.945313 C 93.8125 61.945313 93.90625 61.945313 94 61.9375 C 95.09375 61.78125 95.859375 60.773438 95.710938 59.679688 C 95.609375 58.976563 95.492188 58.265625 95.34375 57.5625 C 94.398438 52.953125 92.507813 48.71875 89.734375 44.96875 C 89.40625 44.523438 88.929688 44.257813 88.429688 44.179688 Z M 64 60 C 61.789063 60 60 61.789063 60 64 C 60 66.210938 61.789063 68 64 68 C 66.210938 68 68 66.210938 68 64 C 68 61.789063 66.210938 60 64 60 Z M 72.523438 73.390625 C 71.828125 73.4375 71.132813 73.664063 70.507813 74.070313 C 66.742188 76.523438 61.679688 76.601563 57.820313 74.28125 C 56.59375 73.53125 55.117188 73.460938 53.882813 74.085938 L 34.8125 83.726563 C 33.71875 84.28125 32.945313 85.296875 32.703125 86.5 C 32.460938 87.726563 32.78125 88.96875 33.59375 89.929688 C 41.21875 98.875 52.304688 104 64 104 C 75.898438 104 87.101563 98.726563 94.742188 89.539063 C 95.53125 88.578125 95.84375 87.335938 95.59375 86.125 C 95.34375 84.929688 94.578125 83.929688 93.484375 83.375 L 74.554688 73.804688 C 73.914063 73.484375 73.21875 73.34375 72.523438 73.390625 Z M 72.78125 77.382813 L 91.65625 86.976563 C 84.789063 95.257813 74.703125 100 64 100 C 53.476563 100 43.5 95.382813 36.625 87.296875 L 55.757813 77.695313 C 60.90625 80.804688 67.570313 80.726563 72.78125 77.382813 Z M 76.914063 84.023438 C 76.65625 84.070313 76.414063 84.164063 76.179688 84.320313 C 75.257813 84.9375 75.007813 86.179688 75.625 87.09375 L 77.835938 90.429688 C 78.21875 91.007813 78.851563 91.3125 79.5 91.3125 C 79.882813 91.3125 80.265625 91.210938 80.601563 90.984375 C 81.523438 90.367188 81.773438 89.132813 81.164063 88.210938 L 78.945313 84.875 C 78.492188 84.1875 77.679688 83.875 76.914063 84.023438 Z M 51.46875 84.289063 C 50.703125 84.164063 49.898438 84.492188 49.453125 85.195313 L 47.3125 88.570313 C 46.71875 89.507813 47 90.742188 47.929688 91.335938 C 48.265625 91.546875 48.632813 91.648438 49 91.648438 C 49.664063 91.648438 50.3125 91.320313 50.6875 90.71875 L 52.835938 87.335938 C 53.429688 86.40625 53.148438 85.164063 52.21875 84.570313 C 51.984375 84.429688 51.726563 84.335938 51.46875 84.289063 Z M 69.226563 87.546875 C 68.96875 87.492188 68.703125 87.492188 68.429688 87.554688 C 67.351563 87.773438 66.648438 88.835938 66.875 89.914063 L 67.679688 93.835938 C 67.867188 94.78125 68.703125 95.429688 69.632813 95.429688 C 69.765625 95.429688 69.90625 95.414063 70.039063 95.382813 C 71.117188 95.164063 71.820313 94.109375 71.59375 93.03125 L 70.789063 89.109375 C 70.625 88.296875 69.992188 87.703125 69.226563 87.546875 Z M 60.03125 87.632813 C 58.953125 87.429688 57.90625 88.15625 57.703125 89.242188 L 56.976563 93.179688 C 56.78125 94.265625 57.5 95.304688 58.59375 95.507813 C 58.710938 95.53125 58.828125 95.539063 58.945313 95.539063 C 59.898438 95.539063 60.734375 94.867188 60.914063 93.90625 L 61.632813 89.96875 C 61.835938 88.875 61.117188 87.835938 60.03125 87.632813 Z "/>
</g>
</svg>
