<?xml version="1.0" encoding="UTF-8"?>
<svg xmlns="http://www.w3.org/2000/svg" xmlns:xlink="http://www.w3.org/1999/xlink" width="128pt" height="128pt" viewBox="0 0 128 128" version="1.1">
<g id="surface1">
<path style=" stroke:none;fill-rule:nonzero;fill:#FFFFFF;fill-opacity:1;" d="M 52 4 C 47.59375 4 41.296875 5.375 37.382813 8.015625 C 29.9375 8.28125 24.835938 13.515625 24.007813 21.804688 C 23.492188 26.921875 23.960938 30.585938 24.273438 33.007813 C 24.382813 33.851563 24.5 34.804688 24.460938 35.085938 C 24.398438 35.453125 24.335938 35.828125 24.28125 36.210938 C 23.953125 36.226563 23.664063 36.273438 23.40625 36.34375 C 21.609375 36.828125 20.34375 38.429688 19.84375 40.867188 C 19.445313 42.820313 19.570313 45.195313 20.203125 47.554688 C 21.273438 51.546875 23.515625 54.546875 25.96875 55.46875 C 27.234375 59.34375 29.09375 63.195313 31.40625 66.664063 L 12.96875 77.34375 C 4.96875 81.96875 0 90.59375 0 99.835938 L 0 114 C 0 117.304688 2.695313 120 6 120 L 98 120 C 101.304688 120 104 117.304688 104 114 L 104 108 L 118 108 C 121.304688 108 124 105.304688 124 102 L 124 94.875 C 124 87.382813 120.242188 80.484375 113.953125 76.40625 L 93.742188 63.335938 C 96.007813 60.421875 97.914063 56.9375 99.15625 53.21875 C 101.0625 52.390625 102.726563 50.117188 103.539063 47.054688 C 104.03125 45.21875 104.132813 43.367188 103.8125 41.835938 C 103.414063 39.851563 102.304688 38.476563 100.789063 38.070313 C 100.6875 38.039063 100.578125 38.015625 100.460938 38 C 100.257813 36.6875 99.914063 35.398438 99.367188 33.835938 C 99.726563 33.921875 100.109375 34.046875 100.445313 34.1875 C 101.140625 34.476563 101.929688 34.351563 102.5 33.875 C 103.070313 33.398438 103.328125 32.640625 103.171875 31.914063 C 100.710938 20.65625 92.359375 13.9375 80.828125 13.9375 L 79.34375 13.9375 C 78.609375 13.9375 77.796875 13.992188 76.960938 14.09375 C 71.632813 7.625 63.679688 4 54 4 Z M 52 8 L 54 8 C 66.140625 8 74.90625 14.203125 78.5 25.164063 C 77.125 25.007813 75.695313 25.171875 74.710938 26.125 C 73.945313 26.851563 73.226563 28.25 74.132813 30.71875 C 75.367188 34.070313 75.8125 36.054688 75.9375 38.867188 C 75.976563 39.585938 76.390625 40.226563 77.023438 40.554688 C 77.664063 40.875 78.429688 40.835938 79.03125 40.445313 C 79.351563 40.242188 79.523438 40.210938 79.5625 40.210938 C 79.648438 40.25 80.023438 40.59375 80.242188 41.664063 C 80.515625 43.007813 80.398438 44.773438 79.9375 46.515625 C 78.945313 50.203125 77.0625 51.757813 76.46875 51.757813 C 75.585938 51.757813 74.804688 52.34375 74.554688 53.1875 C 71.179688 64.53125 62.351563 76 52 76 C 41.648438 76 32.820313 64.523438 29.453125 53.1875 C 29.195313 52.34375 28.421875 51.757813 27.53125 51.757813 C 26.945313 51.757813 25.054688 50.203125 24.070313 46.515625 C 23.601563 44.773438 23.492188 43.007813 23.765625 41.664063 C 23.992188 40.546875 24.382813 40.21875 24.429688 40.210938 C 24.4375 40.210938 24.609375 40.210938 24.976563 40.445313 C 25.570313 40.835938 26.335938 40.875 26.976563 40.554688 C 27.609375 40.226563 28.03125 39.585938 28.0625 38.867188 C 28.109375 37.820313 28.226563 36.78125 28.40625 35.78125 C 28.554688 34.921875 28.429688 33.960938 28.242188 32.5 C 27.953125 30.257813 27.523438 26.867188 27.992188 22.203125 C 28.632813 15.820313 32.375 12 38.039063 12 C 38.46875 12 38.890625 11.859375 39.242188 11.601563 C 41.976563 9.546875 47.460938 8 52 8 Z M 79.625 17.9375 L 80.828125 17.9375 C 89.375 17.9375 95.625 22.171875 98.375 29.6875 C 97.476563 29.703125 96.59375 29.929688 95.921875 30.570313 C 95.242188 31.21875 94.59375 32.4375 95.367188 34.539063 C 96.265625 36.992188 96.585938 38.429688 96.6875 40.46875 C 96.71875 41.1875 97.132813 41.828125 97.773438 42.15625 C 98.390625 42.46875 99.132813 42.445313 99.726563 42.070313 C 99.976563 42.640625 100.195313 44.070313 99.679688 46.023438 C 99.0625 48.3125 97.90625 49.460938 97.585938 49.554688 C 96.703125 49.554688 95.921875 50.132813 95.664063 50.976563 C 93.804688 57.234375 89.921875 62.867188 85.53125 65.664063 C 84.601563 66.257813 84.328125 67.492188 84.929688 68.429688 C 85.304688 69.023438 85.953125 69.351563 86.617188 69.351563 C 86.984375 69.351563 87.351563 69.25 87.6875 69.03125 C 88.867188 68.28125 90.007813 67.359375 91.09375 66.304688 C 91.179688 66.382813 91.234375 66.476563 91.335938 66.53125 L 111.78125 79.765625 C 116.929688 83.101563 120 88.75 120 94.875 L 120 102 C 120 103.101563 119.101563 104 118 104 L 104 104 L 104 100 C 105.109375 100 106 99.101563 106 98 L 106 94 C 106 92.898438 105.109375 92 104 92 C 103.578125 92 103.210938 92.164063 102.882813 92.382813 C 101.007813 86.132813 96.8125 80.6875 91.03125 77.335938 L 72.59375 66.65625 C 74.90625 63.195313 76.757813 59.34375 78.03125 55.46875 C 80.476563 54.546875 82.726563 51.546875 83.789063 47.554688 C 84.421875 45.195313 84.554688 42.820313 84.15625 40.867188 C 83.65625 38.429688 82.390625 36.828125 80.59375 36.34375 C 80.34375 36.28125 80.046875 36.226563 79.71875 36.210938 C 79.4375 34.070313 78.898438 32.070313 77.882813 29.335938 C 77.859375 29.257813 77.835938 29.1875 77.8125 29.125 C 78.515625 29.179688 79.648438 29.46875 80.570313 29.84375 C 81.265625 30.132813 82.054688 30.015625 82.625 29.53125 C 83.1875 29.054688 83.453125 28.296875 83.289063 27.570313 C 82.507813 23.992188 81.265625 20.773438 79.625 17.9375 Z M 40.34375 20.25 C 39.164063 20.359375 38.054688 20.984375 37.367188 22.03125 L 34.15625 26.898438 C 33.546875 27.820313 33.804688 29.0625 34.726563 29.671875 C 35.0625 29.898438 35.445313 30 35.820313 30 C 36.476563 30 37.109375 29.6875 37.5 29.101563 L 40.710938 24.234375 L 43.835938 25.757813 C 49.53125 28.53125 55.882813 30 62.21875 30 L 67.335938 30 C 68.445313 30 69.335938 29.101563 69.335938 28 C 69.335938 26.898438 68.445313 26 67.335938 26 L 62.21875 26 C 56.492188 26 50.734375 24.671875 45.585938 22.15625 L 42.460938 20.632813 C 41.78125 20.304688 41.046875 20.1875 40.34375 20.25 Z M 33.8125 69.882813 C 38.679688 75.820313 45.007813 80 52 80 C 58.992188 80 65.3125 75.820313 70.179688 69.890625 L 89.023438 80.796875 C 95.796875 84.71875 100 92.015625 100 99.84375 L 100 114 C 100 115.101563 99.101563 116 98 116 L 6 116 C 4.898438 116 4 115.101563 4 114 L 4 99.835938 C 4 92.015625 8.210938 84.71875 14.976563 80.796875 Z M 36.125 80 C 35.351563 79.953125 34.585938 80.367188 34.210938 81.101563 C 33.71875 82.09375 34.117188 83.296875 35.101563 83.789063 L 51.101563 91.789063 C 51.390625 91.929688 51.695313 92 52 92 C 52.304688 92 52.617188 91.929688 52.898438 91.789063 L 68.898438 83.789063 C 69.882813 83.296875 70.28125 82.09375 69.789063 81.101563 C 69.296875 80.117188 68.09375 79.71875 67.101563 80.210938 L 52 87.765625 L 36.898438 80.210938 C 36.648438 80.085938 36.390625 80.023438 36.125 80 Z M 114 92 C 112.890625 92 112 92.898438 112 94 L 112 98 C 112 99.101563 112.890625 100 114 100 C 115.109375 100 116 99.101563 116 98 L 116 94 C 116 92.898438 115.109375 92 114 92 Z M 12 104 C 10.890625 104 10 104.898438 10 106 L 10 110 C 10 111.101563 10.890625 112 12 112 C 13.109375 112 14 111.101563 14 110 L 14 106 C 14 104.898438 13.109375 104 12 104 Z M 22 104 C 20.890625 104 20 104.898438 20 106 L 20 110 C 20 111.101563 20.890625 112 22 112 C 23.109375 112 24 111.101563 24 110 L 24 106 C 24 104.898438 23.109375 104 22 104 Z M 32 104 C 30.890625 104 30 104.898438 30 106 L 30 110 C 30 111.101563 30.890625 112 32 112 C 33.109375 112 34 111.101563 34 110 L 34 106 C 34 104.898438 33.109375 104 32 104 Z M 42 104 C 40.890625 104 40 104.898438 40 106 L 40 110 C 40 111.101563 40.890625 112 42 112 C 43.109375 112 44 111.101563 44 110 L 44 106 C 44 104.898438 43.109375 104 42 104 Z M 52 104 C 50.890625 104 50 104.898438 50 106 L 50 110 C 50 111.101563 50.890625 112 52 112 C 53.109375 112 54 111.101563 54 110 L 54 106 C 54 104.898438 53.109375 104 52 104 Z M 62 104 C 60.890625 104 60 104.898438 60 106 L 60 110 C 60 111.101563 60.890625 112 62 112 C 63.109375 112 64 111.101563 64 110 L 64 106 C 64 104.898438 63.109375 104 62 104 Z M 72 104 C 70.890625 104 70 104.898438 70 106 L 70 110 C 70 111.101563 70.890625 112 72 112 C 73.109375 112 74 111.101563 74 110 L 74 106 C 74 104.898438 73.109375 104 72 104 Z M 82 104 C 80.890625 104 80 104.898438 80 106 L 80 110 C 80 111.101563 80.890625 112 82 112 C 83.109375 112 84 111.101563 84 110 L 84 106 C 84 104.898438 83.109375 104 82 104 Z M 92 104 C 90.890625 104 90 104.898438 90 106 L 90 110 C 90 111.101563 90.890625 112 92 112 C 93.109375 112 94 111.101563 94 110 L 94 106 C 94 104.898438 93.109375 104 92 104 Z "/>
</g>
</svg>
