<?xml version="1.0" encoding="UTF-8"?>
<svg xmlns="http://www.w3.org/2000/svg" xmlns:xlink="http://www.w3.org/1999/xlink" width="128pt" height="128pt" viewBox="0 0 128 128" version="1.1">
<g id="surface1">
<path style=" stroke:none;fill-rule:nonzero;fill:#FFFFFF;fill-opacity:1;" d="M 88 12 C 84.796875 12 81.78125 13.25 79.515625 15.515625 C 77.25 17.78125 76 20.796875 76 24 C 76 27.203125 77.25 30.21875 79.515625 32.484375 C 81.78125 34.75 84.796875 36 88 36 C 91.203125 36 94.21875 34.75 96.484375 32.484375 C 98.75 30.21875 100 27.203125 100 24 C 100 20.796875 98.75 17.78125 96.484375 15.515625 C 94.21875 13.25 91.203125 12 88 12 Z M 88 16 C 90.132813 16 92.140625 16.835938 93.65625 18.34375 C 95.171875 19.859375 96 21.867188 96 24 C 96 26.132813 95.171875 28.140625 93.65625 29.65625 C 90.632813 32.679688 85.367188 32.679688 82.34375 29.65625 C 80.828125 28.140625 80 26.132813 80 24 C 80 21.867188 80.828125 19.859375 82.34375 18.34375 C 83.859375 16.835938 85.867188 16 88 16 Z M 67.929688 30.054688 C 63.492188 30.054688 59.320313 31.789063 56.1875 34.929688 L 45.085938 46.023438 C 38.382813 52.71875 38.242188 63.351563 44.71875 70.195313 L 56.851563 83.523438 C 57.367188 84.085938 57.515625 84.875 57.242188 85.59375 L 50.625 102.789063 C 49.828125 104.875 50.101563 107.21875 51.367188 109.0625 C 52.632813 110.898438 54.71875 112 56.953125 112 C 59.570313 112 61.984375 110.46875 63.09375 108.09375 L 73.257813 86.359375 C 74.5625 83.570313 74.523438 80.390625 73.140625 77.632813 L 65.125 61.671875 C 64.695313 60.898438 64.835938 59.921875 65.460938 59.304688 L 72.023438 52.796875 L 74.234375 54.9375 C 78.21875 59.226563 81.6875 60.054688 86 60 L 97.476563 60 C 101.078125 60 104 57.078125 104 53.476563 C 104 50.507813 101.78125 47.953125 98.78125 47.53125 L 87.664063 46.25 C 87.078125 46.164063 86.554688 45.828125 86.242188 45.320313 L 81.71875 38.070313 C 78.625 33.125 73.34375 30.054688 67.9375 30.054688 Z M 67.9375 34.054688 C 71.976563 34.054688 75.960938 36.40625 78.320313 40.195313 L 82.851563 47.445313 C 83.796875 48.953125 85.34375 49.960938 87.15625 50.21875 L 98.28125 51.5 C 99.257813 51.632813 100 52.492188 100 53.476563 C 100 54.867188 98.867188 56 97.476563 56 L 85.96875 56 C 82.515625 56.046875 80.1875 55.46875 77.09375 52.132813 L 73.390625 48.5625 L 69.414063 44.585938 C 68.632813 43.804688 67.367188 43.804688 66.585938 44.585938 C 65.804688 45.367188 65.804688 46.632813 66.585938 47.414063 L 69.164063 49.992188 L 62.640625 56.46875 C 60.765625 58.335938 60.351563 61.265625 61.59375 63.53125 L 69.570313 79.429688 C 70.398438 81.078125 70.421875 82.992188 69.640625 84.664063 L 59.476563 106.398438 C 59.023438 107.367188 58.03125 108 56.960938 108 C 56.023438 108 55.195313 107.5625 54.664063 106.789063 C 54.140625 106.023438 54.03125 105.09375 54.367188 104.21875 L 60.976563 87.023438 C 61.796875 84.890625 61.351563 82.515625 59.8125 80.828125 L 47.65625 67.476563 C 42.648438 62.1875 42.757813 54 47.90625 48.851563 L 59.007813 37.75 C 61.390625 35.375 64.5625 34.054688 67.9375 34.054688 Z M 2 50 C 0.890625 50 0 50.898438 0 52 L 0 56 C 0 57.101563 0.890625 58 2 58 C 3.109375 58 4 57.101563 4 56 L 4 52 C 4 50.898438 3.109375 50 2 50 Z M 12 50 C 10.890625 50 10 50.898438 10 52 L 10 56 C 10 57.101563 10.890625 58 12 58 C 13.109375 58 14 57.101563 14 56 L 14 52 C 14 50.898438 13.109375 50 12 50 Z M 22 50 C 20.890625 50 20 50.898438 20 52 L 20 56 C 20 57.101563 20.890625 58 22 58 C 23.109375 58 24 57.101563 24 56 L 24 52 C 24 50.898438 23.109375 50 22 50 Z M 32 50 C 30.890625 50 30 50.898438 30 52 L 30 56 C 30 57.101563 30.890625 58 32 58 C 33.109375 58 34 57.101563 34 56 L 34 52 C 34 50.898438 33.109375 50 32 50 Z M 112 50 C 110.890625 50 110 50.898438 110 52 L 110 56 C 110 57.101563 110.890625 58 112 58 C 113.109375 58 114 57.101563 114 56 L 114 52 C 114 50.898438 113.109375 50 112 50 Z M 122 50 C 120.890625 50 120 50.898438 120 52 L 120 56 C 120 57.101563 120.890625 58 122 58 C 123.109375 58 124 57.101563 124 56 L 124 52 C 124 50.898438 123.109375 50 122 50 Z M 24 68 C 10.765625 68 0 78.765625 0 92 C 0 105.234375 10.765625 116 24 116 C 37.234375 116 48 105.234375 48 92 C 48 78.765625 37.234375 68 24 68 Z M 100 68 C 86.765625 68 76 78.765625 76 92 C 76 105.234375 86.765625 116 100 116 C 113.234375 116 124 105.234375 124 92 C 124 78.765625 113.234375 68 100 68 Z M 24 72 C 35.03125 72 44 80.96875 44 92 C 44 103.03125 35.03125 112 24 112 C 12.96875 112 4 103.03125 4 92 C 4 80.96875 12.96875 72 24 72 Z M 100 72 C 111.03125 72 120 80.96875 120 92 C 120 103.03125 111.03125 112 100 112 C 88.96875 112 80 103.03125 80 92 C 80 80.96875 88.96875 72 100 72 Z M 24 88 C 21.789063 88 20 89.789063 20 92 C 20 94.210938 21.789063 96 24 96 C 26.210938 96 28 94.210938 28 92 C 28 89.789063 26.210938 88 24 88 Z M 100 88 C 97.789063 88 96 89.789063 96 92 C 96 94.210938 97.789063 96 100 96 C 102.210938 96 104 94.210938 104 92 C 104 89.789063 102.210938 88 100 88 Z "/>
</g>
</svg>
