<?xml version="1.0" encoding="UTF-8"?>
<svg xmlns="http://www.w3.org/2000/svg" xmlns:xlink="http://www.w3.org/1999/xlink" width="128pt" height="128pt" viewBox="0 0 128 128" version="1.1">
<g id="surface1">
<path style=" stroke:none;fill-rule:nonzero;fill:#FFFFFF;fill-opacity:1;" d="M 86 7.992188 C 79.382813 7.992188 74 13.375 74 19.992188 C 74 26.609375 79.382813 31.992188 86 31.992188 C 92.617188 31.992188 98 26.609375 98 19.992188 C 98 13.375 92.617188 7.992188 86 7.992188 Z M 86 11.992188 C 90.414063 11.992188 94 15.578125 94 19.992188 C 94 24.40625 90.414063 27.992188 86 27.992188 C 81.585938 27.992188 78 24.40625 78 19.992188 C 78 15.578125 81.585938 11.992188 86 11.992188 Z M 78.679688 32 C 73.835938 32 69.296875 34.359375 66.5625 38.34375 L 49.15625 63.421875 C 47.601563 65.664063 47.601563 68.5625 49.078125 70.757813 L 37.5625 84.5625 L 29.960938 78.304688 C 27.859375 76.578125 25.21875 75.804688 22.523438 76.101563 C 19.835938 76.382813 17.421875 77.71875 15.765625 79.84375 L 4 94.757813 C 2.71875 96.398438 2 98.460938 2 100.5625 C 2 103.335938 3.242188 105.960938 5.375 107.757813 L 10.375 111.921875 C 10.140625 112.5625 10 113.28125 10 114 C 10 117.320313 12.703125 120 16 120 C 19.296875 120 22 117.320313 22 114 C 22 112.9375 21.71875 111.921875 21.21875 111.039063 L 39.375 88.625 C 39.382813 88.617188 39.382813 88.609375 39.382813 88.609375 L 42.132813 85.3125 C 42.0625 85.523438 42 85.75 42 85.992188 L 42 89.992188 C 42 91.09375 42.890625 91.992188 44 91.992188 C 45.109375 91.992188 46 91.09375 46 89.992188 L 46 85.992188 C 46 84.890625 45.109375 83.992188 44 83.992188 C 43.609375 83.992188 43.265625 84.132813 42.960938 84.320313 L 52.21875 73.242188 C 53.015625 73.554688 53.882813 73.703125 54.757813 73.65625 C 56.679688 73.578125 58.476563 72.664063 59.65625 71.140625 L 70 57.820313 L 70 73.65625 L 65.960938 85.804688 C 65.859375 84.789063 65.039063 83.992188 64 83.992188 C 62.890625 83.992188 62 84.890625 62 85.992188 L 62 89.992188 C 62 90.851563 62.546875 91.570313 63.304688 91.851563 C 63 92.289063 62.679688 92.710938 62.320313 93.101563 L 50.304688 106.179688 C 47.21875 109.335938 47.257813 114.484375 50.375 117.601563 C 53.398438 120.625 58.28125 120.796875 61.539063 117.976563 L 74.742188 105.84375 C 76.679688 104.078125 78.179688 101.960938 79.21875 99.539063 L 82.304688 92.304688 L 100.398438 116.9375 C 101.875 118.921875 104.179688 120 106.523438 120 C 107.921875 120 109.320313 119.617188 110.5625 118.84375 C 113.976563 116.679688 115.117188 112.242188 113.179688 108.71875 L 104.046875 91.984375 C 105.125 91.960938 106 91.078125 106 89.992188 L 106 85.992188 C 106 84.890625 105.109375 83.992188 104 83.992188 C 102.890625 83.992188 102 84.890625 102 85.992188 L 102 88.226563 L 94.421875 74.34375 C 94.140625 73.796875 94 73.195313 94 72.578125 L 94 61.757813 L 96.257813 63.28125 C 96.484375 63.421875 96.703125 63.539063 96.9375 63.65625 L 104.820313 67.601563 C 106.476563 68.421875 108.335938 68.539063 110.078125 67.9375 C 111.820313 67.320313 113.203125 66.0625 113.960938 64.375 C 115.4375 61.140625 114.140625 57.304688 111.023438 55.625 L 103.125 51.398438 C 101.921875 50.757813 100.882813 49.898438 100.023438 48.84375 L 93.5625 40.757813 C 93.4375 40.625 93.320313 40.5 93.179688 40.375 C 90.9375 34.859375 84.65625 32 78.679688 32 Z M 78.679688 36 C 82.960938 36 89.5 38.179688 90 44 L 90 72.578125 C 90 73.820313 90.296875 75.0625 90.875 76.21875 L 109.679688 110.640625 C 110.601563 112.320313 110.0625 114.421875 108.4375 115.4375 C 106.84375 116.460938 104.71875 116.0625 103.625 114.5625 L 86.992188 91.929688 C 86.953125 91.859375 86.945313 91.773438 86.898438 91.710938 L 79.101563 80.84375 L 76.351563 76.914063 C 74.992188 74.867188 74 68.460938 74 65.148438 L 74 52 C 74 51.140625 73.460938 50.382813 72.640625 50.101563 C 71.84375 49.820313 70.945313 50.078125 70.421875 50.757813 L 56.5 68.679688 C 56.203125 69.0625 55.796875 69.34375 55.359375 69.5 C 55.117188 69.601563 54.859375 69.640625 54.601563 69.65625 C 53.859375 69.679688 53.140625 69.382813 52.640625 68.820313 C 52.242188 68.382813 52.023438 67.84375 52 67.28125 C 51.960938 66.742188 52.101563 66.179688 52.4375 65.695313 L 69.84375 40.625 C 71.84375 37.71875 75.15625 36 78.679688 36 Z M 94 47.695313 L 96.898438 51.34375 C 98.101563 52.820313 99.539063 54.039063 101.21875 54.9375 L 109.125 59.15625 C 110.398438 59.84375 110.921875 61.398438 110.320313 62.71875 C 110.023438 63.398438 109.460938 63.921875 108.742188 64.15625 C 108.039063 64.398438 107.28125 64.359375 106.625 64.023438 L 98.71875 60.078125 C 98.640625 60.054688 98.578125 60 98.5 59.960938 L 94 56.921875 Z M 72.625 78.429688 C 72.773438 78.671875 72.890625 78.929688 73.046875 79.171875 L 79.617188 88.398438 L 75.539063 97.976563 C 74.742188 99.859375 73.5625 101.5 72.039063 102.875 L 58.875 115 C 57.242188 116.421875 54.742188 116.320313 53.21875 114.78125 C 51.617188 113.179688 51.601563 110.5625 53.195313 108.921875 L 65.28125 95.804688 C 66.921875 93.960938 68.164063 91.84375 68.9375 89.476563 Z M 24.085938 80.054688 C 24.460938 80.085938 24.828125 80.15625 25.1875 80.25 L 10.296875 98.070313 C 9.59375 98.921875 9.703125 100.179688 10.546875 100.890625 C 10.929688 101.203125 11.382813 101.351563 11.835938 101.351563 C 12.40625 101.351563 12.976563 101.109375 13.375 100.632813 L 28.625 82.382813 L 35.023438 87.640625 L 18.179688 108.4375 C 17.5 108.140625 16.757813 108 16 108 C 14.898438 108 13.84375 108.296875 12.9375 108.84375 L 7.9375 104.679688 C 6.703125 103.65625 6 102.15625 6 100.5625 C 6 99.359375 6.398438 98.179688 7.140625 97.242188 L 18.898438 82.320313 C 19.898438 81.039063 21.34375 80.242188 22.960938 80.0625 C 23.335938 80.023438 23.710938 80.023438 24.085938 80.054688 Z M 54 83.992188 C 52.890625 83.992188 52 84.890625 52 85.992188 L 52 89.992188 C 52 91.09375 52.890625 91.992188 54 91.992188 C 55.109375 91.992188 56 91.09375 56 89.992188 L 56 85.992188 C 56 84.890625 55.109375 83.992188 54 83.992188 Z M 114 83.992188 C 112.890625 83.992188 112 84.890625 112 85.992188 L 112 89.992188 C 112 91.09375 112.890625 91.992188 114 91.992188 C 115.109375 91.992188 116 91.09375 116 89.992188 L 116 85.992188 C 116 84.890625 115.109375 83.992188 114 83.992188 Z M 124 83.992188 C 122.890625 83.992188 122 84.890625 122 85.992188 L 122 89.992188 C 122 91.09375 122.890625 91.992188 124 91.992188 C 125.109375 91.992188 126 91.09375 126 89.992188 L 126 85.992188 C 126 84.890625 125.109375 83.992188 124 83.992188 Z M 16 112 C 17.101563 112 18 112.898438 18 114 C 18 115.101563 17.101563 116 16 116 C 15.578125 116 15.195313 115.882813 14.875 115.65625 C 14.78125 115.578125 14.65625 115.5 14.5625 115.398438 C 14.21875 115.039063 14 114.539063 14 114 C 14 112.898438 14.898438 112 16 112 Z "/>
</g>
</svg>
