<?xml version="1.0" encoding="UTF-8"?>
<svg xmlns="http://www.w3.org/2000/svg" xmlns:xlink="http://www.w3.org/1999/xlink" width="128pt" height="128pt" viewBox="0 0 128 128" version="1.1">
<g id="surface1">
<path style=" stroke:none;fill-rule:nonzero;fill:#FFFFFF;fill-opacity:1;" d="M 29.90625 4 C 29.578125 4.015625 29.242188 4.117188 28.945313 4.296875 C 28.359375 4.664063 28 5.304688 28 6 L 28 70 L 10 70 C 6.695313 70 4 72.695313 4 76 C 4 78.601563 5.679688 80.804688 8 81.632813 L 8 118 L 2 118 C 0.890625 118 0 118.890625 0 120 C 0 121.109375 0.890625 122 2 122 L 126 122 C 127.109375 122 128 121.109375 128 120 C 128 118.890625 127.109375 118 126 118 L 120 118 L 120 53.632813 C 122.320313 52.804688 124 50.601563 124 48 C 124 44.695313 121.304688 42 118 42 L 92 42 L 92 36 C 92 35.242188 91.570313 34.554688 90.898438 34.210938 L 30.898438 4.210938 C 30.585938 4.054688 30.242188 3.984375 29.90625 4 Z M 32 9.234375 L 88 37.234375 L 88 118 L 76 118 L 76 104.625 C 80.71875 102.375 84 97.570313 84 92 C 84 84.28125 77.71875 78 70 78 C 62.28125 78 56 84.28125 56 92 C 56 97.570313 59.28125 102.375 64 104.625 L 64 118 L 52 118 L 52 81.632813 C 54.320313 80.804688 56 78.601563 56 76 C 56 72.695313 53.304688 70 50 70 L 32 70 Z M 42 30 C 40.890625 30 40 30.890625 40 32 C 40 33.109375 40.890625 34 42 34 L 46 34 C 47.109375 34 48 33.109375 48 32 C 48 30.890625 47.109375 30 46 30 Z M 42 40 C 40.890625 40 40 40.890625 40 42 C 40 43.109375 40.890625 44 42 44 L 46 44 C 47.109375 44 48 43.109375 48 42 C 48 40.890625 47.109375 40 46 40 Z M 58 40 C 56.890625 40 56 40.890625 56 42 C 56 43.109375 56.890625 44 58 44 L 62 44 C 63.109375 44 64 43.109375 64 42 C 64 40.890625 63.109375 40 62 40 Z M 92 46 L 118 46 C 119.101563 46 120 46.898438 120 48 C 120 49.101563 119.101563 50 118 50 L 92 50 Z M 42 50 C 40.890625 50 40 50.890625 40 52 C 40 53.109375 40.890625 54 42 54 L 46 54 C 47.109375 54 48 53.109375 48 52 C 48 50.890625 47.109375 50 46 50 Z M 58 50 C 56.890625 50 56 50.890625 56 52 C 56 53.109375 56.890625 54 58 54 L 62 54 C 63.109375 54 64 53.109375 64 52 C 64 50.890625 63.109375 50 62 50 Z M 74 50 C 72.890625 50 72 50.890625 72 52 C 72 53.109375 72.890625 54 74 54 L 78 54 C 79.109375 54 80 53.109375 80 52 C 80 50.890625 79.109375 50 78 50 Z M 92 54 L 116 54 L 116 100 L 92 100 Z M 42 60 C 40.890625 60 40 60.890625 40 62 C 40 63.109375 40.890625 64 42 64 L 46 64 C 47.109375 64 48 63.109375 48 62 C 48 60.890625 47.109375 60 46 60 Z M 58 60 C 56.890625 60 56 60.890625 56 62 C 56 63.109375 56.890625 64 58 64 L 62 64 C 63.109375 64 64 63.109375 64 62 C 64 60.890625 63.109375 60 62 60 Z M 74 60 C 72.890625 60 72 60.890625 72 62 C 72 63.109375 72.890625 64 74 64 L 78 64 C 79.109375 64 80 63.109375 80 62 C 80 60.890625 79.109375 60 78 60 Z M 102 60 C 100.890625 60 100 60.890625 100 62 C 100 63.109375 100.890625 64 102 64 L 106 64 C 107.109375 64 108 63.109375 108 62 C 108 60.890625 107.109375 60 106 60 Z M 74 70 C 72.890625 70 72 70.890625 72 72 C 72 73.109375 72.890625 74 74 74 L 78 74 C 79.109375 74 80 73.109375 80 72 C 80 70.890625 79.109375 70 78 70 Z M 102 70 C 100.890625 70 100 70.890625 100 72 C 100 73.109375 100.890625 74 102 74 L 106 74 C 107.109375 74 108 73.109375 108 72 C 108 70.890625 107.109375 70 106 70 Z M 10 74 L 50 74 C 51.101563 74 52 74.898438 52 76 C 52 77.101563 51.101563 78 50 78 L 10 78 C 8.898438 78 8 77.101563 8 76 C 8 74.898438 8.898438 74 10 74 Z M 102 80 C 100.890625 80 100 80.890625 100 82 C 100 83.109375 100.890625 84 102 84 L 106 84 C 107.109375 84 108 83.109375 108 82 C 108 80.890625 107.109375 80 106 80 Z M 12 82 L 48 82 L 48 118 L 12 118 Z M 70 82 C 75.515625 82 80 86.484375 80 92 C 80 97.515625 75.515625 102 70 102 C 64.484375 102 60 97.515625 60 92 C 60 86.484375 64.484375 82 70 82 Z M 22 86 C 20.890625 86 20 86.890625 20 88 C 20 89.109375 20.890625 90 22 90 L 26 90 C 27.109375 90 28 89.109375 28 88 C 28 86.890625 27.109375 86 26 86 Z M 34 86 C 32.890625 86 32 86.890625 32 88 C 32 89.109375 32.890625 90 34 90 L 38 90 C 39.109375 90 40 89.109375 40 88 C 40 86.890625 39.109375 86 38 86 Z M 102 90 C 100.890625 90 100 90.890625 100 92 C 100 93.109375 100.890625 94 102 94 L 106 94 C 107.109375 94 108 93.109375 108 92 C 108 90.890625 107.109375 90 106 90 Z M 22 96 C 20.890625 96 20 96.890625 20 98 C 20 99.109375 20.890625 100 22 100 L 26 100 C 27.109375 100 28 99.109375 28 98 C 28 96.890625 27.109375 96 26 96 Z M 34 96 C 32.890625 96 32 96.890625 32 98 C 32 99.109375 32.890625 100 34 100 L 38 100 C 39.109375 100 40 99.109375 40 98 C 40 96.890625 39.109375 96 38 96 Z M 92 104 L 116 104 L 116 118 L 92 118 Z M 22 106 C 20.890625 106 20 106.890625 20 108 C 20 109.109375 20.890625 110 22 110 L 26 110 C 27.109375 110 28 109.109375 28 108 C 28 106.890625 27.109375 106 26 106 Z M 34 106 C 32.890625 106 32 106.890625 32 108 C 32 109.109375 32.890625 110 34 110 L 38 110 C 39.109375 110 40 109.109375 40 108 C 40 106.890625 39.109375 106 38 106 Z M 68 106 L 72 106 L 72 118 L 68 118 Z "/>
</g>
</svg>
