<?xml version="1.0" encoding="UTF-8"?>
<svg xmlns="http://www.w3.org/2000/svg" xmlns:xlink="http://www.w3.org/1999/xlink" width="128pt" height="128pt" viewBox="0 0 128 128" version="1.1">
<g id="surface1">
<path style=" stroke:none;fill-rule:nonzero;fill:#FFFFFF;fill-opacity:1;" d="M 69.867188 2 C 68.328125 2.007813 66.796875 2.585938 65.625 3.757813 L 40.164063 29.210938 C 37.828125 31.554688 37.828125 35.359375 40.164063 37.695313 C 41.335938 38.867188 42.867188 39.453125 44.40625 39.453125 C 45.171875 39.453125 45.945313 39.304688 46.664063 39.015625 L 53.0625 48.375 C 55.015625 51.242188 57.101563 54 59.320313 56.640625 L 7.734375 104.15625 C 5.398438 106.320313 4.0625 109.257813 4 112.460938 C 3.9375 115.640625 5.140625 118.640625 7.398438 120.898438 C 9.601563 123.101563 12.5 124.304688 15.601563 124.304688 L 15.84375 124.304688 C 19.023438 124.21875 21.984375 122.898438 24.140625 120.5625 L 71.679688 68.960938 C 74.296875 71.203125 77.0625 73.296875 79.921875 75.242188 L 89.28125 81.617188 C 88.398438 83.78125 88.835938 86.367188 90.59375 88.125 C 91.765625 89.296875 93.296875 89.875 94.835938 89.875 C 96.375 89.875 97.90625 89.296875 99.078125 88.125 L 124.53125 62.664063 C 126.875 60.328125 126.875 56.523438 124.53125 54.1875 C 122.773438 52.421875 120.195313 51.992188 118.023438 52.875 L 111.640625 43.5 C 104.421875 32.898438 95.382813 23.859375 84.78125 16.640625 L 75.421875 10.265625 C 76.304688 8.101563 75.867188 5.515625 74.109375 3.757813 C 72.9375 2.585938 71.40625 2 69.867188 2 Z M 69.867188 6 C 70.382813 6 70.890625 6.195313 71.28125 6.585938 C 72.0625 7.367188 72.0625 8.632813 71.28125 9.40625 L 45.820313 34.875 C 45.046875 35.648438 43.773438 35.648438 43 34.875 C 42.21875 34.09375 42.21875 32.820313 43 32.039063 L 68.453125 6.585938 C 68.84375 6.195313 69.351563 6 69.867188 6 Z M 72.9375 13.421875 L 82.539063 19.960938 C 86.523438 22.671875 90.265625 25.664063 93.78125 28.898438 C 93.742188 28.929688 93.695313 28.9375 93.664063 28.96875 C 92.882813 29.757813 92.882813 31.015625 93.664063 31.804688 L 96.492188 34.625 C 96.882813 35.015625 97.390625 35.21875 97.90625 35.21875 C 98.421875 35.21875 98.929688 35.015625 99.320313 34.625 C 99.351563 34.59375 99.367188 34.554688 99.398438 34.523438 C 102.632813 38.03125 105.625 41.78125 108.34375 45.765625 L 114.875 55.359375 L 107.273438 62.96875 L 91.757813 78.460938 L 82.15625 71.9375 C 79.460938 70.101563 76.859375 68.140625 74.375 66.039063 C 73.335938 65.179688 72.335938 64.296875 71.359375 63.398438 C 71.210938 63.265625 71.070313 63.117188 70.929688 62.984375 C 70.960938 62.953125 71.007813 62.945313 71.039063 62.90625 C 71.820313 62.125 71.820313 60.867188 71.039063 60.085938 L 68.210938 57.257813 C 67.429688 56.476563 66.164063 56.476563 65.382813 57.257813 C 65.351563 57.289063 65.34375 57.328125 65.3125 57.359375 C 65.179688 57.210938 65.03125 57.070313 64.898438 56.921875 C 64 55.945313 63.125 54.921875 62.28125 53.90625 C 60.179688 51.421875 58.203125 48.820313 56.359375 46.125 L 49.820313 36.53125 L 62.15625 24.1875 Z M 88.007813 35.460938 C 87.5 35.460938 86.984375 35.648438 86.59375 36.039063 C 85.8125 36.828125 85.8125 38.085938 86.59375 38.875 L 89.421875 41.695313 C 89.8125 42.085938 90.320313 42.28125 90.835938 42.28125 C 91.351563 42.28125 91.859375 42.085938 92.25 41.695313 C 93.03125 40.914063 93.03125 39.65625 92.25 38.875 L 89.421875 36.039063 C 89.03125 35.648438 88.515625 35.460938 88.007813 35.460938 Z M 80.9375 42.53125 C 80.421875 42.53125 79.914063 42.71875 79.523438 43.117188 C 78.742188 43.898438 78.742188 45.164063 79.523438 45.9375 L 82.351563 48.773438 C 82.742188 49.15625 83.25 49.351563 83.765625 49.351563 C 84.28125 49.351563 84.789063 49.15625 85.179688 48.773438 C 85.960938 47.984375 85.960938 46.71875 85.179688 45.9375 L 82.351563 43.117188 C 81.960938 42.71875 81.445313 42.53125 80.9375 42.53125 Z M 73.867188 49.59375 C 73.359375 49.59375 72.84375 49.789063 72.453125 50.1875 C 71.671875 50.960938 71.671875 52.226563 72.453125 53.007813 L 75.28125 55.84375 C 75.671875 56.234375 76.179688 56.429688 76.695313 56.429688 C 77.210938 56.429688 77.71875 56.234375 78.109375 55.84375 C 78.890625 55.0625 78.890625 53.796875 78.109375 53.015625 L 75.28125 50.1875 C 74.890625 49.789063 74.375 49.59375 73.867188 49.59375 Z M 120.289063 56.429688 C 120.804688 56.429688 121.3125 56.617188 121.703125 57.007813 C 122.484375 57.789063 122.484375 59.0625 121.710938 59.84375 L 96.25 85.296875 C 95.46875 86.078125 94.203125 86.078125 93.421875 85.296875 C 92.640625 84.515625 92.640625 83.25 93.421875 82.46875 L 105.6875 70.203125 L 118.875 57.023438 C 118.882813 57.015625 118.882813 57.007813 118.890625 57 C 119.28125 56.617188 119.78125 56.429688 120.289063 56.429688 Z M 61.9375 59.640625 C 64.078125 61.984375 66.320313 64.21875 68.65625 66.34375 L 45.875 91.054688 L 37.414063 82.585938 C 37.351563 82.523438 37.273438 82.5 37.203125 82.445313 Z M 34.351563 85.070313 C 34.429688 85.1875 34.484375 85.3125 34.585938 85.414063 L 43.164063 93.992188 L 21.179688 117.84375 C 19.78125 119.382813 17.84375 120.242188 15.765625 120.304688 C 13.640625 120.320313 11.695313 119.539063 10.21875 118.0625 C 8.742188 116.578125 7.960938 114.617188 8 112.539063 C 8.039063 110.4375 8.921875 108.523438 10.460938 107.101563 Z "/>
</g>
</svg>
