<?xml version="1.0" encoding="UTF-8"?>
<svg xmlns="http://www.w3.org/2000/svg" xmlns:xlink="http://www.w3.org/1999/xlink" width="128pt" height="128pt" viewBox="0 0 128 128" version="1.1">
<g id="surface1">
<path style=" stroke:none;fill-rule:nonzero;fill:#FFFFFF;fill-opacity:1;" d="M 74 4 C 57.21875 4 42.351563 12.320313 33.28125 25.039063 C 28.640625 28.296875 24.546875 32.367188 21.179688 37.132813 C 21.15625 37.164063 21.132813 37.195313 21.109375 37.226563 C 8.351563 46.296875 0 61.1875 0 78 C 0 105.570313 22.429688 128 50 128 C 66.796875 128 81.679688 119.664063 90.75 106.921875 C 95.375 103.671875 99.460938 99.625 102.820313 94.867188 C 102.851563 94.835938 102.867188 94.796875 102.898438 94.757813 C 115.65625 85.695313 124 70.8125 124 54 C 124 26.429688 101.570313 4 74 4 Z M 74 8 C 99.367188 8 120 28.632813 120 54 C 120 65.609375 115.664063 76.210938 108.539063 84.3125 C 111.875 75.890625 112.851563 66.695313 111.28125 57.539063 C 109.5 47.140625 104.585938 37.742188 97.085938 30.367188 C 96.289063 29.59375 95.03125 29.601563 94.25 30.390625 C 93.476563 31.179688 93.492188 32.445313 94.28125 33.21875 C 101.179688 40.007813 105.695313 48.648438 107.335938 58.21875 C 109.414063 70.328125 106.65625 82.523438 99.5625 92.5625 C 98.59375 93.921875 97.554688 95.195313 96.46875 96.421875 C 98.734375 90.71875 100 84.507813 100 78 C 100 50.429688 77.570313 28 50 28 C 43.507813 28 37.304688 29.257813 31.601563 31.523438 C 37.929688 25.914063 45.679688 22.125 54.21875 20.65625 C 62.304688 19.273438 70.601563 20.0625 78.21875 22.945313 C 79.25 23.335938 80.40625 22.820313 80.796875 21.78125 C 81.1875 20.75 80.664063 19.59375 79.632813 19.203125 C 71.34375 16.070313 62.328125 15.21875 53.546875 16.71875 C 50.132813 17.3125 46.828125 18.234375 43.679688 19.46875 C 51.78125 12.34375 62.382813 8 74 8 Z M 85.289063 21.929688 C 84.515625 21.84375 83.734375 22.226563 83.335938 22.953125 C 82.804688 23.921875 83.15625 25.140625 84.125 25.671875 C 85.679688 26.523438 87.203125 27.484375 88.65625 28.515625 C 89.015625 28.765625 89.421875 28.882813 89.820313 28.882813 C 90.445313 28.882813 91.0625 28.59375 91.453125 28.046875 C 92.09375 27.148438 91.882813 25.898438 90.976563 25.257813 C 89.398438 24.132813 87.742188 23.085938 86.054688 22.15625 C 85.8125 22.03125 85.554688 21.953125 85.289063 21.929688 Z M 50 32 C 75.367188 32 96 52.632813 96 78 C 96 103.367188 75.367188 124 50 124 C 24.632813 124 4 103.367188 4 78 C 4 52.632813 24.632813 32 50 32 Z M 50 38 C 27.945313 38 10 55.945313 10 78 C 10 100.054688 27.945313 118 50 118 C 72.054688 118 90 100.054688 90 78 C 90 66.703125 85.1875 55.875 76.789063 48.304688 C 75.96875 47.5625 74.703125 47.625 73.96875 48.445313 C 73.226563 49.265625 73.296875 50.53125 74.117188 51.273438 C 81.664063 58.085938 86 67.828125 86 78 C 86 97.851563 69.851563 114 50 114 C 30.148438 114 14 97.851563 14 78 C 14 58.148438 30.148438 42 50 42 C 52.007813 42 54.015625 42.164063 55.984375 42.5 C 57.078125 42.6875 58.109375 41.945313 58.289063 40.851563 C 58.46875 39.765625 57.734375 38.734375 56.648438 38.554688 C 54.460938 38.1875 52.226563 38 50 38 Z M 63.890625 40.640625 C 63.109375 40.65625 62.382813 41.132813 62.078125 41.90625 C 61.671875 42.929688 62.179688 44.09375 63.210938 44.5 C 64.859375 45.148438 66.476563 45.9375 68.015625 46.820313 C 68.328125 47.007813 68.679688 47.09375 69.015625 47.09375 C 69.703125 47.09375 70.375 46.734375 70.75 46.09375 C 71.296875 45.140625 70.976563 43.921875 70.023438 43.367188 C 68.3125 42.375 66.515625 41.507813 64.671875 40.78125 C 64.414063 40.679688 64.148438 40.632813 63.890625 40.640625 Z M 50 52 C 48.898438 52 48 52.890625 48 54 L 48 58 C 43.585938 58 40 61.585938 40 66 L 40 72 C 40 76.414063 43.585938 80 48 80 L 52 80 C 54.203125 80 56 81.796875 56 84 L 56 90 C 56 92.203125 54.203125 94 52 94 L 52 84 C 52 82.890625 51.101563 82 50 82 C 48.898438 82 48 82.890625 48 84 L 48 94 C 45.796875 94 44 92.203125 44 90 C 44 88.890625 43.101563 88 42 88 C 40.898438 88 40 88.890625 40 90 C 40 94.414063 43.585938 98 48 98 L 48 102 C 48 103.109375 48.898438 104 50 104 C 51.101563 104 52 103.109375 52 102 L 52 98 C 56.414063 98 60 94.414063 60 90 L 60 84 C 60 79.585938 56.414063 76 52 76 L 52 66 C 52 64.890625 51.101563 64 50 64 C 48.898438 64 48 64.890625 48 66 L 48 76 C 45.796875 76 44 74.203125 44 72 L 44 66 C 44 63.796875 45.796875 62 48 62 L 52 62 C 54.203125 62 56 63.796875 56 66 C 56 67.109375 56.898438 68 58 68 C 59.101563 68 60 67.109375 60 66 C 60 61.585938 56.414063 58 52 58 L 52 54 C 52 52.890625 51.101563 52 50 52 Z M 22.78125 82.414063 C 22.523438 82.375 22.257813 82.375 21.992188 82.4375 C 20.914063 82.6875 20.242188 83.765625 20.492188 84.84375 C 22.359375 92.914063 27.539063 99.953125 34.71875 104.15625 C 35.039063 104.335938 35.390625 104.429688 35.726563 104.429688 C 36.421875 104.429688 37.085938 104.070313 37.460938 103.4375 C 38.015625 102.484375 37.695313 101.257813 36.742188 100.703125 C 30.507813 97.054688 26.007813 90.945313 24.382813 83.9375 C 24.203125 83.132813 23.546875 82.554688 22.78125 82.414063 Z "/>
</g>
</svg>
