<?xml version="1.0" encoding="UTF-8"?>
<svg xmlns="http://www.w3.org/2000/svg" xmlns:xlink="http://www.w3.org/1999/xlink" width="128pt" height="128pt" viewBox="0 0 128 128" version="1.1">
<g id="surface1">
<path style=" stroke:none;fill-rule:nonzero;fill:#FFFFFF;fill-opacity:1;" d="M 20 16 C 16.695313 16 14 18.695313 14 22 L 14 72.4375 C 9.0625 77.492188 6 84.390625 6 92 C 6 107.4375 18.5625 120 34 120 C 47.382813 120 58.578125 110.5625 61.335938 98 L 85.179688 98 C 84.421875 99.851563 84 101.875 84 104 C 84 112.820313 91.179688 120 100 120 C 108.820313 120 116 112.820313 116 104 C 116 100.328125 114.742188 96.953125 112.65625 94.25 L 122.265625 63.8125 C 122.84375 61.960938 122.523438 60.007813 121.375 58.453125 C 120.234375 56.890625 118.476563 56 116.539063 56 L 102 56 L 102 48 C 102 45.820313 100.25 44.046875 98.078125 44.007813 C 98.460938 38.0625 100.554688 38 102 38 C 103.101563 38 104 37.109375 104 36 L 104 30 C 104 28.890625 103.101563 28 102 28 L 100 28 C 92.28125 28 86 34.28125 86 42 L 86 44 C 83.796875 44 82 45.796875 82 48 L 82 56 L 75.492188 56 L 64.773438 20.28125 C 64 17.71875 61.695313 16 59.023438 16 Z M 20 20 L 59.023438 20 C 59.914063 20 60.6875 20.570313 60.9375 21.429688 L 72.085938 58.570313 C 72.335938 59.421875 73.117188 60 74 60 L 116.539063 60 C 117.1875 60 117.773438 60.296875 118.15625 60.8125 C 118.53125 61.335938 118.648438 61.992188 118.445313 62.601563 L 109.4375 91.117188 C 106.789063 89.171875 103.53125 88 100 88 C 94.960938 88 90.46875 90.34375 87.53125 94 L 61.898438 94 C 61.945313 93.335938 62 92.671875 62 92 C 62 76.5625 49.4375 64 34 64 C 28.054688 64 22.539063 65.882813 18 69.054688 L 18 62.007813 C 22.898438 59.390625 28.40625 58 34 58 C 51.625 58 66.515625 71.75 67.898438 89.289063 C 67.976563 90.34375 68.851563 91.132813 69.882813 91.132813 C 69.9375 91.132813 69.992188 91.132813 70.046875 91.125 C 71.148438 91.039063 71.96875 90.078125 71.882813 88.976563 C 70.335938 69.367188 53.695313 54 34 54 C 28.453125 54 22.992188 55.226563 18 57.546875 L 18 22 C 18 20.898438 18.898438 20 20 20 Z M 28 26 C 25.796875 26 24 27.796875 24 30 L 24 46 C 24 48.203125 25.796875 50 28 50 L 57.5625 50 C 58.757813 50 59.890625 49.46875 60.65625 48.53125 C 61.414063 47.601563 61.71875 46.398438 61.476563 45.21875 L 58.28125 29.21875 C 57.90625 27.351563 56.257813 26 54.359375 26 Z M 28 30 L 54.359375 30 L 57.5625 46 L 28 46 Z M 100 32 L 100 34.1875 C 97.265625 34.742188 94.492188 36.867188 94.0625 44 L 90 44 L 90 42 C 90 36.484375 94.484375 32 100 32 Z M 86 48 L 98 48 L 98 56 L 86 56 Z M 70 64 C 68.898438 64 68 64.890625 68 66 L 68 70 C 68 71.109375 68.898438 72 70 72 C 71.101563 72 72 71.109375 72 70 L 72 66 C 72 64.890625 71.101563 64 70 64 Z M 80 64 C 78.898438 64 78 64.890625 78 66 L 78 70 C 78 71.109375 78.898438 72 80 72 C 81.101563 72 82 71.109375 82 70 L 82 66 C 82 64.890625 81.101563 64 80 64 Z M 90 64 C 88.898438 64 88 64.890625 88 66 L 88 70 C 88 71.109375 88.898438 72 90 72 C 91.101563 72 92 71.109375 92 70 L 92 66 C 92 64.890625 91.101563 64 90 64 Z M 100 64 C 98.898438 64 98 64.890625 98 66 L 98 70 C 98 71.109375 98.898438 72 100 72 C 101.101563 72 102 71.109375 102 70 L 102 66 C 102 64.890625 101.101563 64 100 64 Z M 110 64 C 108.898438 64 108 64.890625 108 66 L 108 70 C 108 71.109375 108.898438 72 110 72 C 111.101563 72 112 71.109375 112 70 L 112 66 C 112 64.890625 111.101563 64 110 64 Z M 31.085938 68.195313 C 31.179688 69.25 32.039063 70.117188 33.132813 70.015625 C 34.296875 69.96875 35.5 70.015625 36.679688 70.15625 C 36.757813 70.171875 36.84375 70.179688 36.921875 70.179688 C 37.890625 70.179688 38.710938 69.46875 38.875 68.5 C 40.117188 68.757813 41.3125 69.132813 42.46875 69.570313 C 42.085938 70.546875 42.492188 71.664063 43.445313 72.125 C 44.507813 72.625 45.539063 73.226563 46.507813 73.898438 C 46.851563 74.140625 47.25 74.25 47.648438 74.25 C 48.25 74.25 48.835938 73.976563 49.226563 73.46875 C 50.195313 74.257813 51.078125 75.148438 51.90625 76.085938 C 51.109375 76.757813 50.953125 77.945313 51.59375 78.789063 C 52.304688 79.742188 52.945313 80.742188 53.492188 81.78125 C 53.84375 82.460938 54.539063 82.851563 55.257813 82.851563 C 55.546875 82.851563 55.835938 82.78125 56.101563 82.65625 C 56.59375 83.796875 56.960938 84.992188 57.265625 86.21875 C 56.242188 86.445313 55.546875 87.421875 55.71875 88.46875 C 55.90625 89.625 56 90.8125 56 91.9375 C 56 91.960938 56 92.078125 56 92.09375 C 56 93.164063 56.84375 93.976563 57.898438 94.03125 C 57.789063 95.3125 57.570313 96.5625 57.265625 97.78125 C 56.25 97.492188 55.1875 98.039063 54.84375 99.046875 C 54.46875 100.164063 54 101.257813 53.445313 102.296875 C 52.945313 103.242188 53.289063 104.382813 54.1875 104.929688 C 53.507813 105.984375 52.742188 106.976563 51.914063 107.914063 C 51.140625 107.203125 49.953125 107.1875 49.1875 107.914063 C 48.328125 108.734375 47.40625 109.484375 46.4375 110.148438 C 45.5625 110.75 45.328125 111.929688 45.875 112.828125 C 44.789063 113.445313 43.65625 113.976563 42.46875 114.429688 C 42.125 113.4375 41.078125 112.875 40.054688 113.15625 C 38.921875 113.476563 37.757813 113.71875 36.585938 113.851563 C 35.53125 113.976563 34.78125 114.90625 34.84375 115.960938 C 34.554688 115.96875 34.28125 116 34 116 C 33.015625 116 32.046875 115.921875 31.09375 115.804688 C 31.25 114.765625 30.578125 113.765625 29.53125 113.546875 C 28.375 113.304688 27.234375 112.976563 26.140625 112.554688 C 25.148438 112.171875 24.054688 112.648438 23.625 113.601563 C 22.484375 113.054688 21.390625 112.445313 20.367188 111.726563 C 20.992188 110.882813 20.867188 109.6875 20.039063 109.007813 C 19.132813 108.257813 18.273438 107.429688 17.5 106.554688 C 16.789063 105.75 15.609375 105.664063 14.78125 106.3125 C 14.03125 105.3125 13.351563 104.257813 12.765625 103.148438 C 13.710938 102.679688 14.15625 101.5625 13.734375 100.585938 C 13.273438 99.492188 12.90625 98.359375 12.625 97.21875 C 12.375 96.1875 11.351563 95.5625 10.328125 95.75 C 10.132813 94.53125 10 93.289063 10 92.023438 C 10.03125 92.023438 10.054688 92.023438 10.085938 92.023438 C 11.117188 92.023438 11.992188 91.226563 12.070313 90.1875 C 12.164063 89.007813 12.359375 87.835938 12.640625 86.695313 C 12.898438 85.664063 12.289063 84.632813 11.28125 84.320313 C 11.6875 83.125 12.179688 81.96875 12.757813 80.867188 C 13.0625 81.039063 13.398438 81.132813 13.734375 81.132813 C 14.390625 81.132813 15.039063 80.8125 15.421875 80.210938 C 16.054688 79.21875 16.773438 78.265625 17.554688 77.382813 C 18.257813 76.59375 18.203125 75.398438 17.460938 74.65625 C 18.367188 73.789063 19.328125 72.992188 20.359375 72.28125 C 20.742188 72.859375 21.367188 73.195313 22.03125 73.195313 C 22.367188 73.195313 22.710938 73.117188 23.03125 72.9375 C 24.054688 72.34375 25.125 71.828125 26.226563 71.414063 C 27.226563 71.039063 27.71875 69.953125 27.40625 68.945313 C 28.59375 68.601563 29.820313 68.351563 31.085938 68.195313 Z M 34 76 C 25.179688 76 18 83.179688 18 92 C 18 100.820313 25.179688 108 34 108 C 42.820313 108 50 100.820313 50 92 C 50 83.179688 42.820313 76 34 76 Z M 34 80 C 40.617188 80 46 85.382813 46 92 C 46 98.617188 40.617188 104 34 104 C 27.382813 104 22 98.617188 22 92 C 22 85.382813 27.382813 80 34 80 Z M 34 86 C 30.6875 86 28 88.6875 28 92 C 28 95.3125 30.6875 98 34 98 C 37.3125 98 40 95.3125 40 92 C 40 88.6875 37.3125 86 34 86 Z M 100 92 C 100.046875 92 100.101563 92.007813 100.148438 92.007813 C 100.054688 93.03125 100.734375 93.96875 101.757813 94.15625 C 102.914063 94.359375 104.007813 94.757813 105.015625 95.34375 C 105.328125 95.53125 105.679688 95.617188 106.023438 95.617188 C 106.65625 95.617188 107.265625 95.304688 107.648438 94.75 C 108.773438 95.6875 109.726563 96.835938 110.445313 98.117188 C 109.523438 98.546875 109.046875 99.601563 109.40625 100.585938 C 109.796875 101.679688 110 102.828125 110 104 L 111.992188 104.132813 C 111.96875 106.359375 111.335938 108.429688 110.25 110.203125 C 109.421875 109.609375 108.273438 109.710938 107.59375 110.507813 C 106.835938 111.398438 105.929688 112.132813 104.914063 112.710938 C 104.007813 113.21875 103.6875 114.335938 104.101563 115.265625 C 102.820313 115.734375 101.445313 116 100 116 C 99.929688 116 99.859375 115.992188 99.78125 115.992188 C 99.882813 114.96875 99.210938 114.023438 98.1875 113.835938 C 97.039063 113.625 95.945313 113.21875 94.9375 112.625 C 94.039063 112.09375 92.914063 112.367188 92.3125 113.210938 C 91.1875 112.265625 90.234375 111.117188 89.515625 109.828125 C 90.453125 109.398438 90.929688 108.34375 90.578125 107.359375 C 90.195313 106.289063 90 105.15625 90 104 L 90 103.929688 C 90 102.890625 89.195313 102.09375 88.1875 102 C 88.4375 100.507813 88.953125 99.117188 89.703125 97.867188 C 90.046875 98.101563 90.4375 98.25 90.84375 98.25 C 91.40625 98.25 91.96875 98.007813 92.367188 97.539063 C 93.125 96.648438 94.023438 95.898438 95.03125 95.3125 C 95.9375 94.796875 96.257813 93.6875 95.835938 92.757813 C 97.132813 92.28125 98.53125 92 100 92 Z M 100 98 C 96.6875 98 94 100.6875 94 104 C 94 107.3125 96.6875 110 100 110 C 103.3125 110 106 107.3125 106 104 C 106 100.6875 103.3125 98 100 98 Z "/>
</g>
</svg>
