<?xml version="1.0" encoding="UTF-8"?>
<svg xmlns="http://www.w3.org/2000/svg" xmlns:xlink="http://www.w3.org/1999/xlink" width="128pt" height="128pt" viewBox="0 0 128 128" version="1.1">
<g id="surface1">
<path style=" stroke:none;fill-rule:nonzero;fill:#FFFFFF;fill-opacity:1;" d="M 62 0 C 60.265625 0 58.507813 0.09375 56.773438 0.289063 C 35.640625 2.625 18.617188 19.65625 16.289063 40.78125 C 14.304688 58.789063 22.625 75.820313 38 85.242188 C 41.132813 87.15625 43.28125 90.234375 43.90625 93.679688 L 44 94.1875 L 44 106 C 44 113.039063 49.226563 118.867188 56 119.84375 L 56 122 C 56 124.203125 57.796875 126 60 126 L 64 126 C 66.203125 126 68 124.203125 68 122 L 68 119.84375 C 74.773438 118.867188 80 113.039063 80 106 L 80 94.179688 L 80.09375 93.6875 C 80.71875 90.242188 82.890625 87.15625 86.0625 85.210938 C 99.796875 76.757813 108 62.101563 108 46 C 108 20.632813 87.367188 0 62 0 Z M 62 4 C 85.15625 4 104 22.84375 104 46 C 104 60.703125 96.515625 74.085938 83.96875 81.796875 C 80.125 84.15625 77.398438 87.835938 76.367188 92 L 68 92 L 68 88 C 68 86.890625 67.109375 86 66 86 C 64.890625 86 64 86.890625 64 88 L 64 92 L 60 92 L 60 61.3125 C 60 58.640625 58.960938 56.132813 57.070313 54.242188 L 50.242188 47.414063 C 49.460938 46.632813 49.460938 45.367188 50.242188 44.585938 L 52.585938 42.242188 C 53.367188 41.460938 54.632813 41.460938 55.414063 42.242188 L 57.757813 44.585938 C 60.023438 46.851563 63.976563 46.851563 66.242188 44.585938 L 68.585938 42.242188 C 69.367188 41.460938 70.632813 41.460938 71.414063 42.242188 L 73.757813 44.585938 C 74.539063 45.367188 74.539063 46.632813 73.757813 47.414063 L 66.929688 54.242188 C 65.039063 56.132813 64 58.640625 64 61.3125 L 64 80 C 64 81.109375 64.890625 82 66 82 C 67.109375 82 68 81.109375 68 80 L 68 61.3125 C 68 59.710938 68.625 58.203125 69.757813 57.070313 L 76.585938 50.242188 C 78.929688 47.898438 78.929688 44.101563 76.585938 41.757813 L 74.242188 39.414063 C 71.898438 37.070313 68.101563 37.070313 65.757813 39.414063 L 63.414063 41.757813 C 62.65625 42.515625 61.34375 42.515625 60.585938 41.757813 L 58.242188 39.414063 C 55.898438 37.070313 52.101563 37.070313 49.757813 39.414063 L 47.414063 41.757813 C 45.070313 44.101563 45.070313 47.898438 47.414063 50.242188 L 54.242188 57.070313 C 55.375 58.203125 56 59.710938 56 61.3125 L 56 92 L 47.632813 92 C 46.601563 87.828125 43.898438 84.164063 40.09375 81.835938 C 26.054688 73.234375 18.453125 57.664063 20.265625 41.21875 C 22.390625 21.929688 37.929688 6.398438 57.210938 4.265625 C 58.804688 4.09375 60.414063 4 62 4 Z M 32 22 C 30.890625 22 30 22.890625 30 24 L 30 28 C 30 29.109375 30.890625 30 32 30 C 33.109375 30 34 29.109375 34 28 L 34 24 C 34 22.890625 33.109375 22 32 22 Z M 42 22 C 40.890625 22 40 22.890625 40 24 L 40 28 C 40 29.109375 40.890625 30 42 30 C 43.109375 30 44 29.109375 44 28 L 44 24 C 44 22.890625 43.109375 22 42 22 Z M 52 22 C 50.890625 22 50 22.890625 50 24 L 50 28 C 50 29.109375 50.890625 30 52 30 C 53.109375 30 54 29.109375 54 28 L 54 24 C 54 22.890625 53.109375 22 52 22 Z M 62 22 C 60.890625 22 60 22.890625 60 24 L 60 28 C 60 29.109375 60.890625 30 62 30 C 63.109375 30 64 29.109375 64 28 L 64 24 C 64 22.890625 63.109375 22 62 22 Z M 72 22 C 70.890625 22 70 22.890625 70 24 L 70 28 C 70 29.109375 70.890625 30 72 30 C 73.109375 30 74 29.109375 74 28 L 74 24 C 74 22.890625 73.109375 22 72 22 Z M 82 22 C 80.890625 22 80 22.890625 80 24 L 80 28 C 80 29.109375 80.890625 30 82 30 C 83.109375 30 84 29.109375 84 28 L 84 24 C 84 22.890625 83.109375 22 82 22 Z M 92 22 C 90.890625 22 90 22.890625 90 24 L 90 28 C 90 29.109375 90.890625 30 92 30 C 93.109375 30 94 29.109375 94 28 L 94 24 C 94 22.890625 93.109375 22 92 22 Z M 48 96 L 76 96 L 76 98.234375 L 48 101.734375 Z M 76 102.265625 L 76 106 C 76 106.078125 75.976563 106.15625 75.976563 106.242188 L 55.664063 108.78125 C 54.570313 108.914063 53.796875 109.914063 53.9375 111.007813 C 54.0625 112.023438 54.921875 112.757813 55.914063 112.757813 C 55.992188 112.757813 56.078125 112.75 56.164063 112.742188 L 74.9375 110.398438 C 73.304688 113.703125 69.929688 116 66 116 L 58 116 C 52.484375 116 48 111.515625 48 106 L 48 105.765625 Z M 60 120 L 64 120 L 64 122 L 60 122 Z "/>
</g>
</svg>
