<?xml version="1.0" encoding="UTF-8"?>
<svg xmlns="http://www.w3.org/2000/svg" xmlns:xlink="http://www.w3.org/1999/xlink" width="128pt" height="128pt" viewBox="0 0 128 128" version="1.1">
<g id="surface1">
<path style=" stroke:none;fill-rule:nonzero;fill:#FFFFFF;fill-opacity:1;" d="M 64.335938 1.046875 C 63.234375 1.046875 62.140625 1.234375 61.09375 1.59375 L 23.632813 14.445313 C 21.992188 15.007813 20.929688 16.492188 20.929688 18.226563 C 20.929688 19.960938 21.992188 21.445313 23.632813 22.007813 L 36.71875 26.5 L 35.34375 35.5 C 35.164063 36.65625 35.5 37.828125 36.257813 38.710938 C 36.335938 38.804688 36.429688 38.867188 36.507813 38.945313 C 36.5 38.992188 36.46875 39.03125 36.460938 39.085938 C 36.335938 39.804688 36.25 41.46875 36.148438 44.21875 C 35.875 44.242188 35.625 44.289063 35.40625 44.34375 C 33.609375 44.828125 32.34375 46.429688 31.84375 48.867188 C 31.445313 50.820313 31.570313 53.195313 32.203125 55.554688 C 33.273438 59.546875 35.515625 62.546875 37.96875 63.46875 C 38.796875 66.007813 39.898438 68.53125 41.195313 70.953125 L 16.507813 82.757813 C 8.90625 86.390625 4 94.179688 4 102.601563 L 4 118 C 4 121.304688 6.695313 124 10 124 L 118 124 C 121.304688 124 124 121.304688 124 118 L 124 102.601563 C 124 94.179688 119.09375 86.390625 111.492188 82.757813 L 86.804688 70.945313 C 88.101563 68.53125 89.203125 66.007813 90.03125 63.46875 C 92.484375 62.546875 94.726563 59.546875 95.796875 55.554688 C 96.429688 53.195313 96.554688 50.820313 96.15625 48.867188 C 95.65625 46.429688 94.390625 44.828125 92.59375 44.34375 C 92.375 44.28125 92.132813 44.234375 91.851563 44.21875 C 91.78125 42.03125 91.703125 40.25 91.59375 39.390625 C 91.875 39.195313 92.148438 38.976563 92.375 38.710938 C 93.132813 37.820313 93.46875 36.648438 93.289063 35.5 L 91.921875 26.507813 L 100 23.742188 L 100 28.945313 C 98.828125 30.085938 96 33.21875 96 37.125 C 96 41.9375 100.328125 45.625 100.515625 45.78125 C 100.890625 46.09375 101.34375 46.25 101.804688 46.25 C 102.257813 46.25 102.71875 46.09375 103.09375 45.78125 C 103.273438 45.625 107.601563 41.9375 107.601563 37.125 C 107.601563 33.625 105.320313 30.734375 104 29.351563 L 104 22.367188 L 105.039063 22.007813 C 106.679688 21.445313 107.742188 19.960938 107.742188 18.226563 C 107.742188 16.492188 106.679688 15.007813 105.039063 14.445313 L 67.578125 1.59375 C 66.53125 1.234375 65.4375 1.046875 64.335938 1.046875 Z M 64.335938 5.046875 C 64.992188 5.046875 65.65625 5.15625 66.28125 5.375 L 103.742188 18.226563 L 66.28125 31.085938 C 65.03125 31.515625 63.648438 31.515625 62.390625 31.085938 L 24.929688 18.226563 L 62.382813 5.375 C 63.015625 5.15625 63.679688 5.046875 64.335938 5.046875 Z M 76.71875 12.40625 C 76.460938 12.382813 76.195313 12.40625 75.929688 12.484375 L 63.734375 16.320313 C 62.679688 16.648438 62.09375 17.773438 62.429688 18.828125 C 62.695313 19.679688 63.484375 20.226563 64.335938 20.226563 C 64.53125 20.226563 64.734375 20.195313 64.9375 20.132813 L 77.125 16.304688 C 78.179688 15.976563 78.765625 14.851563 78.4375 13.796875 C 78.1875 13.007813 77.492188 12.484375 76.71875 12.40625 Z M 40.5625 27.820313 L 61.085938 34.867188 C 62.132813 35.226563 63.234375 35.40625 64.335938 35.40625 C 65.429688 35.40625 66.53125 35.226563 67.578125 34.867188 L 88.070313 27.835938 L 89.351563 36.101563 L 79.859375 36.03125 L 79.71875 36.03125 C 76.9375 36.03125 74.15625 36.6875 71.671875 37.929688 L 64.898438 41.3125 C 64.335938 41.601563 63.664063 41.601563 63.101563 41.3125 L 56.335938 37.9375 C 53.804688 36.664063 50.929688 36.046875 48.132813 36.03125 L 39.289063 36.101563 Z M 101.804688 32.25 C 102.820313 33.523438 103.875 35.328125 103.875 37.125 C 103.875 38.921875 102.820313 40.71875 101.804688 42 C 100.78125 40.71875 99.71875 38.921875 99.71875 37.125 C 99.71875 35.328125 100.78125 33.523438 101.804688 32.25 Z M 79.726563 40.03125 L 79.835938 40.03125 L 87.65625 40.09375 C 87.757813 41.078125 87.851563 44.007813 87.898438 45.328125 C 87.914063 46.007813 87.929688 46.5625 87.945313 46.867188 C 87.976563 47.585938 88.390625 48.226563 89.03125 48.554688 C 89.664063 48.882813 90.429688 48.84375 91.03125 48.453125 C 91.390625 48.21875 91.570313 48.210938 91.5625 48.210938 C 91.625 48.226563 92.015625 48.554688 92.242188 49.671875 C 92.515625 51.007813 92.40625 52.773438 91.9375 54.523438 C 90.953125 58.203125 89.0625 59.765625 88.476563 59.765625 C 87.59375 59.765625 86.8125 60.34375 86.5625 61.195313 C 83.179688 72.523438 74.351563 84 64 84 C 53.648438 84 44.820313 72.523438 41.453125 61.1875 C 41.195313 60.34375 40.421875 59.757813 39.53125 59.757813 C 38.945313 59.757813 37.054688 58.203125 36.070313 54.515625 C 35.601563 52.773438 35.492188 51.007813 35.765625 49.664063 C 35.992188 48.546875 36.382813 48.21875 36.429688 48.210938 C 36.4375 48.210938 36.609375 48.210938 36.96875 48.445313 C 37.570313 48.835938 38.335938 48.875 38.976563 48.554688 C 39.617188 48.226563 40.03125 47.585938 40.0625 46.867188 L 40.109375 45.492188 C 40.15625 44.140625 40.25 41.203125 40.367188 40.09375 L 48.171875 40.03125 L 48.289063 40.03125 C 50.453125 40.03125 52.617188 40.546875 54.554688 41.507813 L 61.320313 44.898438 C 62.164063 45.3125 63.078125 45.53125 64 45.53125 C 64.929688 45.53125 65.84375 45.3125 66.6875 44.898438 L 73.460938 41.507813 C 75.398438 40.546875 77.5625 40.03125 79.726563 40.03125 Z M 40.484375 75.71875 L 55.882813 120 L 51 120 L 34.5 98 L 39.601563 91.195313 C 39.921875 90.773438 40.054688 90.242188 39.976563 89.71875 L 38.140625 76.84375 Z M 87.523438 75.726563 L 89.859375 76.84375 L 88.023438 89.71875 C 87.953125 90.242188 88.085938 90.773438 88.40625 91.203125 L 93.460938 97.945313 L 76.453125 118.734375 C 76.148438 119.101563 76.03125 119.554688 76.03125 120 L 72.117188 120 Z M 45.210938 77.125 C 50.148438 83.460938 56.710938 88 64 88 C 71.289063 88 77.859375 83.460938 82.796875 77.125 L 68.117188 119.34375 C 68.039063 119.5625 68.023438 119.78125 68.023438 120 L 59.976563 120 C 59.976563 119.78125 59.96875 119.5625 59.890625 119.34375 Z M 34.359375 78.65625 L 35.90625 89.460938 L 30.398438 96.804688 C 29.867188 97.507813 29.867188 98.492188 30.398438 99.195313 L 46 120 L 10 120 C 8.898438 120 8 119.101563 8 118 L 8 102.601563 C 8 95.710938 12.015625 89.335938 18.234375 86.367188 Z M 93.640625 78.65625 L 109.765625 86.367188 C 115.984375 89.335938 120 95.710938 120 102.601563 L 120 118 C 120 119.101563 119.101563 120 118 120 L 80.585938 120 L 97.554688 99.265625 C 98.132813 98.554688 98.15625 97.539063 97.601563 96.804688 L 92.09375 89.46875 Z M 14 108 C 12.890625 108 12 108.898438 12 110 L 12 114 C 12 115.101563 12.890625 116 14 116 C 15.109375 116 16 115.101563 16 114 L 16 110 C 16 108.898438 15.109375 108 14 108 Z M 24 108 C 22.890625 108 22 108.898438 22 110 L 22 114 C 22 115.101563 22.890625 116 24 116 C 25.109375 116 26 115.101563 26 114 L 26 110 C 26 108.898438 25.109375 108 24 108 Z M 34 108 C 32.890625 108 32 108.898438 32 110 L 32 114 C 32 115.101563 32.890625 116 34 116 C 35.109375 116 36 115.101563 36 114 L 36 110 C 36 108.898438 35.109375 108 34 108 Z M 94 108 C 92.890625 108 92 108.898438 92 110 L 92 114 C 92 115.101563 92.890625 116 94 116 C 95.109375 116 96 115.101563 96 114 L 96 110 C 96 108.898438 95.109375 108 94 108 Z M 104 108 C 102.890625 108 102 108.898438 102 110 L 102 114 C 102 115.101563 102.890625 116 104 116 C 105.109375 116 106 115.101563 106 114 L 106 110 C 106 108.898438 105.109375 108 104 108 Z M 114 108 C 112.890625 108 112 108.898438 112 110 L 112 114 C 112 115.101563 112.890625 116 114 116 C 115.109375 116 116 115.101563 116 114 L 116 110 C 116 108.898438 115.109375 108 114 108 Z "/>
</g>
</svg>
