<?xml version="1.0" encoding="UTF-8"?>
<svg xmlns="http://www.w3.org/2000/svg" xmlns:xlink="http://www.w3.org/1999/xlink" width="128pt" height="128pt" viewBox="0 0 128 128" version="1.1">
<g id="surface1">
<path style=" stroke:none;fill-rule:nonzero;fill:#FFFFFF;fill-opacity:1;" d="M 63.195313 4 C 59.25 4 55.664063 6.328125 54.0625 9.9375 L 48.265625 22.976563 L 44.5 28 L 23.601563 28 C 19.414063 28 15.640625 30.648438 14.203125 34.585938 L 8.78125 49.507813 C 8.398438 50.5625 7.890625 51.554688 7.265625 52.492188 L 3.023438 58.859375 C 1.046875 61.828125 0 65.28125 0 68.84375 L 0 92 C 0 96.414063 3.585938 100 8 100 L 12 100 C 16.414063 100 20 96.414063 20 92 L 20 88 L 36.6875 88 C 36.25 89.570313 36 91.1875 36 92.84375 L 36 116 C 36 120.414063 39.585938 124 44 124 L 48 124 C 52.414063 124 56 120.414063 56 116 L 56 112 L 108 112 L 108 116 C 108 120.414063 111.585938 124 116 124 L 120 124 C 124.414063 124 128 120.414063 128 116 L 128 92.84375 C 128 89.28125 126.953125 85.828125 124.976563 82.859375 L 120.726563 76.492188 C 120.109375 75.5625 119.601563 74.5625 119.21875 73.507813 L 117.21875 68 L 118 68 C 122.414063 68 126 64.414063 126 60 L 126 37.335938 C 126 33.46875 124.71875 29.632813 122.398438 26.53125 L 120.140625 23.523438 C 119.875 23.164063 119.648438 22.773438 119.460938 22.359375 L 113.9375 9.9375 C 112.335938 6.335938 108.75 4 104.804688 4 Z M 63.195313 8 L 104.804688 8 C 107.171875 8 109.320313 9.398438 110.28125 11.5625 L 115.804688 23.984375 C 115.9375 24.289063 116.101563 24.585938 116.257813 24.875 L 111.945313 26.976563 C 110.585938 27.648438 109.070313 28 107.554688 28 L 82.039063 28 C 80.9375 28 80.039063 28.898438 80.039063 30 C 80.039063 31.101563 80.9375 32 82.039063 32 L 107.554688 32 C 109.679688 32 111.804688 31.507813 113.710938 30.570313 L 118.625 28.164063 L 119.203125 28.9375 C 121.007813 31.34375 122 34.328125 122 37.335938 L 122 60 C 122 62.203125 120.203125 64 118 64 L 115.765625 64 L 113.789063 58.585938 C 112.359375 54.648438 108.585938 52 104.398438 52 L 84.445313 52 C 83.960938 51.210938 83.539063 50.382813 83.21875 49.507813 L 81.945313 46 L 98.335938 46 C 99.445313 46 100.335938 45.101563 100.335938 44 C 100.335938 42.898438 99.445313 42 98.335938 42 L 80.492188 42 L 77.789063 34.585938 C 76.359375 30.648438 72.585938 28 68.398438 28 L 49.5 28 L 51.601563 25.195313 C 51.695313 25.078125 51.765625 24.953125 51.828125 24.8125 L 57.71875 11.5625 C 58.679688 9.398438 60.828125 8 63.195313 8 Z M 64 12 C 62.890625 12 62 12.898438 62 14 L 62 18 C 62 19.101563 62.890625 20 64 20 C 65.109375 20 66 19.101563 66 18 L 66 14 C 66 12.898438 65.109375 12 64 12 Z M 74 12 C 72.890625 12 72 12.898438 72 14 L 72 18 C 72 19.101563 72.890625 20 74 20 C 75.109375 20 76 19.101563 76 18 L 76 14 C 76 12.898438 75.109375 12 74 12 Z M 84 12 C 82.890625 12 82 12.898438 82 14 L 82 18 C 82 19.101563 82.890625 20 84 20 C 85.109375 20 86 19.101563 86 18 L 86 14 C 86 12.898438 85.109375 12 84 12 Z M 94 12 C 92.890625 12 92 12.898438 92 14 L 92 18 C 92 19.101563 92.890625 20 94 20 C 95.109375 20 96 19.101563 96 18 L 96 14 C 96 12.898438 95.109375 12 94 12 Z M 104 12 C 102.890625 12 102 12.898438 102 14 L 102 18 C 102 19.101563 102.890625 20 104 20 C 105.109375 20 106 19.101563 106 18 L 106 14 C 106 12.898438 105.109375 12 104 12 Z M 23.601563 32 L 68.398438 32 C 70.90625 32 73.179688 33.585938 74.03125 35.945313 L 79.460938 50.875 C 79.601563 51.257813 79.773438 51.625 79.945313 52 L 59.601563 52 C 55.414063 52 51.640625 54.648438 50.210938 58.585938 L 44.78125 73.507813 C 44.710938 73.695313 44.617188 73.867188 44.546875 74.039063 C 44.476563 74.03125 44.414063 74 44.335938 74 L 25.835938 74 C 24.726563 74 23.835938 74.898438 23.835938 76 C 23.835938 77.101563 24.726563 78 25.835938 78 L 42.265625 78 L 39.023438 82.859375 C 38.78125 83.226563 38.59375 83.617188 38.375 84 L 4 84 L 4 68.84375 C 4 66.070313 4.8125 63.382813 6.351563 61.078125 L 9.625 56.171875 L 14.4375 58.546875 C 16.351563 59.5 18.5 60 20.632813 60 L 43.914063 60 C 45.023438 60 45.914063 59.101563 45.914063 58 C 45.914063 56.898438 45.023438 56 43.914063 56 L 20.632813 56 C 19.109375 56 17.578125 55.640625 16.203125 54.960938 L 11.726563 52.75 C 12.03125 52.132813 12.304688 51.515625 12.53125 50.875 L 17.96875 35.945313 C 18.828125 33.585938 21.09375 32 23.601563 32 Z M 41.835938 36 C 40.726563 36 39.835938 36.898438 39.835938 38 C 39.835938 39.101563 40.726563 40 41.835938 40 L 50.335938 40 C 51.445313 40 52.335938 39.101563 52.335938 38 C 52.335938 36.898438 51.445313 36 50.335938 36 Z M 105.835938 42 C 104.726563 42 103.835938 42.898438 103.835938 44 C 103.835938 45.101563 104.726563 46 105.835938 46 L 114.335938 46 C 115.445313 46 116.335938 45.101563 116.335938 44 C 116.335938 42.898438 115.445313 42 114.335938 42 Z M 59.601563 56 L 104.398438 56 C 106.90625 56 109.179688 57.585938 110.03125 59.945313 L 115.460938 74.875 C 115.703125 75.546875 115.992188 76.210938 116.3125 76.84375 L 111.945313 78.976563 C 110.664063 79.609375 109.226563 79.953125 107.789063 79.984375 C 106.859375 75.429688 102.820313 72 98 72 C 93.171875 72 89.132813 75.445313 88.203125 80 L 56.632813 80 C 55.109375 80 53.578125 79.640625 52.203125 78.960938 L 47.726563 76.75 C 48.03125 76.132813 48.304688 75.515625 48.53125 74.875 L 53.96875 59.945313 C 54.828125 57.585938 57.09375 56 59.601563 56 Z M 77.835938 60 C 76.726563 60 75.835938 60.898438 75.835938 62 C 75.835938 63.101563 76.726563 64 77.835938 64 L 86.335938 64 C 87.445313 64 88.335938 63.101563 88.335938 62 C 88.335938 60.898438 87.445313 60 86.335938 60 Z M 9.835938 74 C 8.726563 74 7.835938 74.898438 7.835938 76 C 7.835938 77.101563 8.726563 78 9.835938 78 L 18.335938 78 C 19.445313 78 20.335938 77.101563 20.335938 76 C 20.335938 74.898438 19.445313 74 18.335938 74 Z M 98 76 C 100.609375 76 102.804688 77.679688 103.632813 80 L 92.375 80 C 93.195313 77.679688 95.398438 76 98 76 Z M 45.625 80.171875 L 50.4375 82.546875 C 52.351563 83.5 54.5 84 56.632813 84 L 107.554688 84 C 109.679688 84 111.804688 83.507813 113.710938 82.570313 L 118.4375 80.257813 L 121.648438 85.078125 C 123.1875 87.382813 124 90.070313 124 92.84375 L 124 108 L 40 108 L 40 92.84375 C 40 90.070313 40.8125 87.382813 42.351563 85.078125 Z M 4 88 L 16 88 L 16 92 C 16 94.203125 14.203125 96 12 96 L 8 96 C 5.796875 96 4 94.203125 4 92 Z M 47.648438 92.28125 C 46.804688 92.359375 46 92.695313 45.351563 93.265625 C 44.492188 94.023438 44 95.117188 44 96.265625 L 44 100 C 44 102.203125 45.796875 104 48 104 L 60 104 C 62.203125 104 64 102.203125 64 100 L 64 97.765625 C 64 95.75 62.492188 94.046875 60.5 93.796875 L 48.5 92.296875 C 48.210938 92.257813 47.929688 92.257813 47.648438 92.28125 Z M 116.351563 92.28125 C 116.070313 92.257813 115.789063 92.265625 115.5 92.296875 L 103.5 93.796875 C 101.507813 94.046875 100 95.75 100 97.765625 L 100 100 C 100 102.203125 101.796875 104 104 104 L 116 104 C 118.203125 104 120 102.203125 120 100 L 120 96.265625 C 120 95.117188 119.507813 94.023438 118.648438 93.265625 C 118 92.695313 117.203125 92.359375 116.351563 92.28125 Z M 69.835938 96 C 68.726563 96 67.835938 96.898438 67.835938 98 C 67.835938 99.101563 68.726563 100 69.835938 100 L 94.335938 100 C 95.445313 100 96.335938 99.101563 96.335938 98 C 96.335938 96.898438 95.445313 96 94.335938 96 Z M 48 96.265625 L 60 97.765625 L 60 100 L 48 100 Z M 116 96.265625 L 116 100 L 104 100 L 104 97.765625 Z M 40 112 L 52 112 L 52 116 C 52 118.203125 50.203125 120 48 120 L 44 120 C 41.796875 120 40 118.203125 40 116 Z M 112 112 L 124 112 L 124 116 C 124 118.203125 122.203125 120 120 120 L 116 120 C 113.796875 120 112 118.203125 112 116 Z "/>
</g>
</svg>
