<?xml version="1.0" encoding="UTF-8"?>
<svg xmlns="http://www.w3.org/2000/svg" xmlns:xlink="http://www.w3.org/1999/xlink" width="128pt" height="128pt" viewBox="0 0 128 128" version="1.1">
<g id="surface1">
<path style=" stroke:none;fill-rule:nonzero;fill:#FFFFFF;fill-opacity:1;" d="M 64.375 0.0390625 C 48.15625 0.679688 33.726563 10.539063 27.367188 25.554688 C 27.351563 25.59375 27.320313 25.609375 27.304688 25.648438 C 26.929688 26.523438 26.632813 27.429688 26.320313 28.320313 C 26.257813 28.53125 26.164063 28.726563 26.09375 28.929688 C 10.289063 32.703125 -0.84375 47.523438 0.0546875 63.90625 C 0.882813 79.15625 12.015625 91.570313 26.6875 95.015625 C 22.648438 97.921875 20 102.648438 20 108 C 20 116.820313 27.179688 124 36 124 C 44.820313 124 52 116.820313 52 108 C 52 106.898438 51.109375 106 50 106 C 48.890625 106 48 106.898438 48 108 C 48 114.617188 42.617188 120 36 120 C 29.382813 120 24 114.617188 24 108 C 24 101.382813 29.382813 96 36 96 L 96 96 C 97.109375 96 98 95.101563 98 94 C 98 92.898438 97.109375 92 96 92 L 36 92 C 35.703125 92 35.421875 92.023438 35.125 92.039063 C 35.054688 92.03125 34.984375 92 34.90625 92 C 27.796875 92 21.234375 89.664063 16 85.742188 L 16 82 C 16 80.898438 15.109375 80 14 80 C 12.890625 80 12 80.898438 12 82 L 12 82.148438 C 7.390625 77.21875 4.429688 70.804688 4.046875 63.6875 C 3.296875 49.984375 12.085938 37.539063 24.875 33.4375 C 24.304688 36.234375 24 39.09375 24 42 C 24 43.101563 24.890625 44 26 44 C 27.109375 44 28 43.101563 28 42 C 28 38.3125 28.539063 34.703125 29.5625 31.226563 C 29.570313 31.21875 29.570313 31.210938 29.578125 31.203125 C 29.851563 30.273438 30.179688 29.375 30.523438 28.484375 C 30.609375 28.257813 30.679688 28.015625 30.773438 27.789063 C 37.164063 11.867188 53.484375 2.125 70.929688 4.3125 C 87.664063 6.40625 101.429688 20.070313 103.65625 36.78125 C 104.15625 40.570313 104.078125 44.34375 103.492188 48.03125 C 102.265625 48.0625 101.046875 48.148438 99.84375 48.359375 C 98.75 48.546875 98.023438 49.585938 98.21875 50.679688 C 98.40625 51.765625 99.429688 52.492188 100.53125 52.296875 C 102.0625 52.03125 103.625 51.976563 105.1875 52.0625 C 105.71875 52.101563 106.242188 52.15625 106.765625 52.226563 C 106.976563 52.257813 107.1875 52.296875 107.40625 52.335938 C 117.085938 54.007813 124.359375 62.710938 123.992188 72.757813 C 123.835938 76.835938 122.367188 80.609375 120 83.71875 L 120 82 C 120 80.898438 119.109375 80 118 80 C 116.898438 80 116 80.898438 116 82 L 116 86 C 116 86.507813 116.210938 86.953125 116.515625 87.304688 C 112.90625 90.21875 108.289063 92 103.3125 92 C 102.203125 92 101.3125 92.898438 101.3125 94 C 101.3125 95.101563 102.203125 96 103.3125 96 C 116.445313 96 127.515625 85.632813 127.976563 72.90625 C 128.367188 62.492188 121.90625 53.289063 112.648438 49.679688 C 112.546875 49.617188 112.46875 49.539063 112.351563 49.5 C 110.992188 48.992188 109.570313 48.65625 108.140625 48.40625 C 107.9375 48.375 107.742188 48.320313 107.53125 48.289063 C 108.132813 44.335938 108.15625 40.304688 107.617188 36.257813 C 105.164063 17.773438 89.945313 2.664063 71.421875 0.34375 C 69.046875 0.0390625 66.695313 -0.0546875 64.375 0.0390625 Z M 67.148438 10.03125 C 61.476563 9.851563 55.726563 11.164063 50.75 13.867188 C 49.773438 14.398438 49.414063 15.609375 49.945313 16.578125 C 50.304688 17.242188 50.992188 17.625 51.703125 17.625 C 52.023438 17.625 52.351563 17.546875 52.65625 17.375 C 58.460938 14.21875 65.484375 13.242188 71.90625 14.625 C 73.007813 14.851563 74.054688 14.171875 74.289063 13.09375 C 74.523438 12.015625 73.828125 10.945313 72.75 10.71875 C 70.914063 10.320313 69.03125 10.09375 67.148438 10.03125 Z M 80.289063 13.523438 C 79.515625 13.453125 78.734375 13.84375 78.34375 14.578125 C 77.820313 15.546875 78.1875 16.757813 79.164063 17.28125 C 80.726563 18.117188 82.21875 19.101563 83.59375 20.21875 C 83.96875 20.515625 84.414063 20.664063 84.851563 20.664063 C 85.4375 20.664063 86.015625 20.414063 86.40625 19.921875 C 87.109375 19.070313 86.96875 17.804688 86.117188 17.109375 C 84.539063 15.835938 82.835938 14.710938 81.054688 13.75 C 80.804688 13.625 80.554688 13.546875 80.289063 13.523438 Z M 54 52 C 44.070313 52 36 60.078125 36 70 C 36 79.921875 44.070313 88 54 88 L 90 88 C 91.109375 88 92 87.101563 92 86 C 92 84.898438 91.109375 84 90 84 L 54 84 C 46.28125 84 40 77.71875 40 70 C 40 62.28125 46.28125 56 54 56 C 61.71875 56 68 62.28125 68 70 C 68 71.101563 68.890625 72 70 72 C 71.109375 72 72 71.101563 72 70 C 72 60.078125 63.929688 52 54 52 Z M 24 80 C 22.890625 80 22 80.898438 22 82 L 22 86 C 22 87.101563 22.890625 88 24 88 C 25.109375 88 26 87.101563 26 86 L 26 82 C 26 80.898438 25.109375 80 24 80 Z M 34 80 C 32.890625 80 32 80.898438 32 82 L 32 86 C 32 87.101563 32.890625 88 34 88 C 35.109375 88 36 87.101563 36 86 L 36 82 C 36 80.898438 35.109375 80 34 80 Z M 98 80 C 96.890625 80 96 80.898438 96 82 L 96 86 C 96 87.101563 96.890625 88 98 88 C 99.109375 88 100 87.101563 100 86 L 100 82 C 100 80.898438 99.109375 80 98 80 Z M 108 80 C 106.890625 80 106 80.898438 106 82 L 106 86 C 106 87.101563 106.890625 88 108 88 C 109.109375 88 110 87.101563 110 86 L 110 82 C 110 80.898438 109.109375 80 108 80 Z M 68 100 C 62.484375 100 58 104.484375 58 110 C 58 115.515625 62.484375 120 68 120 C 73.515625 120 78 115.515625 78 110 C 78 108.898438 77.109375 108 76 108 C 74.890625 108 74 108.898438 74 110 C 74 113.304688 71.304688 116 68 116 C 64.695313 116 62 113.304688 62 110 C 62 106.695313 64.695313 104 68 104 L 102 104 C 103.109375 104 104 103.101563 104 102 C 104 100.898438 103.109375 100 102 100 Z M 110 100 C 108.890625 100 108 100.898438 108 102 C 108 103.101563 108.890625 104 110 104 L 118 104 C 119.109375 104 120 103.101563 120 102 C 120 100.898438 119.109375 100 118 100 Z "/>
</g>
</svg>
