<?xml version="1.0" encoding="UTF-8"?>
<svg xmlns="http://www.w3.org/2000/svg" xmlns:xlink="http://www.w3.org/1999/xlink" width="128pt" height="128pt" viewBox="0 0 128 128" version="1.1">
<g id="surface1">
<path style=" stroke:none;fill-rule:nonzero;fill:#FFFFFF;fill-opacity:1;" d="M 34 12 C 30.101563 12 26.96875 15.054688 26.867188 18.945313 L 26.859375 19.007813 C 25.851563 18.382813 24.671875 18 23.398438 18 C 19.859375 18 16.960938 20.765625 16.796875 24.304688 L 15.421875 61.25 C 15.320313 60.96875 15.21875 60.671875 15.109375 60.40625 C 11.75 52.484375 6.664063 52.085938 5.671875 52.085938 C 3.046875 52.085938 1.679688 53.21875 0.984375 54.179688 C -0.265625 55.914063 -0.335938 58.382813 0.78125 61.71875 C 1.242188 63.125 1.460938 65.304688 1.6875 67.617188 C 1.898438 69.734375 2.132813 72.140625 2.609375 74.53125 C 3.546875 79.226563 5.5 88.992188 13.359375 96.710938 C 20.375 103.601563 28.054688 104 29.6875 104 C 29.867188 104 29.96875 104 30 104 L 42 104 C 47.789063 104 52.609375 101.734375 56.046875 97.46875 L 61.5625 102.976563 C 62.929688 104.335938 65.148438 104.335938 66.523438 102.976563 L 72.023438 97.46875 C 75.460938 101.734375 80.273438 104 86.0625 104 L 97.960938 104 C 98 104 98.117188 104 98.3125 104 C 100.046875 104 107.703125 103.585938 114.695313 96.710938 C 122.554688 88.992188 124.507813 79.226563 125.445313 74.53125 C 125.929688 72.132813 126.164063 69.734375 126.375 67.609375 C 126.601563 65.304688 126.8125 63.125 127.28125 61.71875 C 128.398438 58.375 128.328125 55.914063 127.070313 54.179688 C 126.382813 53.21875 125.015625 52.085938 122.382813 52.085938 C 121.398438 52.085938 116.304688 52.484375 112.953125 60.40625 C 112.84375 60.671875 112.742188 60.960938 112.632813 61.242188 L 111.265625 24.296875 C 111.109375 20.765625 108.203125 18 104.664063 18 C 103.390625 18 102.21875 18.382813 101.203125 19.007813 L 101.195313 18.9375 C 101.09375 15.046875 97.960938 12 94.0625 12 C 90.171875 12 87.03125 15.046875 86.929688 18.945313 L 86.921875 19 C 85.921875 18.375 84.75 18 83.492188 18 C 79.921875 18 77.03125 20.789063 76.914063 24.351563 L 76.773438 28.75 C 75.914063 28.289063 74.9375 28 73.898438 28 C 70.648438 28 67.96875 30.546875 67.789063 33.789063 C 67.507813 39.125 66.992188 55.757813 66.59375 64.351563 C 65.867188 64.835938 65.179688 65.390625 64.539063 66.03125 L 64.523438 66.054688 L 64.039063 66.53125 L 63.5625 66.054688 C 62.90625 65.398438 62.203125 64.828125 61.460938 64.335938 C 61.046875 55.734375 60.507813 39.109375 60.210938 33.773438 C 60.03125 30.539063 57.351563 28 54.109375 28 C 53.085938 28 52.140625 28.273438 51.289063 28.71875 L 51.140625 24.351563 C 51.023438 20.796875 48.140625 18 44.570313 18 C 43.3125 18 42.140625 18.375 41.140625 18.992188 L 41.132813 18.9375 C 41.03125 15.046875 37.898438 12 34 12 Z M 34 16 C 35.710938 16 37.09375 17.34375 37.132813 19.046875 L 38 56.054688 C 38.007813 56.203125 38.0625 56.335938 38.09375 56.46875 C 38.125 56.578125 38.125 56.695313 38.171875 56.796875 C 38.226563 56.929688 38.320313 57.03125 38.40625 57.148438 C 38.46875 57.242188 38.523438 57.34375 38.59375 57.421875 C 38.710938 57.53125 38.851563 57.609375 38.992188 57.6875 C 39.070313 57.734375 39.140625 57.804688 39.226563 57.84375 C 39.46875 57.945313 39.726563 58 40 58 L 40.054688 58 C 40.1875 57.992188 40.304688 57.945313 40.429688 57.914063 C 40.554688 57.882813 40.6875 57.875 40.804688 57.828125 C 40.921875 57.773438 41.007813 57.6875 41.117188 57.617188 C 41.21875 57.546875 41.335938 57.484375 41.429688 57.390625 C 41.515625 57.296875 41.570313 57.1875 41.640625 57.078125 C 41.710938 56.96875 41.796875 56.875 41.84375 56.75 C 41.898438 56.625 41.90625 56.484375 41.929688 56.34375 C 41.953125 56.226563 42 56.125 42 56 L 42 24.570313 C 42 23.15625 43.15625 22 44.570313 22 C 45.96875 22 47.101563 23.09375 47.148438 24.492188 L 48 56.0625 C 48.007813 56.203125 48.0625 56.320313 48.09375 56.445313 C 48.117188 56.5625 48.125 56.6875 48.171875 56.804688 C 48.226563 56.929688 48.328125 57.03125 48.40625 57.148438 C 48.46875 57.242188 48.523438 57.34375 48.601563 57.429688 C 48.710938 57.539063 48.851563 57.609375 48.984375 57.6875 C 49.070313 57.734375 49.140625 57.8125 49.226563 57.84375 C 49.46875 57.945313 49.726563 58 50 58 C 50.023438 58 50.046875 58 50.0625 58 C 50.1875 57.992188 50.289063 57.945313 50.398438 57.921875 C 50.539063 57.890625 50.679688 57.882813 50.8125 57.820313 C 50.921875 57.773438 51.007813 57.6875 51.109375 57.625 C 51.21875 57.546875 51.335938 57.484375 51.4375 57.382813 C 51.515625 57.296875 51.570313 57.195313 51.632813 57.09375 C 51.710938 56.976563 51.796875 56.875 51.851563 56.75 C 51.898438 56.632813 51.898438 56.507813 51.929688 56.382813 C 51.953125 56.25 52 56.132813 52 56 L 52 34.117188 C 52 32.953125 52.953125 32 54.117188 32 C 55.234375 32 56.15625 32.875 56.21875 33.992188 C 56.492188 38.90625 56.96875 54.320313 57.367188 62.492188 C 52.78125 61.273438 47.695313 62.453125 44.101563 66.054688 C 38.726563 71.421875 38.726563 80.140625 44.101563 85.515625 L 53.203125 94.617188 C 50.5 98.171875 46.742188 100 42 100 L 29.898438 100 C 29.828125 99.992188 22.710938 100.296875 16.164063 93.867188 C 9.1875 87 7.398438 78.046875 6.53125 73.742188 C 6.09375 71.546875 5.882813 69.351563 5.671875 67.226563 C 5.414063 64.578125 5.1875 62.289063 4.570313 60.445313 C 3.828125 58.226563 3.914063 56.960938 4.234375 56.507813 C 4.5 56.140625 5.25 56.085938 5.671875 56.085938 C 5.804688 56.085938 8.96875 56.148438 11.421875 61.960938 C 11.898438 63.078125 12.328125 64.4375 12.796875 65.875 C 14.84375 72.296875 17.953125 82 30 82 C 31.109375 82 32 81.109375 32 80 C 32 78.890625 31.109375 78 30 78 C 23.867188 78 20.882813 74.9375 18.9375 70.9375 C 18.960938 70.835938 19.007813 70.75 19.015625 70.648438 L 20.789063 24.484375 C 20.859375 23.09375 22 22 23.398438 22 C 24.835938 22 26 23.164063 26 24.601563 L 26 56 C 26 56.125 26.046875 56.226563 26.070313 56.34375 C 26.09375 56.484375 26.101563 56.625 26.15625 56.75 C 26.203125 56.875 26.289063 56.96875 26.359375 57.078125 C 26.429688 57.1875 26.476563 57.296875 26.570313 57.390625 C 26.664063 57.484375 26.773438 57.546875 26.882813 57.617188 C 26.984375 57.6875 27.078125 57.773438 27.195313 57.828125 C 27.3125 57.875 27.445313 57.882813 27.570313 57.914063 C 27.695313 57.945313 27.8125 57.992188 27.945313 58 C 27.953125 58 27.960938 57.992188 27.96875 57.992188 C 27.984375 57.992188 27.992188 58 28 58 C 29.007813 58 29.804688 57.25 29.945313 56.28125 C 29.960938 56.203125 30 56.132813 30 56.054688 L 30.867188 19.046875 C 30.90625 17.34375 32.289063 16 34 16 Z M 94.0625 16 C 95.773438 16 97.15625 17.34375 97.195313 19.046875 L 98.0625 56.054688 C 98.070313 56.203125 98.117188 56.335938 98.15625 56.46875 C 98.179688 56.578125 98.1875 56.695313 98.226563 56.796875 C 98.289063 56.929688 98.382813 57.03125 98.46875 57.148438 C 98.53125 57.242188 98.585938 57.34375 98.65625 57.421875 C 98.773438 57.53125 98.914063 57.609375 99.054688 57.6875 C 99.132813 57.734375 99.203125 57.804688 99.289063 57.84375 C 99.53125 57.945313 99.789063 58 100.0625 58 L 100.117188 58 C 100.25 57.992188 100.359375 57.945313 100.492188 57.914063 C 100.617188 57.882813 100.75 57.875 100.867188 57.828125 C 100.984375 57.773438 101.070313 57.6875 101.179688 57.617188 C 101.28125 57.546875 101.398438 57.484375 101.492188 57.390625 C 101.578125 57.296875 101.632813 57.1875 101.703125 57.078125 C 101.773438 56.96875 101.859375 56.875 101.90625 56.75 C 101.960938 56.625 101.96875 56.484375 101.992188 56.34375 C 102.015625 56.234375 102.0625 56.125 102.0625 56 L 102.0625 24.601563 C 102.0625 23.164063 103.226563 22 104.664063 22 C 106.0625 22 107.203125 23.085938 107.273438 24.476563 L 109.054688 70.648438 C 109.0625 70.75 109.101563 70.835938 109.125 70.9375 C 107.1875 74.9375 104.195313 78 98.0625 78 C 96.953125 78 96.0625 78.890625 96.0625 80 C 96.0625 81.109375 96.953125 82 98.0625 82 C 110.109375 82 113.210938 72.304688 115.273438 65.882813 C 115.726563 64.445313 116.164063 63.085938 116.640625 61.96875 C 119.101563 56.148438 122.257813 56.085938 122.382813 56.085938 C 122.8125 56.085938 123.5625 56.140625 123.828125 56.507813 C 124.148438 56.960938 124.226563 58.234375 123.492188 60.453125 C 122.875 62.289063 122.648438 64.578125 122.390625 67.21875 C 122.179688 69.351563 121.96875 71.546875 121.53125 73.742188 C 120.664063 78.046875 118.875 87 111.898438 93.867188 C 105.414063 100.234375 98.453125 100.03125 98.0625 100 L 86.0625 100 C 81.328125 100 77.570313 98.179688 74.867188 94.625 L 84 85.492188 C 89.375 80.117188 89.375 71.40625 84 66.03125 C 80.390625 62.421875 75.28125 61.25 70.6875 62.484375 C 71.070313 54.3125 71.53125 38.914063 71.789063 34 C 71.851563 32.875 72.773438 32 73.898438 32 C 75.0625 32 76.007813 32.945313 76.015625 34.101563 L 76.0625 56.007813 C 76.0625 56.140625 76.109375 56.257813 76.132813 56.375 C 76.164063 56.5 76.171875 56.632813 76.21875 56.75 C 76.265625 56.867188 76.351563 56.976563 76.429688 57.085938 C 76.492188 57.1875 76.539063 57.296875 76.625 57.382813 C 76.71875 57.484375 76.84375 57.546875 76.945313 57.617188 C 77.054688 57.6875 77.140625 57.773438 77.25 57.820313 C 77.382813 57.882813 77.523438 57.890625 77.664063 57.921875 C 77.773438 57.945313 77.875 57.992188 77.992188 58 C 78.015625 58 78.039063 58 78.0625 58 C 78.101563 58 78.132813 57.984375 78.164063 57.976563 C 78.398438 57.96875 78.632813 57.929688 78.835938 57.84375 C 78.921875 57.804688 78.984375 57.742188 79.0625 57.6875 C 79.203125 57.609375 79.351563 57.53125 79.46875 57.421875 C 79.539063 57.34375 79.585938 57.242188 79.65625 57.15625 C 79.734375 57.039063 79.835938 56.929688 79.890625 56.796875 C 79.9375 56.6875 79.945313 56.5625 79.96875 56.4375 C 80 56.3125 80.054688 56.195313 80.0625 56.0625 L 80.914063 24.492188 C 80.960938 23.09375 82.09375 22 83.492188 22 C 84.90625 22 86.0625 23.15625 86.0625 24.570313 L 86.0625 56 C 86.0625 56.125 86.109375 56.226563 86.132813 56.34375 C 86.15625 56.484375 86.164063 56.625 86.21875 56.75 C 86.265625 56.875 86.351563 56.96875 86.421875 57.078125 C 86.492188 57.1875 86.539063 57.296875 86.632813 57.390625 C 86.726563 57.484375 86.835938 57.546875 86.945313 57.617188 C 87.046875 57.6875 87.140625 57.773438 87.257813 57.828125 C 87.375 57.875 87.507813 57.882813 87.632813 57.914063 C 87.757813 57.945313 87.875 57.992188 88.007813 58 L 88.0625 58 C 88.335938 58 88.601563 57.945313 88.835938 57.84375 C 88.929688 57.804688 88.992188 57.734375 89.070313 57.6875 C 89.210938 57.609375 89.351563 57.53125 89.46875 57.421875 C 89.546875 57.34375 89.585938 57.242188 89.65625 57.148438 C 89.734375 57.03125 89.835938 56.929688 89.890625 56.796875 C 89.9375 56.695313 89.9375 56.578125 89.96875 56.46875 C 90 56.335938 90.054688 56.203125 90.0625 56.054688 L 90.929688 19.054688 C 90.96875 17.34375 92.351563 16 94.0625 16 Z M 53.9375 66.148438 C 56.375 66.148438 58.8125 67.054688 60.695313 68.875 L 61.179688 69.351563 L 60.359375 70.171875 C 59.523438 70.890625 59.421875 72.15625 60.140625 72.992188 C 60.859375 73.828125 62.125 73.929688 62.960938 73.210938 C 63.039063 73.140625 63.117188 73.070313 63.179688 72.992188 L 63.976563 72.1875 L 67.28125 68.890625 C 71.164063 65.15625 77.34375 65.28125 81.078125 69.164063 C 84.710938 72.945313 84.710938 78.914063 81.078125 82.695313 L 81.140625 82.679688 L 64 99.78125 L 46.898438 82.679688 C 43.164063 78.789063 43.289063 72.609375 47.179688 68.875 C 49.0625 67.054688 51.5 66.148438 53.9375 66.148438 Z M 20 108 C 18.898438 108 18 108.898438 18 110 L 18 114 C 18 115.101563 18.898438 116 20 116 C 21.101563 116 22 115.101563 22 114 L 22 110 C 22 108.898438 21.101563 108 20 108 Z M 30 108 C 28.898438 108 28 108.898438 28 110 L 28 114 C 28 115.101563 28.898438 116 30 116 C 31.101563 116 32 115.101563 32 114 L 32 110 C 32 108.898438 31.101563 108 30 108 Z M 40 108 C 38.898438 108 38 108.898438 38 110 L 38 114 C 38 115.101563 38.898438 116 40 116 C 41.101563 116 42 115.101563 42 114 L 42 110 C 42 108.898438 41.101563 108 40 108 Z M 50 108 C 48.898438 108 48 108.898438 48 110 L 48 114 C 48 115.101563 48.898438 116 50 116 C 51.101563 116 52 115.101563 52 114 L 52 110 C 52 108.898438 51.101563 108 50 108 Z M 78 108 C 76.898438 108 76 108.898438 76 110 L 76 114 C 76 115.101563 76.898438 116 78 116 C 79.101563 116 80 115.101563 80 114 L 80 110 C 80 108.898438 79.101563 108 78 108 Z M 88 108 C 86.898438 108 86 108.898438 86 110 L 86 114 C 86 115.101563 86.898438 116 88 116 C 89.101563 116 90 115.101563 90 114 L 90 110 C 90 108.898438 89.101563 108 88 108 Z M 98 108 C 96.898438 108 96 108.898438 96 110 L 96 114 C 96 115.101563 96.898438 116 98 116 C 99.101563 116 100 115.101563 100 114 L 100 110 C 100 108.898438 99.101563 108 98 108 Z M 108 108 C 106.898438 108 106 108.898438 106 110 L 106 114 C 106 115.101563 106.898438 116 108 116 C 109.101563 116 110 115.101563 110 114 L 110 110 C 110 108.898438 109.101563 108 108 108 Z "/>
</g>
</svg>
