<?xml version="1.0" standalone="no"?>
<!DOCTYPE svg PUBLIC "-//W3C//DTD SVG 20010904//EN"
 "http://www.w3.org/TR/2001/REC-SVG-20010904/DTD/svg10.dtd">
<svg version="1.0" xmlns="http://www.w3.org/2000/svg"
 width="800.000000pt" height="800.000000pt" viewBox="0 0 800.000000 800.000000"
 preserveAspectRatio="xMidYMid meet">
<metadata>
Created by potrace 1.11, written by Peter Selinger 2001-2013
</metadata>
<g transform="translate(0.000000,800.000000) scale(0.100000,-0.100000)"
fill="#000000" stroke="none">
<path d="M5214 6616 c-4 -11 -12 -12 -27 -7 -27 10 -49 3 -40 -12 3 -7 -3 -3
-15 7 -14 12 -22 14 -22 7 0 -7 -5 -9 -10 -6 -6 4 -18 1 -27 -7 -9 -7 -14 -8
-10 -2 4 7 -2 14 -13 17 -11 3 -18 1 -14 -4 3 -5 -2 -9 -11 -9 -10 0 -14 5 -9
13 5 9 4 9 -6 0 -9 -9 -19 -9 -33 -2 -14 8 -18 8 -13 0 10 -15 -7 -14 -22 1
-9 9 -12 9 -12 -2 0 -11 -3 -11 -12 -2 -7 7 -17 8 -30 1 -10 -5 -18 -7 -18 -3
0 3 -8 0 -17 -7 -10 -8 -14 -9 -10 -2 5 8 -2 11 -22 11 -17 -1 -28 -5 -25 -9
3 -5 -2 -6 -10 -3 -9 3 -14 9 -11 13 2 4 -2 8 -10 8 -8 0 -11 -5 -8 -10 3 -5
0 -7 -8 -5 -8 3 -22 1 -31 -3 -10 -6 -19 -5 -23 1 -5 8 -11 8 -20 0 -9 -8 -15
-8 -20 0 -3 5 -11 10 -16 10 -6 0 -7 -5 -3 -12 5 -7 3 -8 -6 -3 -18 11 -60 15
-60 5 0 -13 -31 -5 -41 11 -7 11 -9 10 -9 -5 0 -15 -3 -17 -11 -9 -7 7 -21 8
-40 3 -18 -5 -31 -5 -35 2 -4 6 -10 5 -15 -3 -6 -10 -9 -10 -9 -2 0 9 -7 10
-23 4 -13 -5 -30 -5 -37 -1 -8 5 -22 4 -32 -1 -13 -7 -18 -6 -18 2 0 9 -3 9
-14 0 -10 -8 -16 -9 -21 -1 -4 7 -12 7 -26 0 -14 -8 -19 -7 -19 2 0 9 -3 9
-10 -2 -9 -13 -11 -13 -20 0 -6 10 -10 11 -10 3 0 -9 -7 -10 -25 -3 -16 6 -26
6 -31 -1 -4 -8 -9 -7 -15 2 -5 8 -9 9 -9 4 0 -6 -13 -11 -30 -11 -20 -1 -27 2
-23 10 4 7 1 6 -8 -1 -12 -10 -18 -10 -29 0 -10 9 -11 9 -6 0 5 -8 1 -13 -9
-13 -10 0 -13 5 -9 13 6 9 5 9 -7 0 -12 -10 -18 -10 -28 0 -10 9 -11 8 -5 -8
6 -16 5 -18 -7 -7 -16 15 -33 16 -23 0 4 -7 3 -8 -5 -4 -19 12 -72 16 -66 6 4
-6 -4 -6 -20 0 -17 7 -24 7 -20 0 11 -17 -7 -11 -21 8 -13 16 -14 16 -7 -3 6
-20 6 -20 -16 -1 -15 14 -20 15 -16 5 4 -12 -3 -15 -32 -14 -21 0 -41 5 -45
10 -5 6 -8 5 -8 -2 0 -7 -4 -13 -10 -13 -5 0 -8 6 -6 13 1 6 1 9 -1 4 -3 -4
-10 -4 -15 -1 -6 4 -8 2 -5 -3 4 -6 0 -14 -9 -17 -8 -3 -13 -2 -10 3 3 5 -1
12 -10 15 -8 3 -13 2 -10 -3 7 -11 -14 -20 -32 -14 -6 3 -9 10 -6 15 4 7 2 8
-4 4 -21 -13 -51 -15 -58 -5 -4 6 -14 3 -27 -8 -11 -10 -17 -12 -13 -5 8 13
-6 17 -18 5 -3 -4 -16 -7 -27 -8 -14 -1 -18 3 -14 13 4 12 3 13 -9 3 -8 -7
-21 -9 -27 -5 -8 4 -9 3 -5 -4 4 -7 2 -12 -3 -12 -6 0 -11 5 -11 11 0 8 -5 7
-15 -1 -13 -11 -18 -10 -29 5 -10 14 -15 15 -21 5 -6 -9 -4 -11 6 -5 12 7 12
6 0 -6 -11 -11 -14 -11 -18 -1 -4 10 -8 10 -19 1 -11 -9 -14 -9 -14 0 0 8 -5
9 -18 2 -13 -7 -23 -6 -30 1 -9 9 -17 7 -32 -7 -15 -13 -19 -14 -15 -4 4 10
-2 15 -17 16 -17 2 -19 0 -8 -7 10 -6 5 -9 -18 -8 -17 1 -29 5 -25 11 3 5 -5
4 -17 -3 -18 -10 -24 -9 -31 1 -7 11 -9 11 -9 -1 0 -13 -1 -13 -10 0 -9 13
-14 7 -11 -12 0 -4 -6 -5 -14 -2 -8 4 -12 11 -8 18 5 7 2 7 -8 -1 -8 -7 -28
-10 -43 -7 -17 3 -25 1 -21 -6 3 -6 0 -7 -9 -4 -9 3 -13 10 -10 15 3 5 -2 6
-10 3 -9 -3 -13 -11 -9 -18 3 -6 1 -6 -8 2 -7 6 -17 12 -22 12 -4 0 -5 -6 -1
-12 6 -10 4 -10 -7 0 -7 6 -17 12 -22 12 -4 0 -5 -6 -1 -12 6 -10 4 -10 -7 0
-16 15 -33 16 -23 1 5 -8 1 -8 -13 0 -14 7 -24 7 -33 -2 -9 -8 -11 -8 -7 -1 7
12 -21 29 -31 19 -3 -3 0 -5 6 -5 7 0 12 -4 12 -10 0 -5 -6 -7 -12 -5 -27 10
-88 12 -88 3 0 -5 -5 -6 -12 -2 -17 11 -78 10 -78 -1 0 -5 -5 -3 -10 5 -5 8
-10 10 -10 5 0 -6 -15 -10 -32 -10 -26 0 -32 -4 -30 -17 2 -10 -2 -18 -8 -18
-6 0 -9 -4 -5 -9 3 -6 -4 -15 -15 -21 -11 -6 -20 -15 -20 -21 0 -6 -7 -18 -16
-27 -11 -10 -13 -17 -6 -20 6 -2 0 -14 -14 -27 -17 -16 -21 -25 -12 -28 10 -4
10 -6 1 -6 -13 -1 -49 -60 -45 -73 1 -5 -5 -8 -13 -8 -8 0 -15 -5 -15 -11 0
-5 4 -7 10 -4 6 3 7 -1 4 -9 -3 -9 -10 -13 -15 -10 -5 3 -9 -2 -9 -10 0 -9 -5
-16 -11 -16 -8 0 -7 -5 1 -15 11 -13 10 -14 -4 -9 -15 6 -21 -5 -17 -30 1 -5
-5 -6 -13 -3 -11 4 -13 1 -9 -10 4 -10 2 -14 -4 -10 -7 5 -9 0 -6 -13 3 -12
-1 -22 -11 -26 -9 -3 -16 -12 -16 -20 0 -8 -5 -14 -11 -14 -5 0 -7 -4 -4 -10
3 -5 1 -10 -5 -10 -6 0 -8 -4 -5 -10 3 -5 2 -10 -3 -10 -6 0 -13 -11 -16 -25
-4 -15 -14 -25 -24 -25 -15 0 -15 -2 -2 -10 8 -5 10 -10 4 -10 -7 0 -14 -9
-17 -21 -4 -14 -10 -18 -18 -13 -7 4 -3 -9 9 -30 12 -20 16 -34 10 -31 -7 4
-6 1 2 -7 21 -18 47 -53 34 -45 -6 3 -11 0 -11 -7 0 -8 7 -12 15 -8 10 3 13 1
8 -6 -4 -7 -2 -12 5 -12 7 0 10 -3 6 -6 -3 -3 3 -15 13 -26 10 -11 16 -27 13
-36 -4 -10 -2 -13 5 -8 11 6 17 -5 13 -26 0 -5 4 -8 10 -8 6 0 9 -7 6 -14 -4
-10 -1 -13 9 -9 9 3 14 -2 14 -16 0 -12 5 -21 11 -21 5 0 8 -4 4 -9 -3 -5 2
-16 10 -24 8 -9 15 -20 15 -26 0 -6 5 -11 11 -11 5 0 7 -4 4 -10 -3 -5 -1 -10
6 -10 7 0 10 -3 6 -6 -3 -4 1 -13 9 -21 8 -9 12 -23 9 -31 -3 -9 -3 -13 1 -9
11 10 34 -13 34 -34 0 -11 5 -19 11 -19 5 0 7 -4 4 -10 -3 -5 -1 -10 5 -10 6
0 8 -4 5 -10 -3 -5 -1 -10 5 -10 6 0 8 -4 5 -10 -3 -5 1 -10 9 -10 9 0 16 -5
16 -11 0 -5 -5 -7 -11 -4 -6 4 -6 -1 2 -12 15 -24 29 -24 52 -1 11 12 13 18 5
18 -7 0 -5 5 5 11 9 6 15 14 12 20 -4 5 1 12 10 15 9 4 14 13 11 20 -3 7 0 16
6 20 7 5 8 2 3 -6 -5 -9 -4 -11 3 -6 7 4 12 16 12 26 0 10 8 25 18 32 9 7 17
20 17 28 0 8 5 14 12 13 7 -2 10 4 7 12 -4 8 -1 15 6 15 6 0 8 5 5 10 -3 6 -1
10 5 10 7 0 9 7 6 16 -3 8 -2 13 3 10 9 -6 26 22 23 37 -1 4 2 7 7 7 5 0 13 9
16 20 4 12 16 30 28 42 12 11 15 18 7 14 -10 -5 -9 -3 2 7 13 10 14 17 6 25
-9 9 -6 11 9 8 12 -3 20 1 20 9 0 8 -5 11 -11 8 -6 -3 1 7 17 24 15 16 24 32
20 36 -3 4 -1 7 6 7 7 0 9 5 5 12 -5 8 -2 9 11 4 14 -5 15 -3 7 6 -7 9 -6 16
3 25 7 6 15 10 18 7 3 -3 4 2 4 12 -1 10 12 26 32 38 19 11 31 15 27 8 -9 -15
-5 -15 28 -2 19 7 26 6 26 -3 0 -8 4 -7 10 3 9 13 10 13 10 0 0 -13 1 -13 10
0 9 13 10 13 10 0 0 -13 1 -13 10 0 9 13 10 13 10 0 0 -13 1 -13 10 0 9 13 10
13 10 0 0 -13 1 -13 10 0 9 13 10 13 10 0 0 -13 1 -13 10 0 9 13 10 13 10 0 0
-12 2 -13 9 -1 7 11 10 11 15 0 5 -11 7 -11 12 -2 4 9 11 10 24 3 13 -7 21 -7
26 1 4 8 9 7 15 -2 6 -10 9 -10 9 -2 0 9 7 10 25 3 16 -6 25 -6 25 1 0 6 7 6
19 -1 14 -7 22 -7 27 1 4 8 9 7 15 -2 6 -10 9 -10 9 -2 0 9 7 10 25 3 16 -6
25 -6 25 1 0 6 6 6 18 0 11 -6 24 -6 37 1 14 8 20 8 23 -1 3 -9 10 -8 28 4 21
13 23 13 18 0 -5 -13 -2 -14 22 -5 21 8 30 8 32 0 3 -7 9 -7 20 2 12 11 16 11
20 0 3 -10 7 -10 20 0 13 11 14 11 7 -2 -8 -13 -7 -13 8 -1 11 8 17 9 17 3 0
-6 7 -9 15 -6 8 4 12 11 8 17 -4 6 -1 7 8 1 8 -5 17 -9 22 -10 4 -1 8 -2 10
-4 9 -7 38 -7 43 1 3 5 10 9 15 9 6 0 7 -5 3 -11 -4 -8 -1 -8 12 -1 23 12 32
12 61 1 13 -5 25 -4 28 1 4 6 11 10 16 10 6 0 7 -5 3 -11 -4 -7 1 -7 15 1 16
8 26 8 35 1 7 -6 16 -8 20 -4 4 4 19 9 34 10 21 3 24 1 12 -7 -8 -5 -10 -10
-4 -10 6 0 14 3 18 8 11 10 95 12 101 2 3 -5 12 -7 20 -4 8 4 12 10 9 15 -3 5
2 6 10 3 9 -3 13 -11 9 -17 -4 -6 -1 -7 8 -1 19 12 97 15 104 4 3 -5 12 -7 20
-4 8 4 12 10 9 15 -3 5 2 6 10 3 9 -3 13 -11 9 -17 -4 -6 -1 -7 8 -1 19 12 97
15 104 4 3 -5 12 -7 20 -4 8 4 12 10 9 15 -3 5 2 6 10 3 9 -3 13 -10 10 -15
-3 -5 2 -6 10 -3 9 3 13 11 10 16 -4 6 3 5 15 -1 16 -9 21 -9 21 1 0 6 7 3 16
-8 8 -10 12 -13 8 -5 -5 11 -2 13 15 8 19 -5 21 -3 9 11 -7 9 1 6 16 -8 21
-18 27 -20 23 -8 -5 14 -1 15 24 8 20 -6 29 -5 29 3 0 7 4 6 10 -3 7 -11 10
-11 10 -2 0 9 5 10 15 5 22 -13 86 -4 79 11 -3 6 1 3 9 -6 14 -18 33 -25 23
-10 -3 5 1 9 9 9 8 0 12 -4 9 -9 -7 -11 7 -10 25 1 9 6 22 6 34 -1 14 -7 22
-7 27 2 5 8 10 9 14 2 3 -6 16 -8 28 -4 14 3 19 1 14 -6 -5 -8 -2 -10 8 -6 9
3 13 11 9 18 -4 6 5 3 20 -7 27 -17 28 -17 37 5 5 13 9 18 9 12 1 -7 8 -15 17
-18 8 -3 13 -2 10 2 -3 5 5 7 17 6 12 -1 22 -3 22 -4 0 -2 12 -3 28 -4 15 -1
27 1 27 5 0 13 29 18 36 7 4 -6 3 -8 -4 -4 -6 3 -13 2 -16 -3 -4 -5 -2 -12 3
-15 5 -4 12 -2 16 4 3 5 17 10 31 10 17 0 23 4 18 12 -5 7 -3 8 5 4 7 -5 10
-15 7 -23 -3 -8 -1 -11 4 -8 6 3 10 13 10 21 0 14 2 13 16 0 14 -15 17 -15 31
0 14 14 17 14 31 0 14 -14 17 -13 27 1 10 13 14 13 20 3 6 -9 4 -11 -6 -5 -12
8 -12 6 0 -8 16 -20 35 -12 26 11 -5 13 -2 12 15 -3 19 -17 20 -17 20 0 0 14
3 14 20 -6 11 -13 19 -18 18 -10 -2 7 3 16 11 19 8 2 11 0 7 -6 -9 -15 27 -9
42 8 9 10 11 11 6 1 -4 -9 -2 -12 7 -9 8 3 23 1 34 -5 19 -10 19 -9 5 9 -15
18 -14 18 14 0 28 -18 29 -18 22 0 -6 15 -5 17 5 7 16 -16 33 -17 23 -1 -4 7
8 1 27 -12 19 -13 28 -17 21 -8 -8 10 -9 19 -3 22 5 3 11 0 14 -6 3 -10 9 -10
27 0 12 8 19 9 16 4 -10 -17 23 -22 39 -6 13 14 15 14 16 -3 0 -11 3 -13 6 -5
4 10 8 10 21 0 16 -12 16 -11 1 7 -9 11 -14 26 -12 33 3 7 -5 21 -17 32 -13
11 -19 24 -14 31 4 8 3 9 -4 5 -8 -5 -12 0 -12 13 0 12 -5 21 -11 21 -6 0 -8
7 -5 16 3 8 2 12 -4 9 -6 -3 -10 -1 -10 5 0 6 -5 8 -12 4 -8 -5 -7 0 2 11 9
11 10 16 3 11 -8 -4 -13 -1 -13 8 0 9 -5 16 -11 16 -8 0 -7 5 1 15 11 13 10
14 -1 10 -10 -4 -24 13 -44 54 -17 32 -33 57 -36 55 -4 -2 -10 3 -13 12 -3 8
-2 13 3 10 5 -4 4 5 -2 18 -7 14 -15 20 -18 14 -3 -5 -9 0 -12 11 -3 14 -1 19
6 14 7 -4 6 1 -2 10 -7 9 -17 14 -22 11 -5 -3 -6 2 -3 10 3 9 1 16 -6 16 -6 0
-8 5 -5 10 3 6 2 10 -4 10 -5 0 -15 16 -21 35 -6 19 -15 33 -19 30 -5 -2 -13
7 -20 21 -7 17 -8 23 0 19 6 -4 5 2 -2 13 -7 12 -17 18 -21 16 -4 -3 -8 2 -8
10 0 9 -7 16 -16 16 -8 0 -12 4 -9 10 3 6 -1 7 -9 4 -9 -3 -14 -9 -11 -13 7
-12 -29 -9 -37 3 -5 8 -8 8 -8 0 0 -11 -71 -11 -89 1 -6 3 -11 1 -11 -5 0 -6
-5 -8 -10 -5 -6 4 -8 11 -5 16 4 5 4 9 0 9 -3 0 -8 -6 -11 -14z m-124 -650 c0
-2 -7 -7 -16 -10 -8 -3 -12 -2 -9 4 6 10 25 14 25 6z"/>
<path d="M5306 6618 c3 -5 10 -6 15 -3 13 9 11 12 -6 12 -8 0 -12 -4 -9 -9z"/>
<path d="M5275 5950 c-3 -5 -1 -10 4 -10 6 0 11 5 11 10 0 6 -2 10 -4 10 -3 0
-8 -4 -11 -10z"/>
<path d="M2985 5595 c-11 -11 -19 -25 -17 -31 1 -6 -8 -16 -20 -23 -15 -8 -17
-10 -4 -6 16 5 17 3 6 -10 -7 -8 -17 -12 -24 -8 -7 4 -7 2 1 -8 10 -12 9 -18
-7 -29 -10 -7 -16 -18 -13 -23 3 -5 2 -12 -3 -16 -17 -12 -35 -52 -28 -63 4
-7 3 -8 -4 -4 -8 4 -12 0 -12 -11 -1 -22 -24 -55 -33 -46 -4 3 -5 -4 -2 -16 2
-13 -4 -29 -16 -40 -11 -10 -21 -28 -22 -40 -1 -11 -5 -21 -9 -21 -4 0 -8 -5
-8 -11 0 -7 -8 -18 -17 -26 -10 -8 -12 -12 -5 -8 6 3 12 2 12 -3 0 -6 -7 -13
-16 -16 -9 -3 -14 -12 -11 -20 3 -7 -3 -19 -14 -26 -13 -10 -15 -17 -8 -26 7
-8 6 -15 -2 -20 -8 -5 -9 -3 -4 6 5 9 4 11 -3 6 -7 -4 -12 -14 -12 -22 0 -8
-4 -12 -10 -9 -6 3 -7 -1 -4 -9 3 -9 1 -16 -6 -16 -6 0 -8 -4 -5 -10 7 -12
-19 -52 -28 -45 -4 3 -5 2 -2 -2 3 -3 -1 -13 -8 -21 -8 -10 -8 -13 -1 -9 7 4
15 0 18 -9 4 -10 2 -13 -7 -8 -6 4 -4 -2 6 -14 11 -12 16 -26 11 -33 -4 -7 -3
-10 4 -5 6 3 13 2 17 -4 3 -5 0 -10 -7 -10 -7 -1 -3 -6 10 -13 12 -7 19 -16
16 -20 -4 -4 -2 -7 5 -7 7 0 10 -4 6 -9 -3 -5 2 -16 10 -24 8 -9 15 -21 15
-27 0 -6 5 -8 12 -4 8 5 9 2 5 -10 -4 -10 1 -24 11 -34 9 -9 16 -25 14 -35 -2
-10 3 -17 12 -17 8 0 18 -9 21 -20 3 -11 10 -20 14 -20 4 0 8 -7 9 -15 1 -8 3
-22 4 -30 1 -8 5 -12 10 -9 8 5 12 -9 9 -34 -1 -7 2 -11 8 -10 5 2 9 -1 9 -5
1 -5 8 -14 17 -21 9 -6 17 -22 18 -34 1 -14 6 -21 14 -18 7 3 12 2 12 -2 -1
-4 0 -9 1 -12 1 -3 3 -14 5 -24 2 -11 11 -23 19 -28 9 -5 16 -18 16 -28 0 -11
5 -20 11 -20 5 0 7 -4 4 -10 -3 -5 2 -10 12 -10 15 0 16 -2 3 -10 -10 -6 -11
-10 -2 -10 6 0 12 -6 12 -14 0 -8 7 -16 15 -20 8 -3 12 -12 9 -21 -4 -9 -1
-15 9 -15 10 0 14 -7 10 -22 -4 -17 -2 -20 5 -9 8 11 11 9 14 -10 2 -13 9 -23
15 -22 6 1 9 -6 6 -17 -3 -12 0 -20 6 -20 7 0 10 -4 7 -9 -3 -5 1 -12 10 -15
9 -4 14 -13 10 -22 -4 -10 -2 -13 6 -8 8 5 9 2 5 -9 -4 -10 -2 -16 5 -14 7 1
13 -2 14 -8 5 -28 17 -55 25 -55 5 0 9 -6 9 -14 0 -8 7 -17 16 -20 9 -3 14
-13 10 -21 -3 -8 2 -18 10 -23 13 -7 20 -24 23 -55 1 -5 6 -5 11 -2 9 5 15
-16 11 -38 -1 -5 3 -6 9 -2 5 3 10 1 10 -4 0 -22 2 -26 16 -34 8 -5 12 -12 9
-18 -4 -5 -1 -9 4 -9 6 0 11 -7 11 -15 0 -8 5 -15 11 -15 5 0 8 -4 4 -9 -3 -5
2 -16 10 -24 8 -9 15 -19 15 -23 0 -4 8 -13 18 -21 9 -8 11 -12 5 -8 -9 4 -11
1 -7 -9 3 -9 10 -13 15 -10 5 3 9 -4 9 -15 0 -12 5 -21 11 -21 5 0 7 -5 4 -10
-3 -6 1 -13 9 -16 9 -3 13 -10 10 -15 -3 -5 -1 -9 4 -9 9 0 25 -37 23 -52 -1
-5 4 -8 10 -8 5 0 7 -5 3 -12 -5 -7 -2 -9 8 -6 11 5 14 0 13 -17 -2 -15 5 -27
21 -35 18 -10 21 -16 13 -27 -8 -9 -8 -13 0 -13 6 0 11 -7 11 -16 0 -8 5 -12
10 -9 6 3 10 -3 10 -14 0 -12 4 -21 10 -21 5 0 7 -7 4 -15 -5 -12 -2 -14 12
-8 17 6 18 5 4 -12 -9 -11 -10 -16 -2 -11 7 4 12 2 12 -4 0 -6 7 -18 16 -27 8
-9 13 -22 10 -30 -3 -8 -2 -12 2 -9 5 3 16 -8 26 -25 9 -16 14 -29 9 -29 -4 0
0 -5 10 -11 9 -6 15 -14 12 -20 -4 -5 -1 -9 4 -9 6 0 11 -7 11 -16 0 -9 5 -12
12 -8 6 4 8 3 4 -4 -3 -6 -1 -14 5 -17 5 -4 8 -13 5 -20 -3 -8 7 -25 20 -39
15 -15 23 -30 18 -37 -4 -7 -3 -9 3 -6 13 8 26 -20 16 -36 -3 -7 -3 -9 2 -5
11 10 38 -29 30 -42 -4 -6 1 -7 11 -3 11 4 15 2 11 -4 -4 -6 2 -18 12 -28 11
-9 18 -25 16 -36 -3 -12 2 -19 12 -19 9 0 13 -6 10 -14 -3 -8 -3 -16 1 -18 4
-2 14 -16 22 -32 8 -16 20 -27 25 -25 6 2 9 8 7 12 -1 4 5 10 13 13 8 4 15 12
15 20 0 7 10 23 23 35 12 12 15 18 7 14 -13 -8 -13 -7 0 11 8 10 20 22 25 26
6 4 6 8 2 8 -4 0 -2 6 5 14 7 8 16 12 20 9 4 -2 5 2 2 10 -3 8 0 18 5 22 6 3
9 11 6 16 -3 5 9 18 27 30 18 12 24 18 13 15 -19 -6 -18 -5 2 13 12 10 19 21
16 25 -4 3 -1 6 6 6 7 0 10 4 7 9 -3 5 1 11 9 15 8 3 15 12 15 20 0 9 9 20 19
26 12 6 18 18 17 34 -2 19 1 23 15 21 11 -2 16 1 13 9 -3 8 2 20 10 29 9 9 16
20 16 26 0 6 5 11 10 11 6 0 9 6 8 13 -2 6 2 11 8 10 6 -1 11 5 12 13 1 7 3
21 4 29 1 8 5 12 10 9 4 -3 8 0 8 6 0 6 6 8 13 4 6 -4 9 -4 5 1 -4 4 -2 15 5
23 9 13 9 14 0 8 -9 -5 -13 -1 -13 13 0 10 -4 21 -9 23 -5 2 -11 10 -13 18 -2
8 -11 23 -21 32 -10 9 -18 19 -18 22 2 19 -2 28 -26 57 -16 18 -21 30 -13 25
8 -4 7 -1 -4 8 -10 8 -15 20 -10 27 4 8 3 10 -4 5 -7 -4 -14 3 -18 19 -3 14
-11 25 -17 25 -6 0 -7 3 -4 7 4 3 -1 11 -10 18 -15 11 -22 30 -25 63 -1 7 -8
10 -15 8 -8 -3 -13 0 -12 7 3 26 -1 38 -13 31 -8 -5 -9 -2 -5 9 4 10 2 17 -4
17 -6 0 -8 8 -5 17 4 10 4 14 0 10 -12 -12 -34 14 -34 40 0 13 -4 22 -9 19
-11 -7 -23 22 -14 36 3 7 1 8 -5 4 -8 -5 -12 1 -12 14 0 12 -5 18 -10 15 -9
-6 -14 8 -11 28 0 4 -3 7 -9 7 -5 0 -10 7 -10 15 0 8 -6 15 -12 15 -9 0 -8 4
2 10 13 8 13 10 -2 10 -9 0 -20 5 -24 12 -5 7 -3 8 5 3 10 -5 9 -2 0 13 -7 12
-17 18 -23 15 -5 -3 -6 -1 -2 5 3 6 -1 17 -9 25 -8 9 -15 23 -15 31 0 9 -4 16
-10 16 -5 0 -10 9 -10 20 0 11 -4 20 -10 20 -5 0 -10 6 -10 14 0 8 -8 17 -17
20 -15 6 -15 8 -3 16 13 8 12 10 -2 10 -11 0 -18 8 -18 21 0 11 -4 17 -10 14
-6 -4 -10 5 -10 20 0 14 -4 24 -8 21 -4 -2 -14 5 -22 17 -11 19 -11 21 1 12 8
-5 8 -3 -1 5 -9 9 -16 23 -14 33 1 9 -3 15 -9 14 -7 -1 -11 4 -10 11 2 6 -1
12 -7 12 -5 0 -19 23 -32 50 -13 28 -26 50 -30 50 -5 0 -8 9 -8 21 0 11 -4 18
-9 15 -5 -3 -12 1 -15 10 -3 8 -2 13 2 10 5 -3 9 1 9 9 0 8 -3 14 -6 13 -22
-2 -30 4 -24 19 4 11 3 14 -5 9 -8 -5 -12 0 -12 13 0 12 -4 21 -9 21 -5 0 -11
13 -14 30 -5 21 -11 28 -22 24 -11 -4 -13 -2 -10 9 4 8 -1 21 -9 30 -8 8 -12
17 -9 21 4 3 1 6 -6 6 -7 0 -9 5 -6 10 3 6 1 10 -6 10 -7 0 -10 3 -6 6 3 3 -4
15 -15 26 -11 11 -17 26 -14 34 3 8 -1 14 -10 14 -8 0 -12 5 -9 10 3 6 1 10
-5 10 -6 0 -8 5 -5 10 3 6 1 10 -6 10 -7 0 -10 3 -6 6 3 4 -1 13 -9 21 -8 8
-12 18 -9 23 3 5 -4 11 -15 15 -19 6 -19 7 -2 30 9 13 20 18 23 13 4 -7 14 -6
28 1 13 8 21 8 21 2 0 -7 9 -7 24 -1 17 6 26 5 30 -3 3 -9 7 -8 15 3 9 13 12
13 20 1 5 -8 14 -10 22 -5 21 13 39 14 39 2 0 -6 7 -4 17 3 11 10 14 10 9 2
-4 -7 -2 -13 3 -13 6 0 11 5 11 10 0 7 6 7 19 1 10 -6 21 -7 25 -4 11 11 56
12 56 1 0 -6 6 -5 16 3 9 7 18 9 22 3 8 -11 32 -11 48 -2 6 4 14 4 18 1 9 -10
46 -11 40 -2 -2 4 5 7 16 6 11 -1 20 -5 20 -10 0 -5 7 -4 15 3 12 10 18 10 29
1 10 -8 16 -9 21 -1 4 7 12 7 26 -1 16 -8 25 -7 42 8 11 10 18 13 14 7 -4 -7
20 -10 73 -10 46 0 76 4 73 10 -3 5 -1 6 6 2 21 -14 63 -18 56 -5 -6 8 -2 8
13 0 14 -7 23 -8 27 -1 4 6 11 7 17 4 17 -11 78 -10 78 1 0 6 5 3 10 -5 9 -13
10 -13 10 0 1 11 4 10 15 -4 13 -17 15 -18 15 -3 0 23 20 22 21 0 0 -16 1 -16
7 -1 6 15 9 15 29 -2 12 -9 19 -21 15 -25 -4 -5 -1 -5 6 -1 9 5 15 1 19 -13 3
-12 10 -21 15 -21 6 0 5 -7 -2 -15 -11 -13 -10 -14 5 -9 13 5 16 4 11 -4 -4
-7 -2 -12 3 -12 6 0 11 -7 11 -15 0 -8 5 -15 11 -15 5 0 7 -4 4 -10 -3 -5 -1
-10 5 -10 6 0 8 -4 5 -10 -3 -5 -1 -10 4 -10 6 0 11 -7 11 -15 0 -8 4 -15 10
-15 5 0 7 -6 4 -14 -3 -7 2 -16 10 -19 9 -4 16 -13 16 -22 0 -8 5 -15 12 -15
6 0 8 -3 5 -7 -4 -3 1 -12 11 -20 10 -9 11 -12 2 -7 -10 5 -9 0 4 -14 11 -12
15 -22 11 -22 -4 0 1 -8 12 -17 11 -10 19 -26 17 -35 -1 -10 3 -16 9 -15 7 1
11 -4 9 -10 -1 -7 4 -13 10 -13 9 0 8 -4 -2 -10 -11 -7 -12 -10 -2 -10 7 0 20
-7 28 -15 10 -9 11 -15 4 -15 -7 0 -5 -7 4 -16 9 -8 14 -20 10 -25 -3 -5 0 -8
8 -7 7 2 12 -5 12 -14 -1 -10 3 -18 8 -18 6 0 8 -7 5 -14 -4 -11 -1 -13 10 -9
13 5 15 2 10 -16 -3 -13 -3 -21 0 -18 9 10 43 -27 34 -37 -9 -11 12 -40 21
-30 3 2 5 -3 6 -11 1 -8 3 -22 4 -30 1 -9 7 -14 16 -10 10 3 12 0 8 -10 -3 -8
-1 -15 4 -15 6 0 10 -6 10 -14 0 -7 7 -19 15 -26 8 -7 12 -16 9 -21 -3 -5 0
-9 6 -9 6 0 8 -5 5 -10 -3 -6 1 -13 9 -16 9 -3 16 -15 16 -26 0 -10 5 -16 10
-13 6 3 10 -3 10 -14 0 -12 5 -21 11 -21 5 0 8 -4 4 -9 -3 -5 2 -16 10 -25 10
-10 12 -17 4 -21 -6 -4 -8 -13 -5 -21 3 -8 1 -14 -5 -14 -6 0 -9 -7 -6 -14 4
-10 1 -13 -9 -9 -8 3 -14 2 -13 -3 4 -23 -2 -45 -11 -39 -5 3 -10 -1 -10 -10
0 -10 -5 -13 -12 -9 -10 6 -10 4 0 -8 10 -13 10 -17 -3 -22 -8 -3 -15 -12 -15
-21 0 -8 -5 -15 -11 -15 -5 0 -7 -4 -4 -10 3 -5 1 -10 -6 -10 -7 0 -10 -3 -6
-6 3 -3 -5 -18 -18 -32 -20 -21 -22 -29 -12 -41 7 -8 8 -12 2 -10 -5 3 -18 -2
-27 -13 -12 -12 -14 -18 -5 -18 9 0 8 -3 -2 -9 -7 -5 -11 -14 -7 -20 5 -7 1
-9 -9 -5 -9 4 -15 3 -14 -2 4 -21 -2 -45 -9 -40 -5 3 -14 -11 -21 -30 -7 -18
-17 -34 -23 -34 -5 0 -8 -7 -4 -15 3 -10 -1 -15 -12 -15 -15 0 -15 -2 -2 -10
13 -8 13 -10 -2 -10 -11 0 -15 -5 -12 -15 4 -8 -1 -17 -10 -21 -9 -3 -13 -10
-10 -15 3 -5 0 -9 -6 -9 -6 0 -8 -4 -5 -10 3 -5 1 -10 -5 -10 -7 0 -10 -6 -7
-14 4 -9 -3 -17 -16 -21 -13 -4 -17 -8 -10 -11 9 -4 7 -12 -7 -27 -11 -11 -20
-27 -20 -34 0 -7 -6 -13 -12 -13 -10 0 -10 -2 0 -9 10 -6 9 -10 -7 -14 -12 -3
-21 -9 -20 -14 4 -21 -2 -34 -13 -27 -7 4 -8 3 -4 -5 4 -6 0 -18 -8 -27 -9 -8
-16 -24 -16 -35 0 -11 -4 -18 -9 -15 -5 4 -12 -7 -16 -24 -4 -16 -11 -33 -17
-36 -7 -5 -8 -2 -3 6 5 8 4 11 -3 6 -6 -4 -9 -13 -5 -21 3 -8 0 -15 -7 -15 -6
0 -9 -4 -6 -9 3 -5 -1 -12 -10 -15 -9 -3 -14 -13 -11 -20 3 -8 -1 -17 -9 -20
-8 -3 -14 -13 -14 -21 0 -9 -4 -14 -9 -10 -6 3 -8 -4 -6 -16 3 -15 0 -19 -11
-15 -9 4 -12 2 -8 -5 8 -13 -16 -60 -26 -54 -4 3 -7 -3 -6 -13 0 -10 -5 -16
-14 -14 -12 3 -12 1 -3 -9 10 -10 7 -17 -13 -36 -14 -12 -20 -23 -13 -23 8 0
6 -6 -4 -18 -10 -10 -17 -23 -17 -28 0 -5 -9 -16 -19 -24 -11 -7 -18 -17 -15
-22 3 -4 1 -8 -4 -8 -6 0 -8 -9 -5 -20 4 -16 2 -19 -11 -14 -12 5 -15 2 -10
-10 3 -9 1 -16 -5 -16 -6 0 -11 -7 -11 -16 0 -8 -4 -13 -8 -10 -4 2 -9 -5 -9
-17 -1 -12 -7 -23 -13 -25 -5 -2 -8 -8 -4 -13 3 -5 0 -9 -6 -9 -6 0 -8 -5 -5
-10 3 -6 -1 -13 -9 -16 -9 -3 -14 -10 -11 -14 3 -5 0 -12 -7 -17 -7 -4 -13
-15 -13 -23 0 -8 -5 -14 -12 -13 -7 2 -10 -4 -7 -12 4 -8 1 -15 -6 -15 -6 0
-8 -5 -4 -12 5 -8 1 -9 -12 -4 -15 6 -17 5 -6 -5 18 -19 15 -32 -5 -25 -10 4
-14 4 -10 0 4 -4 2 -13 -4 -21 -6 -7 -8 -13 -3 -13 4 0 -1 -7 -12 -16 -10 -8
-12 -12 -4 -8 13 7 13 5 1 -9 -7 -9 -18 -14 -25 -10 -6 4 -5 -1 3 -10 9 -12
10 -17 2 -17 -7 0 -10 -4 -6 -9 3 -5 -4 -13 -16 -16 -17 -6 -19 -9 -8 -16 12
-7 12 -9 0 -9 -8 0 -11 -6 -7 -15 4 -10 -2 -19 -15 -23 -11 -5 -20 -11 -20
-15 3 -28 -1 -39 -13 -34 -9 4 -13 -2 -12 -16 1 -14 -4 -21 -13 -19 -12 3 -12
1 0 -14 8 -10 9 -15 3 -11 -7 4 -18 -1 -25 -10 -10 -12 -10 -14 -1 -9 6 4 12
2 12 -3 0 -6 -4 -11 -10 -11 -5 0 -10 -6 -10 -13 0 -14 -39 -50 -58 -54 -7 -2
-12 1 -12 5 0 5 -7 9 -15 9 -8 0 -12 -4 -9 -8 2 -4 -5 -7 -16 -6 -11 1 -20 7
-20 14 0 6 -4 14 -9 17 -5 3 -8 -2 -7 -11 1 -12 -9 -17 -42 -18 -24 -1 -46 3
-49 8 -3 5 -9 3 -14 -4 -6 -10 -9 -11 -9 -1 0 6 -5 12 -11 12 -5 0 -7 -6 -3
-12 5 -9 2 -9 -9 1 -23 18 -127 21 -127 3 0 -7 -4 -11 -10 -7 -5 3 -8 11 -6
18 1 7 1 9 -1 5 -3 -5 -18 -8 -34 -8 -20 0 -28 -4 -23 -12 4 -7 3 -8 -5 -4 -6
4 -9 11 -6 16 3 4 -2 10 -10 13 -10 4 -12 1 -8 -11 5 -14 3 -15 -8 -5 -17 17
-32 17 -23 1 4 -7 -2 -5 -13 5 -16 14 -23 15 -29 6 -5 -8 -3 -10 6 -4 9 6 11
4 5 -4 -5 -9 -11 -9 -17 -3 -6 6 -17 8 -26 5 -11 -5 -13 -3 -7 7 6 9 4 11 -6
5 -21 -13 -53 -14 -61 -1 -6 8 -11 6 -18 -4 -9 -13 -11 -13 -20 0 -9 13 -10
13 -10 0 0 -13 -2 -13 -9 -1 -8 12 -12 12 -24 2 -9 -6 -18 -8 -21 -3 -3 5 -24
7 -47 5 -27 -2 -46 1 -51 9 -4 8 -8 9 -8 2 0 -6 -16 -11 -35 -12 -24 -1 -34 2
-29 10 5 7 3 8 -7 2 -16 -10 -149 -13 -143 -3 2 4 -12 3 -30 -1 -27 -6 -33 -5
-29 6 3 8 0 14 -6 14 -6 0 -11 10 -11 23 0 18 -2 19 -10 7 -8 -12 -10 -11 -10
8 0 12 -4 22 -10 22 -5 0 -10 7 -10 16 0 9 -8 23 -17 30 -12 9 -14 13 -5 14 7
0 10 5 7 10 -4 6 -11 8 -16 5 -5 -4 -9 1 -9 9 0 9 -5 16 -11 16 -8 0 -7 6 2
18 7 9 10 14 5 10 -11 -9 -36 16 -36 36 0 9 -4 16 -9 16 -5 0 -15 16 -22 34
-7 19 -16 33 -21 30 -4 -3 -8 4 -8 15 0 12 -4 21 -10 21 -5 0 -10 5 -10 11 0
5 6 7 13 3 8 -5 8 -2 -2 9 -15 19 -26 23 -15 5 4 -7 3 -8 -4 -4 -7 4 -12 16
-12 26 0 10 -5 22 -10 25 -6 4 -7 11 -4 17 4 7 2 8 -4 4 -11 -6 -16 6 -13 27
0 4 -6 7 -14 7 -8 0 -15 5 -15 11 0 5 6 7 13 4 6 -4 4 0 -5 8 -10 8 -15 17
-11 20 3 4 1 7 -6 7 -7 0 -9 5 -6 10 3 6 -1 10 -10 10 -9 0 -14 4 -10 9 3 5
-1 16 -9 24 -8 8 -12 17 -9 21 4 3 1 6 -6 6 -7 0 -9 4 -6 10 3 6 1 10 -5 10
-6 0 -8 5 -5 10 3 5 -1 10 -9 10 -9 0 -16 5 -16 11 0 5 6 7 13 3 17 -11 -13
28 -36 44 -9 7 -14 18 -11 24 4 5 -3 23 -15 39 -12 16 -19 35 -15 41 4 6 3 9
-2 6 -5 -3 -15 0 -22 8 -7 8 -9 14 -5 14 4 0 0 5 -10 11 -9 6 -15 14 -12 20 7
11 -19 52 -28 43 -3 -3 -3 3 0 15 4 15 1 21 -11 21 -10 0 -14 5 -11 10 3 6 1
10 -5 10 -6 0 -8 5 -5 10 3 6 1 10 -5 10 -7 0 -10 7 -6 15 3 8 1 15 -5 15 -6
0 -9 7 -5 15 3 8 2 14 -2 14 -19 -3 -29 2 -30 16 -1 8 -3 22 -4 30 -1 8 -8 15
-15 15 -8 0 -11 5 -8 10 3 6 1 10 -5 10 -7 0 -9 7 -6 16 3 8 2 12 -4 9 -6 -3
-10 1 -10 10 0 9 -4 14 -8 11 -4 -2 -9 5 -9 17 -1 12 -7 23 -13 25 -5 2 -10
10 -10 18 0 8 -5 14 -11 14 -5 0 -7 5 -4 10 3 6 1 10 -6 10 -7 0 -10 3 -6 6 3
4 -1 13 -9 21 -8 9 -13 22 -10 29 3 9 0 11 -11 7 -12 -5 -14 -3 -8 7 5 8 -1
20 -16 32 -13 11 -18 17 -11 13 11 -6 11 -3 0 16 -7 13 -20 30 -28 37 -13 12
-13 13 0 7 10 -4 9 -2 -2 8 -10 8 -18 22 -18 31 0 11 -5 14 -12 10 -7 -5 -9 0
-6 14 3 12 2 20 -3 19 -5 -1 -19 14 -31 32 -14 21 -17 31 -8 26 8 -5 5 4 -8
19 -12 16 -19 33 -15 39 3 6 1 7 -5 3 -11 -7 -17 6 -13 27 1 5 -3 6 -8 3 -12
-8 -29 15 -26 36 2 9 -3 19 -11 22 -8 3 -14 13 -14 21 0 9 -4 14 -8 11 -4 -2
-9 4 -9 16 -1 11 -12 28 -24 39 -15 13 -18 19 -8 20 8 0 6 4 -6 9 -11 5 -15 9
-9 9 6 1 9 14 6 30 -3 23 -8 28 -23 24 -11 -3 -19 -2 -18 3 4 21 -2 35 -11 29
-5 -3 -10 3 -10 14 0 11 -9 25 -20 31 -11 6 -19 14 -19 18 4 25 -3 52 -11 47
-9 -5 -12 1 -9 21 0 3 -8 13 -19 22 -10 9 -18 25 -16 35 2 15 -8 22 -29 18 -5
-1 -6 8 -2 19 4 11 2 20 -4 20 -6 0 -11 7 -11 16 0 9 -5 12 -12 8 -6 -4 -8 -3
-5 3 4 6 -3 23 -15 39 -13 16 -16 25 -8 20 8 -4 7 -1 -2 7 -21 16 -24 32 -5
21 8 -5 8 -2 -2 9 -15 19 -26 23 -15 5 4 -7 3 -8 -4 -4 -7 4 -12 18 -12 32 0
14 -4 22 -10 19 -5 -3 -11 -1 -11 4 -1 6 -2 15 -3 21 0 5 -10 16 -21 25 -11 9
-14 13 -7 10 11 -6 11 -3 0 14 -7 12 -16 21 -20 21 -4 0 -5 6 -2 14 3 7 -2 16
-10 19 -9 4 -16 13 -16 22 0 8 -5 15 -12 15 -6 0 -9 3 -5 6 3 4 -1 13 -9 21
-8 8 -11 20 -7 26 4 7 0 8 -12 3 -15 -5 -16 -4 -5 9 8 10 9 15 1 15 -6 0 -11
6 -11 14 0 7 -7 19 -16 26 -8 8 -14 9 -13 4 4 -21 -2 -35 -11 -29 -6 4 -10 3
-9 -2 3 -20 -2 -34 -10 -28 -6 3 -8 -4 -6 -16 3 -15 0 -19 -11 -15 -9 3 -12 2
-9 -5 4 -6 -1 -20 -12 -31 -10 -12 -12 -18 -6 -14 9 5 11 2 7 -9 -4 -9 -13
-14 -21 -11 -8 3 -12 2 -8 -3 3 -5 -1 -12 -7 -14 -10 -4 -9 -6 1 -6 10 -1 7
-7 -8 -20 -16 -14 -18 -21 -9 -24 8 -3 5 -6 -6 -6 -11 -1 -16 -4 -13 -8 4 -3
1 -13 -6 -21 -7 -10 -12 -51 -13 -112 0 -53 -4 -102 -8 -108 -4 -7 -3 -12 2
-12 10 0 9 -36 -1 -46 -4 -4 -2 -13 4 -21 9 -10 8 -17 -1 -28 -7 -8 -8 -15 -3
-15 5 0 9 -9 10 -20 1 -11 -2 -18 -8 -15 -5 4 -5 -3 0 -18 6 -14 7 -27 5 -30
-8 -8 -10 -117 -2 -117 8 0 4 -47 -5 -57 -4 -3 -2 -12 4 -20 9 -10 8 -17 -1
-28 -8 -9 -8 -15 -2 -15 11 0 10 -45 -1 -57 -4 -3 -3 -11 2 -17 14 -17 14 -28
-1 -37 -10 -7 -10 -9 0 -9 6 0 12 -6 12 -14 0 -8 5 -18 12 -22 7 -5 8 -3 3 6
-5 8 -4 11 3 6 6 -4 9 -13 5 -21 -3 -8 0 -15 7 -15 6 0 8 -4 5 -10 -3 -5 -1
-10 5 -10 7 0 10 -6 7 -14 -3 -8 5 -22 18 -32 13 -9 21 -23 18 -31 -3 -7 2
-16 11 -19 9 -3 13 -10 10 -15 -3 -5 0 -9 5 -9 6 0 11 -6 11 -14 0 -8 6 -17
13 -19 8 -4 8 -6 -3 -6 -10 -1 -7 -6 8 -17 13 -9 21 -22 18 -30 -3 -8 3 -19
13 -26 11 -7 17 -18 13 -26 -3 -10 -1 -13 6 -8 7 4 13 2 13 -3 1 -6 2 -17 3
-23 1 -7 8 -11 16 -10 8 2 12 0 8 -4 -4 -4 -3 -13 3 -21 6 -7 9 -13 5 -13 -3
0 3 -9 14 -20 12 -12 18 -25 15 -30 -4 -6 -1 -10 5 -10 6 0 8 -4 5 -10 -3 -5
2 -10 12 -11 11 0 13 -3 5 -6 -10 -4 -9 -8 3 -17 9 -6 17 -21 18 -33 0 -12 4
-20 9 -17 9 6 29 -31 21 -40 -3 -3 -1 -6 6 -6 7 0 9 -5 6 -10 -3 -6 -2 -10 3
-10 5 0 17 -12 27 -26 11 -17 12 -24 4 -18 -8 4 -1 -9 14 -29 15 -20 25 -42
21 -49 -4 -7 -3 -8 4 -4 7 4 12 1 12 -9 0 -8 7 -18 15 -21 8 -4 12 -10 9 -15
-3 -5 1 -9 8 -9 9 0 9 -3 -2 -10 -13 -8 -12 -10 3 -10 10 0 16 -4 13 -9 -4 -5
-2 -11 3 -13 5 -1 11 -10 13 -18 4 -18 21 -39 28 -35 3 2 7 -5 8 -16 4 -40 6
-48 11 -46 3 1 8 -2 10 -8 2 -5 11 -16 20 -23 12 -10 13 -12 1 -6 -8 4 -1 -8
15 -26 17 -18 23 -30 15 -26 -8 4 -7 1 3 -7 14 -11 15 -16 5 -20 -8 -4 -7 -6
5 -6 10 -1 17 -9 17 -21 0 -11 4 -20 9 -20 10 0 27 -39 23 -54 -2 -5 4 -6 12
-3 9 4 15 3 14 -1 -4 -14 15 -57 31 -70 9 -8 10 -11 4 -7 -7 3 -3 -9 10 -28
12 -19 25 -33 30 -30 4 2 7 1 6 -4 -4 -26 2 -44 14 -37 7 5 7 2 -2 -10 -12
-15 -12 -17 0 -14 8 2 13 -3 12 -9 -2 -7 3 -13 11 -13 10 0 13 -7 11 -20 -2
-11 0 -18 6 -15 5 4 9 -1 9 -9 0 -9 4 -16 10 -16 5 0 9 -3 9 -7 -4 -22 2 -33
13 -27 8 5 9 2 5 -9 -4 -11 -1 -17 8 -17 8 0 14 -3 14 -8 -4 -22 2 -42 11 -37
6 4 10 -5 10 -20 0 -15 4 -24 10 -20 6 3 10 -3 10 -14 0 -13 7 -21 18 -21 14
0 15 -2 2 -10 -12 -8 -12 -10 3 -16 9 -3 17 -12 17 -20 0 -8 5 -14 11 -14 5 0
8 -4 5 -9 -3 -5 1 -12 10 -15 14 -5 14 -9 3 -24 -7 -9 -10 -14 -5 -10 12 10
37 -18 39 -42 1 -11 7 -20 15 -20 7 0 10 -4 7 -10 -3 -5 -1 -10 5 -10 6 0 8
-5 5 -10 -3 -6 1 -13 10 -16 12 -5 13 -9 5 -14 -9 -5 -6 -10 8 -14 12 -4 19
-13 16 -19 -2 -7 4 -22 15 -34 14 -15 17 -23 8 -26 -7 -3 -4 -6 7 -6 13 -1 17
-6 13 -20 -3 -14 -1 -18 9 -14 9 3 14 -2 14 -16 0 -12 4 -21 10 -21 5 0 7 -7
3 -15 -3 -9 -2 -15 3 -14 21 4 26 -2 14 -17 -8 -8 -9 -14 -4 -13 19 3 34 -1
34 -12 0 -5 -6 -7 -12 -3 -7 4 -3 -3 10 -15 12 -12 22 -29 22 -37 0 -8 5 -12
10 -9 6 4 9 3 8 -2 -6 -17 28 -49 52 -48 14 0 37 -3 53 -7 16 -4 25 -3 22 3
-4 5 -2 9 4 9 5 0 12 -6 14 -12 4 -10 6 -9 6 1 1 11 4 11 16 1 8 -7 15 -8 15
-3 0 12 53 11 62 -2 5 -6 8 -6 8 2 0 8 9 9 29 3 21 -6 31 -5 35 3 3 9 5 9 5 0
1 -9 8 -10 24 -4 14 5 30 5 40 0 12 -7 17 -6 17 3 0 9 3 9 10 -2 5 -8 10 -10
10 -5 0 6 15 11 34 11 19 0 32 -4 30 -8 -3 -4 0 -8 5 -8 6 0 11 5 11 12 0 9 3
9 12 0 15 -15 32 -16 22 -1 -4 7 1 7 16 -1 18 -10 24 -9 31 1 7 11 9 10 9 -3
0 -20 37 -21 61 -1 10 9 24 10 45 4 16 -4 35 -6 43 -3 8 3 11 0 7 -7 -5 -7 -1
-9 8 -5 9 3 13 10 10 15 -3 5 2 6 10 3 9 -3 13 -10 10 -15 -3 -5 2 -6 10 -3 9
3 13 10 10 15 -4 8 29 -1 47 -12 3 -2 13 2 23 10 14 12 16 12 10 -3 -5 -14 -3
-15 21 -6 32 12 48 13 41 2 -3 -5 1 -9 9 -9 8 0 12 4 9 9 -3 4 0 8 5 8 6 0 11
-4 11 -10 0 -5 5 -10 11 -10 5 0 7 5 4 10 -3 6 -1 10 4 10 6 0 11 -3 11 -7 0
-5 11 -9 26 -9 23 -2 24 -1 7 12 -17 13 -17 14 2 8 11 -4 26 -14 34 -23 12
-14 13 -14 8 0 -7 21 40 20 55 -1 8 -12 9 -12 4 3 -3 9 -1 17 4 17 6 0 10 -4
10 -10 0 -5 5 -10 11 -10 5 0 8 4 5 9 -7 11 13 9 32 -2 7 -5 12 -3 12 3 0 6 5
8 10 5 6 -4 8 -10 5 -15 -3 -5 0 -12 6 -16 8 -4 9 -3 5 4 -4 7 -2 12 3 12 6 0
11 -6 11 -12 0 -10 3 -9 9 1 5 8 14 10 21 6 8 -5 11 -4 7 2 -8 12 12 22 31 16
6 -3 9 -10 5 -16 -3 -7 4 -3 17 8 13 11 20 15 17 9 -4 -7 0 -15 9 -18 8 -3 12
-2 9 3 -3 5 -1 12 5 16 5 3 10 1 10 -5 0 -6 4 -9 9 -5 5 3 13 1 16 -5 5 -8 11
-7 21 1 11 9 14 8 14 -2 1 -10 4 -9 14 3 12 17 14 16 25 -5 6 -12 9 -14 7 -4
-3 9 -1 17 4 17 6 0 10 -6 10 -12 0 -8 7 -5 15 6 8 11 15 15 15 9 0 -7 19 -11
45 -11 24 0 50 -4 56 -8 7 -4 10 -3 6 2 -6 10 54 10 71 0 7 -4 12 -2 12 4 0 6
5 8 11 4 7 -4 25 -7 41 -6 17 0 26 -3 22 -10 -4 -5 5 -3 19 7 24 15 26 15 36
-2 7 -12 10 -13 11 -4 0 11 3 11 17 0 15 -12 16 -12 8 1 -8 13 -7 13 8 1 12
-9 17 -10 17 -2 0 7 5 9 10 6 6 -3 10 1 10 9 0 9 5 16 10 16 6 0 10 7 10 16 0
8 5 12 11 8 8 -4 9 1 4 16 -6 19 -4 22 9 17 10 -4 15 -3 11 3 -3 6 -1 10 5 10
6 0 8 5 5 11 -4 6 1 17 11 25 11 9 13 13 7 9 -9 -4 -11 -1 -7 10 4 9 12 14 18
12 7 -3 13 4 14 14 4 42 6 48 14 43 4 -3 8 2 8 10 0 9 5 16 10 16 6 0 10 9 10
21 0 13 4 18 12 13 7 -5 8 -3 3 6 -4 7 -2 16 6 21 8 4 15 13 15 19 1 5 2 15 3
20 0 6 11 15 24 20 20 8 20 9 2 10 -18 1 -19 1 -2 11 9 5 17 16 17 23 0 8 10
21 23 30 12 9 16 14 10 11 -7 -3 -13 -1 -13 5 0 6 7 13 15 16 8 4 12 10 9 15
-3 5 0 9 7 9 7 0 9 3 6 6 -9 9 12 46 23 39 4 -3 7 6 5 20 -1 15 3 25 11 25 7
0 16 5 20 12 5 7 3 8 -7 3 -11 -7 -11 -5 1 11 8 10 22 25 30 32 13 10 12 11
-5 6 -14 -4 -13 -1 5 9 14 9 24 18 23 21 -8 17 -1 36 13 36 8 0 13 4 10 9 -9
14 5 42 17 34 6 -4 8 2 5 15 -3 12 -3 21 1 20 19 -2 24 3 11 12 -13 8 -12 10
3 10 9 0 18 5 18 10 1 6 2 14 3 19 0 5 10 20 22 33 11 13 18 30 16 37 -3 10 0
11 9 5 11 -6 11 -4 -1 12 -8 10 -11 16 -6 12 11 -10 49 39 41 52 -3 6 4 10 17
10 18 0 20 2 8 10 -12 8 -12 10 2 15 10 4 15 15 13 26 -2 11 0 17 6 14 5 -4 9
3 9 15 0 12 9 24 23 30 12 5 16 9 8 9 -11 1 -9 6 5 23 13 14 14 19 4 14 -8 -4
-4 2 9 13 13 12 21 27 17 36 -3 9 0 15 10 15 11 0 15 6 11 19 -3 14 -1 18 10
14 7 -3 13 -2 12 3 -3 19 1 35 9 30 5 -3 8 5 8 17 -1 14 5 22 14 21 9 -1 16 9
17 24 0 13 7 28 13 32 7 4 9 13 5 20 -5 8 -4 11 1 7 6 -3 16 3 23 15 7 11 8
17 2 14 -7 -4 -8 -1 -5 8 3 9 10 13 15 10 5 -3 10 0 10 5 1 6 2 17 3 24 1 6 7
11 14 10 7 -2 9 4 5 14 -5 12 -3 14 7 8 9 -6 11 -4 6 4 -5 7 0 19 10 27 11 9
12 12 4 8 -10 -5 -9 -1 3 14 11 11 16 25 13 31 -4 5 -1 13 5 17 8 5 10 2 5 -7
-4 -8 0 -5 8 5 9 11 16 26 16 34 0 7 5 10 12 6 7 -5 8 -3 4 5 -5 7 0 19 10 27
11 9 13 13 4 9 -10 -4 -10 -2 2 8 14 11 15 16 5 26 -9 10 -9 12 3 9 9 -2 14 4
14 14 -1 10 3 16 10 15 6 -1 10 4 9 11 -2 6 2 12 8 12 6 0 9 5 7 12 -2 6 4 20
14 30 10 10 16 23 13 28 -3 4 0 10 5 12 6 2 12 12 14 23 2 11 12 25 23 30 11
6 18 16 15 24 -3 9 0 11 8 6 9 -5 11 -4 6 4 -4 6 -2 18 4 26 6 8 8 20 4 26 -4
8 -3 9 4 5 7 -4 12 -2 12 4 0 6 5 8 11 4 7 -4 9 0 5 14 -5 14 -1 25 12 34 21
14 22 17 22 49 0 11 4 18 9 14 5 -3 12 4 16 15 4 12 11 17 18 13 8 -4 8 -1 -1
9 -10 13 -10 17 3 22 8 3 15 14 15 25 0 11 6 24 14 28 8 4 16 13 18 18 2 6 6
9 9 8 4 -1 6 3 6 10 -1 24 25 77 39 77 8 0 11 6 8 15 -4 8 -1 15 4 15 6 0 9 9
7 19 -3 15 1 18 13 14 9 -3 14 -3 10 2 -4 4 -3 14 3 22 6 7 8 13 5 13 -4 0 -1
6 6 14 7 8 18 11 23 8 6 -2 5 1 -1 8 -9 9 -7 17 7 31 11 11 17 24 14 28 -2 5
2 12 11 15 8 3 12 10 9 16 -3 6 1 13 9 16 9 3 14 10 11 14 -3 5 3 13 12 19 10
6 14 11 9 11 -5 0 -3 6 3 14 10 12 8 19 -9 36 -11 11 -18 25 -15 30 4 6 -1 10
-9 10 -9 0 -16 9 -16 20 0 11 -5 20 -11 20 -5 0 -8 4 -4 10 3 5 -3 18 -14 29
-13 13 -16 21 -8 25 8 3 6 5 -3 5 -20 1 -42 48 -26 55 6 2 1 5 -11 5 -14 1
-20 7 -19 18 2 10 -7 26 -18 36 -12 10 -14 16 -6 12 8 -4 4 3 -10 15 -14 12
-19 19 -13 15 9 -4 11 -1 7 9 -3 9 -14 16 -23 16 -14 0 -14 2 -1 10 13 8 13
10 -2 10 -11 0 -15 5 -12 14 3 7 -2 16 -10 19 -9 4 -16 13 -16 20 0 8 -6 20
-14 27 -8 6 -12 18 -9 26 3 8 0 14 -6 14 -6 0 -11 10 -11 23 0 18 -2 19 -10 7
-8 -13 -10 -12 -10 4 0 10 -8 25 -17 32 -17 13 -17 14 1 7 19 -6 19 -6 0 14
-10 11 -23 17 -29 14 -5 -2 -4 2 3 11 11 13 8 19 -15 38 -15 12 -22 19 -15 15
6 -3 12 -2 12 4 0 5 -10 13 -21 16 -15 5 -18 10 -9 15 9 5 8 9 -4 13 -8 3 -20
16 -26 28 -8 15 -9 19 -1 15 8 -5 8 0 0 18 -7 14 -17 22 -25 19 -10 -4 -12 0
-8 11 3 9 1 16 -5 16 -6 0 -10 3 -10 8 4 21 -3 32 -18 32 -15 0 -16 2 -3 10
12 8 12 10 -5 10 -16 0 -17 2 -5 10 12 8 12 10 -3 16 -9 3 -17 15 -17 26 0 10
-4 16 -10 13 -5 -3 -10 3 -10 13 0 11 -7 25 -15 32 -8 7 -12 16 -9 21 3 5 -1
9 -9 9 -8 0 -18 7 -21 16 -6 15 -4 15 11 3 10 -7 7 -1 -6 14 -14 15 -21 27
-17 27 4 0 0 7 -8 16 -9 8 -14 19 -11 24 3 4 -3 14 -13 21 -16 13 -16 12 -2
-6 11 -15 11 -17 0 -8 -7 7 -15 23 -17 35 -2 12 -10 26 -19 31 -10 5 -13 16
-8 29 4 13 2 18 -5 14 -5 -4 -17 7 -26 24 -8 16 -12 30 -9 30 4 0 -3 8 -14 19
-12 10 -18 21 -14 25 3 4 -4 16 -18 26 -15 12 -20 20 -11 20 11 0 10 5 -5 19
-10 10 -22 17 -25 15 -3 -2 -5 8 -3 21 1 17 -3 25 -12 25 -9 0 -12 5 -9 10 3
6 1 10 -5 10 -6 0 -8 5 -5 10 3 6 1 10 -5 10 -7 0 -9 7 -6 16 4 10 0 18 -13
21 -13 3 -18 12 -16 29 2 18 -2 24 -11 20 -8 -3 -13 -2 -13 2 4 22 -2 42 -11
37 -5 -3 -10 -1 -10 4 0 6 -5 11 -11 11 -5 0 -8 -4 -5 -8 3 -5 -1 -9 -10 -9
-10 0 -12 7 -8 21 3 12 2 17 -3 11 -4 -5 -17 -17 -27 -25 -18 -14 -19 -13 -13
3 6 15 4 16 -13 7 -15 -8 -21 -6 -29 7 -9 16 -10 15 -11 -6 0 -24 0 -24 -16
-5 -8 10 -13 13 -9 7 3 -7 2 -13 -4 -13 -5 0 -12 6 -14 13 -4 8 -6 8 -6 1 -1
-8 -12 -9 -37 -4 -31 7 -35 6 -29 -8 4 -11 -2 -9 -18 7 -20 18 -27 20 -34 9
-4 -7 -18 -13 -30 -14 -18 0 -20 2 -11 13 8 11 7 12 -6 7 -9 -3 -16 -10 -16
-16 0 -5 -5 -6 -10 -3 -6 4 -8 12 -4 18 3 7 0 5 -8 -3 -10 -11 -26 -14 -66
-10 -30 3 -56 2 -58 -2 -3 -4 -17 0 -32 9 -26 17 -26 17 -13 0 13 -17 13 -17
-12 -6 -21 9 -30 9 -42 -1 -9 -7 -15 -9 -14 -4 4 21 -2 28 -12 14 -8 -12 -12
-12 -16 -2 -4 10 -9 9 -20 -5 -8 -10 -12 -13 -9 -6 4 6 2 14 -4 18 -5 3 -10 1
-10 -6 0 -8 -4 -9 -13 0 -10 8 -17 7 -25 -1 -8 -8 -15 -8 -26 1 -12 10 -16 9
-25 -6 -9 -15 -10 -15 -11 -2 0 17 -30 22 -30 5 0 -6 -5 -4 -10 4 -8 12 -10
12 -10 1 0 -10 -3 -11 -13 -2 -10 8 -17 7 -25 -1 -9 -9 -12 -9 -12 1 0 10 -3
11 -13 2 -10 -8 -17 -7 -25 1 -9 9 -12 9 -12 -1 0 -11 -3 -11 -17 0 -15 12
-16 12 -8 -1 7 -13 6 -13 -7 -2 -11 9 -18 10 -23 2 -3 -6 -12 -7 -18 -3 -17
11 -31 10 -39 -2 -6 -7 -10 -7 -15 1 -10 13 -53 13 -53 -1 0 -5 -4 -4 -9 4 -8
12 -12 12 -25 2 -9 -8 -16 -9 -16 -4 0 5 -20 9 -44 9 -29 0 -43 -4 -39 -10 5
-7 2 -7 -8 0 -8 6 -33 10 -57 9 -24 -1 -45 2 -48 7 -3 5 -10 5 -16 2 -6 -4
-50 -7 -97 -8 -47 -1 -91 -4 -98 -9 -6 -4 -15 -2 -19 4 -5 8 -3 9 6 4 9 -5 11
-4 6 3 -5 8 -13 9 -25 2 -12 -6 -22 -5 -29 2 -7 7 -12 8 -12 2 0 -13 -73 -12
-82 1 -5 7 -8 7 -8 0 0 -5 -20 -10 -44 -10 -25 -1 -42 3 -40 7 3 4 -6 4 -20
-2 -19 -7 -26 -6 -26 3 0 8 -3 8 -9 -2 -5 -7 -10 -9 -12 -4 -2 5 -13 0 -24
-12z m1640 -5 c3 -5 1 -10 -4 -10 -6 0 -11 5 -11 10 0 6 2 10 4 10 3 0 8 -4
11 -10z m860 -1010 c3 -6 -1 -7 -9 -4 -18 7 -21 14 -7 14 6 0 13 -4 16 -10z
m-1724 -1617 c13 -16 12 -17 -3 -4 -17 13 -22 21 -14 21 2 0 10 -8 17 -17z"/>
<path d="M5320 5566 c0 -11 -5 -15 -12 -10 -7 3 0 -5 16 -18 16 -14 26 -29 23
-35 -4 -6 0 -16 8 -23 8 -7 12 -16 9 -21 -3 -5 0 -8 7 -7 6 2 14 -3 17 -11 3
-9 0 -11 -9 -6 -8 5 -11 4 -6 -1 5 -5 13 -10 18 -10 5 -1 12 -2 15 -3 4 0 0
-9 -7 -18 -8 -9 -9 -14 -3 -10 6 4 20 -3 30 -15 11 -12 13 -18 7 -14 -20 11
-15 -1 12 -30 13 -14 22 -30 19 -35 -3 -5 0 -9 6 -9 7 0 10 -7 6 -15 -5 -14 5
-20 27 -16 5 1 6 -3 3 -8 -8 -13 4 -42 15 -35 5 3 6 -3 2 -12 -4 -12 -3 -15 5
-10 8 5 10 2 6 -8 -3 -9 -1 -16 6 -16 6 0 8 -4 5 -10 -3 -5 2 -10 12 -11 11 0
13 -3 5 -6 -8 -3 -5 -11 10 -24 21 -17 21 -19 3 -13 -19 5 -19 5 1 -8 12 -7
19 -19 16 -27 -3 -9 0 -11 8 -6 10 6 12 4 7 -8 -4 -10 -2 -16 6 -14 7 1 11 -6
9 -16 -2 -9 4 -20 13 -24 14 -5 14 -8 3 -15 -9 -7 -7 -9 8 -5 17 4 20 0 19
-24 -1 -17 3 -29 11 -29 13 0 27 -27 20 -39 -3 -4 4 -14 15 -21 10 -8 19 -21
19 -29 0 -7 10 -22 22 -32 13 -12 16 -19 8 -19 -9 0 -7 -5 5 -13 11 -9 15 -19
10 -27 -5 -9 -4 -11 3 -6 11 6 16 -5 13 -26 0 -4 9 -10 20 -13 17 -6 18 -9 7
-23 -10 -12 -10 -14 0 -8 7 4 12 1 12 -8 0 -9 5 -16 10 -16 6 0 10 -7 10 -16
0 -9 5 -12 12 -8 6 4 8 3 5 -4 -8 -12 2 -44 12 -38 3 2 11 -7 18 -20 8 -18 8
-23 0 -18 -7 3 -4 -1 6 -9 20 -16 23 -32 5 -21 -9 5 -9 3 1 -9 7 -9 17 -15 21
-12 8 5 25 -42 21 -58 -1 -5 3 -6 9 -2 5 3 10 -1 10 -9 0 -9 5 -16 10 -16 6 0
10 -6 10 -14 0 -8 6 -17 13 -19 9 -4 9 -6 -1 -6 -7 -1 -1 -12 15 -27 15 -14
22 -23 16 -19 -9 4 -11 1 -7 -9 3 -9 10 -13 15 -10 5 3 9 -4 9 -15 0 -12 3
-21 8 -21 7 0 36 -58 37 -73 0 -5 8 -14 17 -21 10 -7 15 -16 11 -19 -3 -4 -1
-7 6 -7 8 0 10 -8 6 -22 -4 -14 -3 -18 2 -11 6 8 16 0 31 -24 13 -19 19 -32
13 -28 -6 3 -11 1 -11 -4 0 -6 7 -11 17 -11 9 0 13 -3 10 -7 -4 -3 0 -15 10
-25 9 -10 13 -21 10 -25 -4 -3 3 -14 15 -24 11 -11 16 -19 9 -19 -7 0 -9 -5
-6 -10 4 -6 12 -7 18 -3 8 5 8 2 0 -9 -7 -8 -10 -18 -6 -21 3 -4 1 -7 -6 -7
-7 0 -9 -4 -6 -10 4 -6 -1 -7 -11 -3 -13 5 -16 3 -11 -10 3 -9 2 -17 -4 -17
-6 0 -8 -4 -5 -9 3 -4 -4 -17 -15 -27 -11 -10 -18 -23 -15 -30 3 -7 -2 -15
-10 -18 -8 -3 -14 -15 -14 -27 0 -13 -5 -19 -13 -16 -8 3 -14 -1 -14 -9 0 -7
5 -10 11 -7 6 4 5 -1 -3 -10 -7 -9 -18 -14 -25 -10 -6 3 -8 3 -4 -2 4 -4 2
-15 -5 -23 -10 -13 -9 -15 3 -8 8 4 7 1 -3 -7 -10 -8 -19 -24 -20 -35 -1 -13
-6 -18 -16 -14 -10 4 -13 1 -8 -11 3 -9 2 -17 -4 -17 -6 0 -7 -4 -4 -10 3 -5
1 -10 -5 -10 -7 0 -9 -7 -6 -16 5 -14 4 -15 -8 -5 -13 11 -15 9 -11 -8 2 -12
-1 -21 -6 -21 -6 0 -8 -4 -5 -9 3 -5 -1 -12 -10 -15 -8 -3 -12 -10 -9 -16 3
-5 1 -10 -4 -10 -6 0 -10 -3 -10 -7 3 -21 -2 -26 -12 -13 -8 12 -9 10 -4 -7 4
-14 2 -23 -5 -23 -6 0 -8 -5 -5 -10 3 -6 -1 -13 -9 -16 -9 -3 -13 -10 -10 -15
3 -5 0 -9 -6 -9 -6 0 -8 -4 -5 -10 3 -5 1 -10 -5 -10 -6 0 -8 -4 -5 -10 3 -5
-1 -10 -11 -10 -12 0 -14 -3 -6 -13 7 -8 7 -17 -2 -29 -7 -10 -15 -15 -18 -13
-3 3 -13 -5 -24 -17 -19 -22 -19 -22 0 -8 18 14 19 14 7 -7 -6 -13 -17 -23
-22 -23 -6 0 -8 -7 -5 -16 4 -9 2 -13 -5 -8 -7 4 -10 1 -7 -7 3 -8 -1 -20 -9
-27 -7 -8 -11 -18 -8 -23 4 -5 -1 -6 -10 -3 -9 4 -15 3 -14 -2 4 -17 -13 -64
-21 -59 -10 6 -31 -51 -22 -61 4 -4 2 -4 -4 -1 -7 4 -18 -1 -25 -10 -11 -13
-11 -15 -1 -9 11 7 11 4 1 -12 -7 -12 -17 -19 -21 -16 -4 3 -5 -2 -2 -10 4
-11 0 -16 -11 -16 -9 0 -13 -5 -10 -10 4 -6 11 -7 17 -4 7 4 8 2 4 -5 -4 -6
-12 -9 -17 -6 -5 4 -9 -1 -9 -9 0 -9 -4 -16 -10 -16 -5 0 -10 -12 -10 -26 0
-21 -4 -25 -17 -20 -10 4 -14 4 -10 0 4 -4 -1 -16 -10 -27 -10 -11 -12 -17 -6
-13 9 5 11 2 7 -8 -3 -9 -10 -16 -15 -16 -5 0 -9 -5 -9 -11 0 -7 -8 -18 -17
-26 -11 -9 -12 -11 -3 -7 11 5 10 1 -3 -13 -10 -12 -19 -28 -21 -36 -1 -8 -10
-22 -19 -31 -9 -10 -15 -22 -12 -27 4 -5 -1 -9 -9 -9 -9 0 -15 -3 -15 -7 3
-20 -2 -34 -11 -28 -6 3 -7 -1 -4 -9 4 -9 -1 -18 -10 -22 -9 -3 -13 -10 -10
-15 3 -5 0 -9 -6 -9 -6 0 -8 -5 -5 -10 3 -5 1 -10 -5 -10 -6 0 -8 -4 -5 -10 3
-5 1 -10 -4 -10 -6 0 -10 -4 -9 -9 2 -5 -6 -17 -17 -25 -12 -9 -15 -15 -7 -16
8 0 2 -11 -13 -27 -14 -15 -25 -35 -25 -44 0 -9 -12 -29 -27 -44 -16 -16 -22
-25 -15 -21 11 7 11 4 0 -13 -7 -12 -16 -21 -20 -21 -5 0 -8 -9 -8 -20 0 -11
-7 -23 -15 -26 -8 -4 -12 -10 -9 -15 3 -5 0 -9 -7 -9 -7 0 -10 -3 -6 -6 3 -4
-1 -13 -9 -21 -8 -8 -12 -18 -9 -23 3 -4 -2 -10 -10 -14 -8 -3 -15 -12 -15
-21 0 -8 -5 -15 -11 -15 -6 0 -9 -7 -5 -15 3 -9 0 -15 -10 -15 -8 0 -12 -4 -9
-10 3 -5 2 -10 -3 -10 -6 0 -13 -7 -16 -16 -6 -15 -4 -15 11 -3 16 13 17 12 4
-4 -7 -9 -21 -17 -30 -17 -14 0 -14 -2 -1 -10 13 -9 7 -14 -12 -11 -4 0 -5 -6
-2 -14 4 -8 -1 -17 -9 -21 -9 -3 -13 -12 -10 -21 4 -10 2 -14 -5 -9 -6 4 -12
-3 -14 -16 -2 -13 -9 -22 -15 -21 -7 2 -10 -6 -8 -17 2 -11 0 -20 -5 -20 -5 0
-12 -11 -16 -25 -3 -14 -10 -25 -15 -25 -5 0 -9 -7 -9 -16 0 -9 -5 -12 -12 -8
-9 5 -8 2 1 -9 12 -15 12 -17 -4 -11 -13 5 -16 4 -11 -4 4 -7 2 -12 -5 -12 -7
0 -9 -3 -6 -7 4 -3 -2 -13 -14 -21 -11 -8 -18 -20 -15 -28 3 -8 1 -14 -5 -14
-6 0 -7 -4 -4 -10 3 -5 0 -10 -7 -10 -9 0 -9 -3 2 -10 13 -8 12 -10 -2 -10
-10 0 -18 -7 -18 -15 0 -9 -7 -18 -15 -21 -8 -4 -12 -10 -9 -15 3 -5 0 -9 -6
-9 -6 0 -9 -4 -6 -9 8 -13 -4 -42 -15 -35 -5 3 -9 -2 -9 -10 0 -9 -4 -16 -9
-16 -10 0 -35 -57 -34 -77 0 -7 -3 -10 -8 -7 -5 3 -9 0 -9 -6 0 -6 -4 -9 -9
-5 -6 3 -8 -4 -6 -15 2 -11 -1 -20 -6 -20 -6 0 -7 -5 -4 -10 3 -6 -1 -10 -9
-10 -10 0 -16 -9 -16 -26 0 -25 1 -25 69 -22 57 3 68 1 64 -12 -3 -11 0 -10
10 3 13 16 16 16 30 2 18 -17 31 -20 21 -4 -4 7 1 7 16 -1 18 -9 21 -9 15 0
-5 8 -3 11 6 8 8 -3 22 -1 31 3 9 5 19 5 22 0 3 -4 18 -7 33 -5 15 1 31 -3 35
-9 5 -8 8 -6 8 7 0 13 4 16 13 9 6 -5 24 -8 40 -7 18 2 25 -1 21 -8 -5 -7 -2
-8 7 -2 21 13 47 15 54 4 4 -6 12 -7 18 -3 21 13 49 14 41 1 -5 -7 -3 -8 7 -2
22 13 49 15 49 3 0 -8 4 -8 14 0 8 7 17 8 19 4 7 -10 48 -10 65 1 7 4 12 4 12
1 0 -3 9 3 21 14 12 11 18 24 14 30 -3 6 1 14 10 17 9 4 14 12 11 19 -3 8 2
16 10 19 9 3 13 10 10 15 -3 5 1 12 10 15 9 4 14 13 10 22 -3 8 -2 13 2 10 4
-3 14 4 21 16 10 16 10 19 -1 12 -17 -10 8 24 37 49 11 10 14 16 8 12 -18 -9
-16 3 2 22 8 8 13 19 9 24 -3 5 0 8 8 7 7 -2 12 3 11 9 -2 7 2 13 8 13 5 0 7
5 4 10 -3 6 -1 10 5 10 6 0 8 5 5 10 -3 6 -1 10 4 10 6 0 11 7 11 15 0 8 9 24
19 34 11 11 17 22 14 25 -4 3 -1 6 5 6 6 0 9 7 5 17 -4 9 -2 14 3 11 5 -3 15
0 21 8 9 9 10 15 2 20 -7 4 -1 15 16 30 15 12 24 27 21 32 -3 6 1 12 9 16 8 3
15 13 15 21 0 10 5 13 12 9 7 -4 8 -3 4 5 -4 6 2 23 13 37 11 15 18 30 15 35
-3 5 2 12 10 15 9 3 13 10 10 15 -3 5 0 9 5 9 6 0 11 8 11 17 0 10 12 28 28
41 15 13 20 20 12 16 -12 -6 -12 -4 1 12 16 19 28 44 25 54 -2 11 30 38 39 32
6 -3 3 3 -5 13 -8 10 -10 16 -3 12 7 -5 16 6 23 28 6 19 16 35 21 35 5 0 9 7
9 16 0 8 5 12 10 9 6 -4 13 7 16 24 4 17 10 28 15 25 5 -3 6 3 2 12 -5 14 -3
16 11 11 10 -4 15 -3 11 3 -10 15 5 51 17 44 7 -5 9 -1 5 9 -3 10 -3 17 1 17
11 0 43 61 36 71 -3 5 -2 8 3 7 21 -7 61 56 68 107 0 6 7 9 14 7 7 -1 10 2 6
8 -3 5 -1 10 5 10 6 0 9 4 5 9 -3 5 2 17 11 25 8 9 12 16 7 16 -4 0 0 5 11 11
15 9 16 13 5 20 -11 7 -10 9 4 9 10 0 15 5 12 10 -3 6 -1 10 6 10 7 0 10 3 6
6 -3 4 1 13 9 21 8 8 12 19 9 24 -4 5 -2 9 4 9 5 0 13 9 16 20 4 11 11 17 17
14 7 -5 8 -2 3 6 -5 8 -1 18 10 27 12 8 14 13 5 13 -8 0 -5 7 8 19 12 10 19
21 15 25 -3 3 -1 6 6 6 7 0 9 5 6 10 -3 6 -2 10 3 10 8 0 21 27 26 53 0 4 6
11 12 15 6 4 14 17 18 30 4 12 12 20 17 17 5 -4 9 4 9 15 0 16 4 20 16 16 14
-5 15 -4 4 9 -9 11 -9 15 -1 15 7 0 9 5 6 10 -3 6 2 10 12 10 15 0 16 2 3 10
-12 8 -12 10 3 16 9 3 17 12 17 20 0 8 4 14 9 14 5 0 8 8 7 18 0 11 6 16 17
16 14 -2 15 1 6 12 -8 10 -8 14 0 14 6 0 11 7 11 15 0 8 4 15 9 15 5 0 12 11
15 25 4 15 14 25 24 25 15 0 15 2 2 10 -10 6 -11 10 -2 10 6 0 12 9 12 21 0
11 4 18 9 15 5 -3 11 8 15 25 3 17 10 28 16 24 5 -3 10 3 10 15 0 12 4 18 10
15 5 -3 7 0 4 8 -3 8 2 22 11 31 10 10 14 24 10 36 -4 13 -2 20 6 20 10 0 10
3 1 12 -15 15 -16 32 -1 22 7 -4 7 1 -1 16 -9 18 -9 24 0 30 9 5 9 9 1 14 -6
4 -11 12 -11 17 0 6 5 7 11 3 7 -4 6 2 -1 17 -10 17 -10 24 -1 27 6 2 8 9 4
14 -10 18 -12 68 -1 68 5 0 6 5 3 10 -12 19 -15 71 -4 64 7 -4 6 3 -1 16 -9
18 -9 24 0 30 7 4 8 10 3 13 -8 5 -10 60 -3 77 1 3 1 10 0 15 -8 38 -8 45 3
45 8 0 8 3 2 8 -13 10 -15 82 -2 82 7 0 7 4 0 11 -8 8 -8 20 -2 36 6 17 6 22
-2 17 -7 -4 -9 2 -7 17 2 15 -2 23 -9 21 -11 -2 -18 25 -14 51 1 5 -3 6 -9 2
-5 -3 -10 1 -10 9 0 9 -4 16 -10 16 -5 0 -10 7 -10 15 0 9 -8 19 -17 22 -15 6
-15 7 3 14 18 7 17 8 -3 8 -16 1 -21 6 -18 21 2 11 -1 19 -8 17 -7 -1 -12 8
-11 21 0 12 -5 22 -12 22 -15 0 -26 28 -17 42 3 7 1 8 -5 4 -7 -4 -12 -1 -12
9 0 10 -5 13 -12 9 -8 -5 -9 0 -6 14 4 12 3 20 -1 18 -4 -3 -13 4 -20 16 -9
15 -10 18 0 13 8 -5 10 -4 5 3 -4 7 -14 12 -22 12 -8 0 -13 4 -10 9 3 4 -4 25
-14 47 -11 21 -20 34 -20 29 -1 -6 -16 20 -34 58 -18 37 -36 64 -41 60 -4 -5
-5 0 -2 10 4 10 3 16 -2 12 -5 -3 -12 -1 -15 4 -4 5 -1 13 6 17 8 5 4 10 -10
15 -12 5 -22 16 -22 26 0 9 -10 28 -22 41 -13 14 -16 22 -8 18 8 -4 7 -1 -4 8
-10 8 -15 19 -12 25 4 5 1 13 -5 17 -8 5 -9 3 -4 -6 5 -9 4 -11 -4 -6 -6 4 -9
12 -6 17 4 5 0 16 -9 24 -11 11 -16 12 -19 2 -3 -6 -4 3 -2 21 3 23 -1 32 -11
32 -8 0 -14 8 -14 18 0 9 -9 23 -20 30 -11 7 -20 21 -20 31 0 30 -11 52 -23
44 -6 -4 -8 2 -5 15 6 20 -2 27 -26 23 -5 -1 -6 5 -3 13 3 8 -1 20 -9 26 -8 7
-14 19 -14 26 0 8 -5 14 -11 14 -5 0 -8 4 -4 9 3 5 1 12 -5 16 -6 4 -7 11 -4
17 4 6 2 8 -4 4 -6 -3 -16 7 -24 24 -7 16 -17 30 -21 30 -5 0 -6 4 -2 9 3 5
-1 16 -9 24 -11 11 -12 17 -3 26 9 9 8 11 -4 6 -11 -4 -24 3 -38 21 -18 23
-25 24 -22 2 1 -8 -20 -5 -36 5 -6 4 -14 1 -16 -5 -4 -10 -6 -10 -6 0 -1 6 -8
12 -17 12 -9 0 -12 -5 -8 -12 4 -7 -2 -5 -13 5 -14 13 -23 15 -28 7 -5 -8 -11
-7 -23 2 -13 11 -14 11 -8 0 6 -10 1 -11 -18 -6 -18 4 -26 2 -26 -7 -1 -10 -4
-9 -10 3 -8 13 -16 15 -43 7 -39 -11 -39 -11 -33 -1 3 5 -15 6 -39 2 -26 -4
-48 -3 -55 4 -7 7 -10 6 -10 -3 0 -10 -3 -11 -14 -2 -11 9 -15 9 -19 -1 -4 -9
-6 -9 -6 -1 -1 8 -10 9 -30 3 -21 -6 -31 -5 -35 3 -3 9 -7 8 -14 -2 -8 -11
-10 -11 -15 0 -4 11 -6 11 -6 1 -1 -7 -6 -10 -13 -6 -18 11 -68 13 -68 2 0 -6
-6 -6 -14 1 -10 9 -16 9 -21 1 -5 -8 -11 -8 -21 1 -11 9 -14 8 -14 -5z m-363
-3881 c0 -8 -4 -12 -9 -9 -5 3 -6 10 -3 15 9 13 12 11 12 -6z"/>
<path d="M1841 5562 c-1 -7 -5 -10 -11 -7 -9 5 -15 -24 -11 -49 1 -5 -6 -3
-15 5 -10 8 -15 9 -11 2 4 -6 0 -18 -8 -26 -11 -12 -12 -17 -2 -20 7 -3 5 -6
-5 -6 -10 -1 -18 -4 -17 -8 3 -18 -14 -52 -22 -47 -5 3 -9 -4 -9 -15 0 -12 -5
-21 -11 -21 -5 0 -8 -4 -5 -9 3 -5 -1 -12 -10 -15 -8 -3 -12 -10 -9 -16 3 -5
1 -10 -4 -10 -6 0 -10 -6 -8 -12 1 -7 -3 -12 -10 -11 -8 2 -10 -4 -6 -14 5
-12 3 -14 -7 -8 -8 5 -11 4 -6 -3 3 -6 -1 -18 -10 -26 -12 -12 -12 -16 -2 -17
7 0 3 -4 -10 -10 -18 -7 -22 -14 -17 -30 4 -12 3 -19 -1 -16 -5 3 -18 -7 -28
-21 -12 -16 -14 -23 -5 -18 8 4 6 1 -3 -7 -10 -8 -15 -17 -11 -20 3 -4 -1 -9
-10 -13 -9 -3 -14 -14 -12 -26 3 -14 0 -18 -11 -14 -9 3 -12 1 -9 -4 3 -6 1
-10 -6 -10 -7 0 -10 -3 -6 -6 6 -7 -19 -64 -29 -64 -3 0 -2 6 2 13 4 6 3 8 -1
4 -13 -11 -15 -37 -3 -37 6 0 5 -7 -3 -17 -7 -10 -10 -15 -5 -11 11 9 36 -16
36 -36 0 -9 5 -16 10 -16 6 0 10 -7 10 -15 0 -8 5 -15 10 -15 6 0 10 -9 10
-21 0 -13 4 -18 12 -13 6 4 8 3 5 -3 -4 -6 2 -21 13 -33 22 -25 26 -35 10 -25
-5 3 -10 1 -10 -4 0 -6 10 -11 23 -11 16 0 18 -3 9 -9 -11 -7 -11 -9 2 -14 9
-4 16 -15 16 -27 0 -11 9 -25 19 -32 15 -9 17 -15 9 -25 -8 -10 -6 -13 6 -13
10 0 15 -4 12 -8 -3 -5 4 -15 14 -22 15 -11 17 -17 8 -27 -9 -11 -8 -13 3 -11
8 2 13 -3 12 -9 -2 -7 2 -13 7 -13 6 0 10 -7 10 -16 0 -8 5 -12 10 -9 6 4 10
3 9 -2 -4 -22 2 -43 11 -38 6 3 10 -2 10 -12 1 -24 25 -55 36 -45 4 4 2 -1 -6
-11 -11 -16 -11 -18 1 -15 8 2 14 -4 14 -12 0 -8 8 -21 18 -29 10 -7 16 -19
13 -27 -3 -8 1 -14 8 -14 8 0 17 -7 20 -16 4 -9 2 -13 -6 -8 -6 4 -3 -7 7 -24
10 -17 22 -29 27 -26 4 3 8 -2 8 -11 0 -9 7 -27 16 -40 9 -14 13 -25 8 -25 -4
0 5 -13 21 -30 16 -16 26 -33 22 -36 -4 -4 2 -13 13 -21 11 -8 20 -23 20 -34
0 -13 4 -18 12 -13 7 5 9 0 6 -14 -4 -15 -2 -19 8 -15 8 3 14 0 14 -6 0 -6 -6
-11 -12 -12 -7 0 -2 -5 11 -10 15 -6 21 -15 17 -24 -3 -10 1 -15 12 -15 15 0
15 -2 2 -10 -13 -8 -13 -10 2 -10 12 0 15 -5 11 -17 -4 -11 -3 -14 5 -9 11 6
17 -12 13 -37 -1 -5 3 -6 9 -2 6 3 10 -3 10 -15 0 -12 5 -18 10 -15 6 3 10 -3
10 -15 0 -12 5 -18 10 -15 6 3 10 -3 10 -14 0 -12 5 -21 12 -21 6 0 8 -3 5 -7
-4 -3 2 -13 13 -20 11 -8 18 -18 15 -22 -7 -12 24 -71 37 -71 5 0 8 -6 5 -14
-3 -8 1 -17 10 -20 9 -4 13 -13 9 -22 -3 -8 -2 -12 4 -9 6 3 10 -1 10 -10 0
-8 7 -18 15 -21 8 -4 12 -10 9 -15 -6 -10 20 -51 28 -44 3 3 8 -1 12 -10 4
-11 2 -14 -7 -9 -9 6 -9 5 0 -8 7 -8 9 -19 5 -23 -4 -5 -2 -6 3 -3 6 3 16 0
23 -8 8 -9 9 -14 2 -14 -6 0 -4 -7 4 -16 9 -8 14 -20 11 -25 -4 -5 2 -9 11 -9
10 0 14 -3 11 -6 -4 -4 2 -15 14 -25 14 -12 16 -18 7 -22 -8 -4 -7 -6 4 -6 11
-1 15 -6 12 -16 -4 -8 -1 -15 5 -15 6 0 8 -7 4 -15 -3 -10 0 -15 8 -13 8 2 13
-3 11 -10 -1 -7 4 -15 12 -18 8 -3 12 -12 9 -20 -3 -8 1 -14 11 -14 9 0 13 -6
10 -14 -3 -8 0 -17 5 -21 6 -3 8 -11 5 -17 -5 -7 -2 -8 6 -3 10 6 12 4 7 -8
-4 -12 -2 -14 11 -10 9 3 14 3 10 -2 -4 -4 -3 -14 3 -22 6 -7 8 -13 4 -13 -5
0 1 -8 13 -18 17 -15 19 -21 9 -32 -10 -10 -8 -12 8 -6 11 4 16 4 12 0 -4 -4
1 -16 10 -27 13 -15 14 -18 3 -13 -8 4 -4 -1 9 -12 22 -18 30 -35 33 -69 1 -7
8 -13 15 -13 8 0 11 -4 8 -10 -3 -5 -1 -10 5 -10 6 0 9 -4 5 -9 -3 -6 4 -19
15 -29 12 -11 22 -29 23 -41 1 -11 8 -21 15 -21 9 0 12 -6 8 -16 -3 -8 -2 -13
3 -10 5 3 12 -1 15 -10 4 -10 2 -13 -7 -9 -6 4 -3 -2 9 -12 11 -10 20 -28 19
-40 -1 -11 3 -19 9 -17 6 2 17 -5 24 -17 8 -12 9 -18 3 -14 -6 3 -11 1 -11 -4
0 -6 7 -11 16 -11 8 0 12 -4 9 -10 -3 -5 -1 -10 5 -10 7 0 10 -6 7 -14 -3 -8
5 -22 18 -32 13 -10 22 -21 19 -25 -2 -4 4 -12 13 -18 10 -6 12 -11 6 -11 -7
0 -13 -5 -13 -11 0 -5 4 -8 9 -5 5 4 15 -7 22 -23 7 -16 17 -27 21 -25 5 3 8
2 7 -3 -4 -20 3 -34 27 -58 21 -21 29 -24 35 -13 7 10 9 10 9 -2 0 -9 3 -11 8
-5 8 12 42 13 60 2 7 -5 12 -3 12 5 0 9 3 9 10 -2 9 -13 10 -13 10 0 0 13 1
13 10 0 5 -8 10 -10 10 -4 0 13 42 13 52 -1 5 -6 8 -5 8 4 0 11 3 11 15 1 8
-7 15 -8 15 -4 0 10 63 10 79 -1 6 -3 11 -1 11 4 0 13 22 10 32 -4 5 -6 8 -5
8 4 0 11 3 11 15 1 8 -7 15 -8 15 -4 0 10 63 10 79 -1 6 -3 11 -1 11 4 0 13
22 10 32 -4 5 -6 8 -5 8 4 0 11 3 11 15 1 8 -7 15 -8 15 -4 0 16 65 10 72 -6
5 -13 7 -12 7 2 1 14 6 15 31 8 17 -5 30 -5 30 0 0 5 8 11 18 13 16 4 16 5 0
6 -10 0 -18 8 -18 17 0 9 -5 12 -11 8 -7 -4 -10 -1 -7 7 3 8 -3 26 -14 41 -11
16 -17 32 -14 37 3 5 -2 15 -12 22 -16 13 -16 13 -2 -6 14 -19 14 -19 -3 -6
-10 8 -16 20 -13 28 3 7 1 13 -5 13 -6 0 -8 8 -5 17 4 10 4 14 0 10 -11 -10
-34 13 -34 34 0 11 -5 19 -12 19 -6 0 -9 3 -5 6 3 4 1 12 -6 20 -33 37 -35 42
-25 52 7 7 4 14 -11 24 -11 7 -21 18 -21 25 0 7 -5 13 -11 13 -5 0 -8 4 -4 9
3 5 0 15 -7 23 -28 30 -60 80 -47 74 8 -4 6 -1 -5 8 -10 8 -15 20 -10 27 4 7
3 10 -4 5 -6 -4 -12 3 -14 16 -2 14 -9 22 -18 20 -8 -2 -12 0 -7 4 4 4 -1 16
-10 27 -10 11 -12 17 -5 13 6 -4 12 -2 12 3 0 6 -7 11 -15 11 -14 0 -19 12
-16 33 0 4 -4 7 -10 7 -5 0 -7 5 -4 10 3 6 0 10 -8 10 -7 0 -14 7 -15 15 -1 8
-3 22 -4 30 -1 8 -5 12 -10 9 -4 -3 -8 2 -8 11 0 10 -5 13 -12 9 -6 -4 -8 -3
-5 3 4 6 -3 23 -15 39 -13 15 -17 25 -10 21 8 -6 10 -3 6 7 -3 9 -10 13 -15
10 -5 -3 -9 2 -9 10 0 9 -5 16 -12 16 -6 0 -8 3 -5 6 9 9 -12 46 -23 39 -4 -3
-6 5 -2 17 3 14 2 19 -6 14 -8 -5 -12 1 -12 16 0 13 -9 30 -19 38 -11 7 -18
17 -15 22 3 4 0 8 -7 8 -7 0 -10 3 -6 6 3 4 -1 13 -9 21 -8 8 -12 19 -9 24 4
5 -1 9 -9 9 -10 0 -13 6 -10 15 4 8 -1 17 -10 21 -9 3 -13 10 -10 15 3 5 1 9
-4 9 -6 0 -13 11 -16 25 -4 14 -11 23 -16 20 -6 -3 -7 1 -4 9 4 9 1 16 -6 16
-7 0 -10 7 -6 16 4 10 2 13 -6 8 -8 -5 -9 -2 -5 10 4 10 3 15 -3 11 -6 -3 -10
1 -10 9 0 9 -5 16 -11 16 -5 0 -8 4 -5 9 3 5 -1 12 -10 15 -9 3 -14 13 -11 20
3 8 -1 17 -10 20 -8 4 -13 13 -10 20 3 8 -1 17 -9 20 -8 3 -14 12 -14 21 0 8
-5 15 -12 15 -6 0 -8 3 -5 7 4 3 -2 12 -12 20 -12 8 -18 22 -16 33 2 11 0 18
-6 15 -5 -4 -9 1 -9 10 0 10 -5 13 -12 9 -6 -4 -8 -3 -4 4 3 6 2 13 -4 17 -6
4 -8 10 -5 15 3 5 -3 18 -15 30 -11 11 -20 30 -20 43 0 18 -2 19 -11 7 -9 -12
-10 -11 -6 8 3 13 1 20 -5 16 -5 -3 -12 3 -15 15 -3 11 -10 18 -16 14 -6 -3
-7 -1 -3 6 4 6 -2 23 -13 37 -11 15 -18 30 -15 35 3 5 0 9 -5 9 -6 0 -11 9
-11 21 0 14 -5 19 -14 16 -11 -4 -13 -1 -9 10 5 12 3 14 -7 8 -8 -5 -11 -4 -6
3 3 6 -1 18 -10 26 -10 11 -11 16 -3 16 7 0 1 9 -12 21 -13 12 -23 26 -21 32
2 5 -1 13 -5 16 -17 12 -45 64 -32 56 8 -3 6 0 -3 8 -10 8 -18 19 -18 26 0 6
-5 11 -12 11 -6 0 -8 3 -5 7 4 3 -1 12 -11 20 -9 8 -11 12 -5 8 9 -4 11 -1 7
9 -3 9 -9 14 -13 12 -4 -3 -13 5 -21 17 -12 20 -12 21 3 9 14 -12 15 -11 4 12
-8 16 -14 21 -19 13 -5 -8 -8 -4 -8 10 0 12 -4 23 -8 25 -4 2 -20 29 -36 61
-15 31 -30 57 -32 57 -3 0 -2 -5 2 -12 4 -6 3 -8 -4 -4 -6 3 -9 15 -7 26 2 11
0 20 -6 20 -5 0 -9 6 -9 14 0 8 -8 21 -19 28 -10 7 -17 21 -15 31 1 9 -4 17
-12 17 -8 0 -17 13 -20 30 -4 17 -13 30 -20 30 -8 0 -14 5 -14 11 0 5 6 7 13
4 6 -4 2 2 -11 13 -15 14 -18 22 -10 25 8 3 6 6 -5 6 -10 1 -15 6 -12 11 3 6
1 10 -5 10 -6 0 -8 5 -5 10 3 6 2 10 -4 10 -10 0 -27 39 -23 53 1 5 -2 6 -8 2
-10 -6 -14 7 -11 34 2 8 -2 10 -10 5 -9 -5 -10 -2 -6 10 4 10 3 15 -3 11 -5
-3 -14 4 -20 15 -6 11 -7 20 -3 20 4 1 -3 8 -17 16 -17 11 -19 13 -5 9 19 -6
19 -5 -1 17 -12 13 -19 29 -17 36 3 7 -1 11 -9 10 -7 -2 -12 3 -10 10 1 6 -3
12 -10 12 -6 0 -8 3 -5 7 4 3 -1 12 -11 20 -11 10 -12 12 -2 8 8 -4 5 2 -8 12
-12 10 -24 29 -27 43 -3 14 -9 26 -15 28 -6 2 -8 8 -4 13 3 5 0 9 -5 9 -6 0
-11 7 -11 15 0 8 -5 15 -11 15 -5 0 -7 5 -4 10 3 6 -1 13 -10 16 -13 6 -14 8
-3 15 10 7 9 9 -5 9 -10 0 -16 4 -13 8 7 11 -31 72 -44 72 -5 0 -10 11 -10 24
0 14 -8 31 -18 38 -11 7 -21 20 -25 28 -4 10 -6 11 -6 2z m120 -1439 c13 -16
12 -17 -3 -4 -10 7 -18 15 -18 17 0 8 8 3 21 -13z m1574 -1463 c3 -5 1 -10 -4
-10 -6 0 -11 5 -11 10 0 6 2 10 4 10 3 0 8 -4 11 -10z"/>
<path d="M5415 3200 c-3 -5 -1 -10 4 -10 6 0 11 5 11 10 0 6 -2 10 -4 10 -3 0
-8 -4 -11 -10z"/>
<path d="M2630 2916 c0 -2 7 -7 16 -10 8 -3 12 -2 9 4 -6 10 -25 14 -25 6z"/>
<path d="M4085 2860 c-3 -6 1 -7 9 -4 18 7 21 14 7 14 -6 0 -13 -4 -16 -10z"/>
<path d="M6025 2249 c-4 -6 -5 -12 -2 -15 2 -3 7 2 10 11 7 17 1 20 -8 4z"/>
<path d="M3956 1953 c-6 -14 -5 -15 5 -6 7 7 10 15 7 18 -3 3 -9 -2 -12 -12z"/>
<path d="M3050 1306 c0 -2 7 -7 16 -10 8 -3 12 -2 9 4 -6 10 -25 14 -25 6z"/>
</g>
</svg>
